<?xml version="1.0" encoding="UTF-8" standalone="no"?>
<!-- Created with Inkscape (http://www.inkscape.org/) -->

<svg
   width="466.21799"
   height="466.21799"
   viewBox="0 0 123.35351 123.35351"
   version="1.1"
   id="svg1"
   inkscape:version="1.4.3 (0d15f75, 2025-12-25)"
   sodipodi:docname="Coolant_Temperature_Gauge_v1.1_20260204.svg"
   inkscape:export-filename="Coolant_Temperature_Gauge_v1.1_20260204.png"
   inkscape:export-xdpi="49.418941"
   inkscape:export-ydpi="49.418941"
   xml:space="preserve"
   xmlns:inkscape="http://www.inkscape.org/namespaces/inkscape"
   xmlns:sodipodi="http://sodipodi.sourceforge.net/DTD/sodipodi-0.dtd"
   xmlns="http://www.w3.org/2000/svg"
   xmlns:svg="http://www.w3.org/2000/svg"><sodipodi:namedview
     id="namedview1"
     pagecolor="#ffffff"
     bordercolor="#000000"
     borderopacity="0.25"
     inkscape:showpageshadow="2"
     inkscape:pageopacity="0.0"
     inkscape:pagecheckerboard="0"
     inkscape:deskcolor="#d1d1d1"
     inkscape:document-units="mm"
     inkscape:zoom="1.8682248"
     inkscape:cx="232.84136"
     inkscape:cy="233.10899"
     inkscape:window-width="2048"
     inkscape:window-height="1080"
     inkscape:window-x="0"
     inkscape:window-y="0"
     inkscape:window-maximized="1"
     inkscape:current-layer="layer1"
     inkscape:export-bgcolor="#000000ff"
     showguides="true"><sodipodi:guide
       position="28.620452,52.486325"
       orientation="0,-1"
       id="guide2"
       inkscape:locked="false" /><sodipodi:guide
       position="79.021909,74.530386"
       orientation="1,0"
       id="guide3"
       inkscape:locked="false" /></sodipodi:namedview><defs
     id="defs1"><inkscape:path-effect
       effect="ruler"
       id="path-effect53"
       is_visible="true"
       lpeversion="1.3.1"
       unit="px"
       mark_distance="22.9"
       mark_angle="0"
       mark_length="22"
       minor_mark_length="11"
       minor_mark_gap="0"
       major_mark_gap="0"
       major_mark_steps="4"
       shift="2"
       offset="-22"
       mark_dir="left"
       border_marks="start" /><inkscape:path-effect
       effect="ruler"
       id="path-effect51"
       is_visible="true"
       lpeversion="1.3.1"
       unit="px"
       mark_distance="23.3"
       mark_angle="0"
       mark_length="21"
       minor_mark_length="11"
       minor_mark_gap="0"
       major_mark_gap="0"
       major_mark_steps="5"
       shift="0"
       offset="0"
       mark_dir="right"
       border_marks="start" /><inkscape:path-effect
       effect="ruler"
       id="path-effect46"
       is_visible="true"
       lpeversion="1.3.1"
       unit="px"
       mark_distance="20"
       mark_angle="0"
       mark_length="14"
       minor_mark_length="7"
       minor_mark_gap="0"
       major_mark_gap="0"
       major_mark_steps="5"
       shift="0"
       offset="0"
       mark_dir="left"
       border_marks="both" /><inkscape:path-effect
       effect="ruler"
       id="path-effect45"
       is_visible="true"
       lpeversion="1.3.1"
       unit="px"
       mark_distance="20"
       mark_angle="0"
       mark_length="14"
       minor_mark_length="7"
       minor_mark_gap="0"
       major_mark_gap="0"
       major_mark_steps="5"
       shift="0"
       offset="0"
       mark_dir="right"
       border_marks="both" /><inkscape:path-effect
       effect="ruler"
       id="path-effect42"
       is_visible="true"
       lpeversion="1.3.1"
       unit="px"
       mark_distance="20"
       mark_angle="0"
       mark_length="14"
       minor_mark_length="7"
       minor_mark_gap="0"
       major_mark_gap="0"
       major_mark_steps="5"
       shift="0"
       offset="0"
       mark_dir="right"
       border_marks="both" /><inkscape:path-effect
       effect="ruler"
       id="path-effect40"
       is_visible="true"
       lpeversion="1.3.1"
       unit="px"
       mark_distance="20"
       mark_angle="0"
       mark_length="14"
       minor_mark_length="7"
       minor_mark_gap="0"
       major_mark_gap="0"
       major_mark_steps="5"
       shift="0"
       offset="0"
       mark_dir="left"
       border_marks="both" /><inkscape:path-effect
       effect="ruler"
       id="path-effect38"
       is_visible="true"
       lpeversion="1.3.1"
       unit="px"
       mark_distance="20"
       mark_angle="0"
       mark_length="14"
       minor_mark_length="7"
       minor_mark_gap="0"
       major_mark_gap="0"
       major_mark_steps="5"
       shift="0"
       offset="0"
       mark_dir="left"
       border_marks="both" /><inkscape:path-effect
       effect="ruler"
       id="path-effect36"
       is_visible="true"
       lpeversion="1.3.1"
       unit="px"
       mark_distance="20"
       mark_angle="0"
       mark_length="14"
       minor_mark_length="7"
       minor_mark_gap="0"
       major_mark_gap="0"
       major_mark_steps="5"
       shift="0"
       offset="0"
       mark_dir="right"
       border_marks="both" /><inkscape:path-effect
       effect="ruler"
       id="path-effect34"
       is_visible="true"
       lpeversion="1.3.1"
       unit="px"
       mark_distance="20"
       mark_angle="0"
       mark_length="14"
       minor_mark_length="7"
       minor_mark_gap="0"
       major_mark_gap="0"
       major_mark_steps="5"
       shift="0"
       offset="0"
       mark_dir="right"
       border_marks="both" /><inkscape:path-effect
       effect="ruler"
       id="path-effect33"
       is_visible="true"
       lpeversion="1.3.1"
       unit="px"
       mark_distance="20"
       mark_angle="0"
       mark_length="14"
       minor_mark_length="7"
       minor_mark_gap="0"
       major_mark_gap="0"
       major_mark_steps="5"
       shift="0"
       offset="0"
       mark_dir="left"
       border_marks="both" /></defs><g
     inkscape:label="Layer 1"
     inkscape:groupmode="layer"
     id="layer1"><circle
       style="display:inline;fill:none;stroke:#9f0000;stroke-width:0.281881;stroke-dasharray:none;stroke-opacity:0.7"
       id="path1"
       cx="61.676754"
       cy="61.676754"
       r="61.535816"
       sodipodi:insensitive="true" /><g
       id="g64"><path
         d="m 97.158143,77.709134 c -0.907542,-0.498856 -1.184527,-0.566297 -1.504643,-0.366402 -0.133168,0.08318 -0.268491,0.0898 -0.460826,0.02243 -0.220653,-0.07711 -0.277882,-0.161725 -0.301766,-0.44616 -0.03556,-0.423289 0.130763,-0.616712 0.66876,-0.777923 0.371942,-0.11142 0.428885,-0.09601 1.430741,0.387141 0.573857,0.27675 1.101468,0.502938 1.172469,0.502644 0.071,-3.31e-4 0.564028,-0.241375 1.095615,-0.535702 0.53159,-0.294291 1.034627,-0.535114 1.117867,-0.535114 0.0832,0 0.62111,0.249465 1.19529,0.554309 l 1.04395,0.554309 1.03801,-0.554309 c 0.5709,-0.304844 1.10279,-0.554309 1.18197,-0.554309 0.0792,0 0.59894,0.240823 1.15501,0.535114 0.55608,0.294327 1.06537,0.535113 1.13175,0.535113 0.0664,0 0.52423,-0.240786 1.01742,-0.535113 0.49319,-0.294291 0.96586,-0.535114 1.05037,-0.535114 0.33661,0 1.06563,0.406998 1.15633,0.645542 0.16769,0.441086 -0.29163,0.92766 -0.67965,0.720005 -0.33501,-0.179302 -0.6005,-0.109435 -1.46581,0.385744 -0.46755,0.267557 -0.9442,0.486463 -1.05922,0.486463 -0.11503,0 -0.64537,-0.218906 -1.17854,-0.486463 -0.53317,-0.267557 -1.0414,-0.486464 -1.12939,-0.486464 -0.088,0 -0.56487,0.218907 -1.05972,0.486464 -0.49485,0.267557 -0.99362,0.486463 -1.10837,0.486463 -0.11475,0 -0.64486,-0.218906 -1.17804,-0.486463 -0.53317,-0.267557 -1.0117,-0.486464 -1.0634,-0.486464 -0.0517,0 -0.496877,0.218907 -0.989301,0.486464 -0.492424,0.267557 -1.009144,0.484809 -1.148273,0.482749 -0.139129,-0.0037 -0.646998,-0.220341 -1.128603,-0.485066 z m 4.767397,-2.178735 c -1.09949,-0.490766 -1.35809,-1.922135 -0.51416,-2.846008 0.18596,-0.203609 0.19228,-0.348787 0.17879,-4.108224 -0.009,-2.563853 0.0225,-4.032694 0.0927,-4.293227 0.21361,-0.793293 1.12322,-1.00422 1.67779,-0.389053 0.22901,0.254025 0.26755,0.380669 0.26755,0.87901 v 0.582256 h 1.11888 1.11889 v 0.389163 0.389164 l -0.97295,0.01214 c -0.53511,0.0066 -1.02766,0.01765 -1.09455,0.02427 -0.082,0.0081 -0.13092,0.241742 -0.15021,0.717541 l -0.0286,0.705407 h 1.12315 1.12314 v 0.389164 0.389163 h -1.12314 -1.12315 l 0.0286,0.705407 0.0286,0.70537 1.09456,0.02758 1.09456,0.02758 v 0.385964 0.386001 h -1.11888 -1.11888 v 0.935787 c 0,0.898058 0.0116,0.948988 0.28779,1.26354 0.33948,0.386626 0.52786,1.001646 0.43896,1.433025 -0.22298,1.081994 -1.443,1.729337 -2.4294,1.289023 z m -4.999586,-0.570782 -1.010538,-0.499518 -0.563605,0.312235 c -0.309978,0.171691 -0.651134,0.312199 -0.758124,0.312199 -0.300704,0 -0.514742,-0.275904 -0.481234,-0.620279 0.02666,-0.273845 0.111428,-0.346618 0.854306,-0.733133 0.937397,-0.487751 0.737921,-0.504004 2.362151,0.19243 l 0.754532,0.323525 0.510288,-0.225489 c 0.706183,-0.312089 0.982194,-0.348493 1.175658,-0.155033 0.211901,0.21192 0.206378,0.660838 -0.01055,0.857167 -0.199436,0.180479 -1.507423,0.753469 -1.695396,0.742731 -0.06982,-0.004 -0.581694,-0.232071 -1.137492,-0.506835 z m 9.329166,0.176655 c -0.88014,-0.392951 -1.10017,-0.670069 -0.84329,-1.062101 0.20959,-0.319884 0.48599,-0.323708 0.98923,-0.0136 0.21405,0.131829 0.48717,0.241043 0.60692,0.242735 0.11976,0.0037 0.67362,-0.223687 1.2308,-0.500805 l 1.01305,-0.50382 0.84343,0.382213 c 0.89004,0.403321 1.07863,0.591339 0.98147,0.97848 -0.10406,0.414573 -0.45634,0.456935 -1.13424,0.136316 l -0.59761,-0.282597 -0.47447,0.186988 c -0.26096,0.10289 -0.736,0.319038 -1.05564,0.480396 -0.31964,0.161358 -0.63713,0.29076 -0.70555,0.287561 -0.0684,-0.0037 -0.45276,-0.152422 -0.8541,-0.331614 z"
         style="display:inline;fill:#bbbacc;fill-opacity:1;stroke-width:0.367725"
         id="path1-2" /><text
         xml:space="preserve"
         style="font-weight:bold;font-size:3.175px;font-family:FreeSerif;-inkscape-font-specification:'FreeSerif Bold';writing-mode:lr-tb;direction:ltr;fill:none;fill-opacity:1;stroke:#1b589d;stroke-width:0.920999;stroke-opacity:1"
         x="36.397076"
         y="96.303543"
         id="text3"><tspan
           sodipodi:role="line"
           id="tspan3"
           style="stroke-width:0.921"></tspan></text><circle
         style="display:inline;fill:#1b589d;fill-opacity:1;stroke:#93a2b4;stroke-width:1.065;stroke-opacity:1"
         id="path1487"
         cx="79.021912"
         cy="70.867188"
         r="8.2439289" /><text
         xml:space="preserve"
         style="font-style:normal;font-weight:normal;font-size:7.76787px;line-height:1.25;font-family:sans-serif;letter-spacing:0px;word-spacing:0px;display:inline;fill:#bbbacc;fill-opacity:1;stroke:none;stroke-width:0.194197"
         x="79.955093"
         y="45.124588"
         id="text313"><tspan
           sodipodi:role="line"
           id="tspan313"
           x="79.955093"
           y="45.124588"
           style="font-style:normal;font-variant:normal;font-weight:bold;font-stretch:normal;font-family:'DejaVu Sans Mono';-inkscape-font-specification:'DejaVu Sans Mono Bold';text-align:center;text-anchor:middle;fill:#bbbacc;fill-opacity:1;stroke-width:0.194197">ENGINE</tspan><tspan
           sodipodi:role="line"
           x="79.955093"
           y="55.146961"
           style="font-style:normal;font-variant:normal;font-weight:bold;font-stretch:normal;font-family:'DejaVu Sans Mono';-inkscape-font-specification:'DejaVu Sans Mono Bold';text-align:center;text-anchor:middle;fill:#bbbacc;fill-opacity:1;stroke-width:0.194197"
           id="tspan316">TEMPERATURE</tspan></text><path
         style="fill:none;fill-opacity:1;stroke:#bbbacc;stroke-width:1.27694;stroke-dasharray:none;stroke-opacity:1"
         id="path46"
         inkscape:path-effect="#path-effect51"
         sodipodi:type="arc"
         sodipodi:cx="55.627159"
         sodipodi:cy="237.00208"
         sodipodi:rx="44.72258"
         sodipodi:ry="44.72258"
         d="m 16.379859,258.44406 c -7.690275,-14.07625 -7.2533354,-31.19293 1.145107,-44.85848 8.398442,-13.66554 23.472088,-21.78693 39.504183,-21.2841 m -40.64929,66.14258 4.876011,-2.66392 m -7.450049,-2.93241 2.721612,-1.03119 m -4.502248,-4.86574 2.837491,-0.64744 m -3.790943,-5.43824 2.899538,-0.2514 m -3.00772,-5.90756 2.906579,0.14941 m -2.167438,-6.26482 5.457094,1.04501 m -3.884652,-7.00084 2.756148,0.93497 m -0.380236,-6.61824 2.60153,1.30482 m 0.532778,-6.60771 2.397558,1.64992 m 1.435684,-6.47182 2.148102,1.96371 m 2.311352,-6.21316 3.546888,4.27686 m 1.454178,-7.87323 1.532439,2.4743 m 3.915363,-5.34936 1.177911,2.6614 m 4.613274,-4.76061 0.801038,2.79801 m 5.223664,-4.08155 0.408968,2.88154 m 5.734957,-3.32505 0.01745,5.55622"
         sodipodi:start="2.6415714"
         sodipodi:end="4.7437427"
         sodipodi:open="true"
         sodipodi:arc-type="arc"
         transform="matrix(1.2130593,0,0,1.2130593,11.667278,-215.08016)" /><path
         style="fill:none;fill-opacity:1;stroke:#1b589d;stroke-width:1.2654;stroke-dasharray:none;stroke-opacity:1"
         id="path47"
         inkscape:path-effect="#path-effect53"
         sodipodi:type="arc"
         sodipodi:cx="55.627159"
         sodipodi:cy="237.00208"
         sodipodi:rx="49.224682"
         sodipodi:ry="49.224682"
         d="M 12.383397,260.51901 C 3.9569677,245.0242 4.4647613,226.20521 13.714515,211.18736 22.964269,196.16951 39.542113,187.24834 57.171287,187.80162 M 12.27014,260.30955 9.7066496,261.6876 m 0.029892,-6.87765 -2.7132897,1.0529 m 0.8740844,-6.82195 -5.6440658,1.42359 m 4.527084,-7.37481 -2.8880747,0.35993 m 2.5102178,-6.40326 -2.9104155,0.003 m 3.2774011,-6.04663 -2.8887174,-0.35473 m 3.9949925,-5.59848 -5.6466175,-1.41344 m 7.4754425,-4.35892 -2.7151792,-1.04801 m 5.2388813,-4.45613 -2.5659651,-1.37344 m 5.7463571,-3.7792 -2.377924,-1.6781 m 6.166881,-3.04509 -4.307802,-3.9147 m 8.647992,-0.30755 -1.897287,-2.20699 m 6.723037,-1.45044 -1.611964,-2.42324 m 6.850252,-0.61402 -1.302249,-2.60282 m 6.873813,0.23167 -1.945659,-5.48603 m 7.766193,3.81689 -0.62869,-2.8417 m 6.61012,1.89981 -0.275037,-2.89739 m 6.326854,2.69702 0.08278,-2.90924 m -44.726588,75.63094 -5.1135879,2.78089"
         sodipodi:start="2.6435045"
         sodipodi:end="4.7437631"
         sodipodi:open="true"
         sodipodi:arc-type="arc"
         transform="matrix(1.2759585,0,0,1.2759585,7.8752787,-229.7196)" /><g
         id="g58"
         style="display:inline"><path
           style="fill:none;fill-opacity:1;stroke:#008000;stroke-width:4.888;stroke-dasharray:none;stroke-opacity:1"
           id="path48"
           sodipodi:type="arc"
           sodipodi:cx="80.498047"
           sodipodi:cy="73.106743"
           sodipodi:rx="59.519222"
           sodipodi:ry="59.519222"
           sodipodi:start="2.6546383"
           sodipodi:end="3.7370029"
           sodipodi:open="true"
           sodipodi:arc-type="arc"
           d="m 27.897213,100.95796 a 59.519222,59.519222 0 0 1 3.32377,-61.232481" /><path
           style="fill:none;fill-opacity:1;stroke:#ffff00;stroke-width:4.888;stroke-dasharray:none;stroke-opacity:1"
           id="path49"
           sodipodi:type="arc"
           sodipodi:cx="80.498047"
           sodipodi:cy="73.106743"
           sodipodi:rx="59.519222"
           sodipodi:ry="59.519222"
           sodipodi:start="3.7487727"
           sodipodi:end="3.8631455"
           sodipodi:arc-type="arc"
           d="m 31.617278,39.147823 a 59.519222,59.519222 0 0 1 4.194874,-5.356581"
           sodipodi:open="true" /><path
           style="fill:none;fill-opacity:1;stroke:#c60606;stroke-width:4.888;stroke-dasharray:none;stroke-opacity:1"
           id="path50"
           sodipodi:type="arc"
           sodipodi:cx="80.498047"
           sodipodi:cy="73.106743"
           sodipodi:rx="59.519222"
           sodipodi:ry="59.519222"
           sodipodi:start="3.8769061"
           sodipodi:end="4.725585"
           sodipodi:open="true"
           sodipodi:arc-type="arc"
           d="M 36.35737,33.180079 A 59.519222,59.519222 0 0 1 81.283441,13.592703" /></g><text
         xml:space="preserve"
         style="font-style:normal;font-variant:normal;font-weight:normal;font-stretch:normal;font-size:7.76787px;line-height:1.25;font-family:FreeSans;-inkscape-font-specification:FreeSans;letter-spacing:0px;word-spacing:0px;display:inline;fill:#1b589d;fill-opacity:1;stroke:none;stroke-width:0.194197"
         x="22.677999"
         y="109.66499"
         id="text1545"><tspan
           sodipodi:role="line"
           id="tspan1543"
           x="22.677999"
           y="109.66499"
           style="font-style:normal;font-variant:normal;font-weight:normal;font-stretch:normal;font-family:FreeSans;-inkscape-font-specification:FreeSans;fill:#1b589d;fill-opacity:1;stroke-width:0.194197">10</tspan></text><text
         xml:space="preserve"
         style="font-style:normal;font-variant:normal;font-weight:normal;font-stretch:normal;font-size:7.76787px;line-height:1.25;font-family:FreeSans;-inkscape-font-specification:FreeSans;letter-spacing:0px;word-spacing:0px;display:inline;fill:#1b589d;fill-opacity:1;stroke:none;stroke-width:0.194197"
         x="2.0075345"
         y="55.762753"
         id="text1557"><tspan
           sodipodi:role="line"
           id="tspan1555"
           x="2.0075345"
           y="55.762753"
           style="font-style:normal;font-variant:normal;font-weight:normal;font-stretch:normal;font-family:FreeSans;-inkscape-font-specification:FreeSans;fill:#1b589d;fill-opacity:1;stroke-width:0.194197">40</tspan></text><text
         xml:space="preserve"
         style="font-style:normal;font-variant:normal;font-weight:normal;font-stretch:normal;font-size:7.76781px;line-height:1.25;font-family:FreeSans;-inkscape-font-specification:FreeSans;letter-spacing:0px;word-spacing:0px;display:inline;fill:#1b589d;fill-opacity:1;stroke:none;stroke-width:0.194195"
         x="45.545635"
         y="7.9018755"
         id="text1573"><tspan
           sodipodi:role="line"
           id="tspan1571"
           x="45.545635"
           y="7.9018755"
           style="font-style:normal;font-variant:normal;font-weight:normal;font-stretch:normal;font-family:FreeSans;-inkscape-font-specification:FreeSans;fill:#1b589d;fill-opacity:1;stroke-width:0.194195">80</tspan></text><text
         xml:space="preserve"
         style="font-style:normal;font-variant:normal;font-weight:normal;font-stretch:normal;font-size:7.76787px;line-height:1.25;font-family:FreeSans;-inkscape-font-specification:FreeSans;letter-spacing:0px;word-spacing:0px;display:inline;fill:#bbbacc;fill-opacity:1;stroke:none;stroke-width:0.194197"
         x="39.956863"
         y="94.956314"
         id="text58"><tspan
           sodipodi:role="line"
           id="tspan58"
           x="39.956863"
           y="94.956314"
           style="font-style:normal;font-variant:normal;font-weight:normal;font-stretch:normal;font-family:FreeSans;-inkscape-font-specification:FreeSans;fill:#bbbacc;fill-opacity:1;stroke-width:0.194197">50</tspan></text><text
         xml:space="preserve"
         style="font-style:normal;font-variant:normal;font-weight:normal;font-stretch:normal;font-size:7.76787px;line-height:1.25;font-family:FreeSans;-inkscape-font-specification:FreeSans;letter-spacing:0px;word-spacing:0px;display:inline;fill:#bbbacc;fill-opacity:1;stroke:none;stroke-width:0.194197"
         x="32.802483"
         y="67.583031"
         id="text59"><tspan
           sodipodi:role="line"
           id="tspan59"
           x="32.802483"
           y="67.583031"
           style="font-style:normal;font-variant:normal;font-weight:normal;font-stretch:normal;font-family:FreeSans;-inkscape-font-specification:FreeSans;fill:#bbbacc;fill-opacity:1;stroke-width:0.194197">100</tspan></text><text
         xml:space="preserve"
         style="font-style:normal;font-variant:normal;font-weight:normal;font-stretch:normal;font-size:7.76787px;line-height:1.25;font-family:FreeSans;-inkscape-font-specification:FreeSans;letter-spacing:0px;word-spacing:0px;display:inline;fill:#bbbacc;fill-opacity:1;stroke:none;stroke-width:0.194197"
         x="47.733364"
         y="43.320351"
         id="text60"><tspan
           sodipodi:role="line"
           id="tspan60"
           x="47.733364"
           y="43.320351"
           style="font-style:normal;font-variant:normal;font-weight:normal;font-stretch:normal;font-family:FreeSans;-inkscape-font-specification:FreeSans;fill:#bbbacc;fill-opacity:1;stroke-width:0.194197">150</tspan></text><text
         xml:space="preserve"
         style="font-style:normal;font-variant:normal;font-weight:normal;font-stretch:normal;font-size:7.76787px;line-height:1.25;font-family:FreeSans;-inkscape-font-specification:FreeSans;letter-spacing:0px;word-spacing:0px;display:inline;fill:#bbbacc;fill-opacity:1;stroke:none;stroke-width:0.194197"
         x="72.92923"
         y="32.433247"
         id="text61"><tspan
           sodipodi:role="line"
           id="tspan61"
           x="72.92923"
           y="32.433247"
           style="font-style:normal;font-variant:normal;font-weight:normal;font-stretch:normal;font-family:FreeSans;-inkscape-font-specification:FreeSans;fill:#bbbacc;fill-opacity:1;stroke-width:0.194197">200</tspan></text><text
         xml:space="preserve"
         style="font-style:normal;font-weight:normal;font-size:8.49885px;line-height:1.25;font-family:sans-serif;letter-spacing:0px;word-spacing:0px;display:inline;fill:#bbbacc;fill-opacity:1;stroke:none;stroke-width:0.212471"
         x="42.862015"
         y="53.055473"
         id="text63"><tspan
           sodipodi:role="line"
           x="42.862015"
           y="53.055473"
           style="font-style:normal;font-variant:normal;font-weight:bold;font-stretch:normal;font-family:'DejaVu Sans Mono';-inkscape-font-specification:'DejaVu Sans Mono Bold';text-align:center;text-anchor:middle;fill:#bbbacc;fill-opacity:1;stroke-width:0.212471"
           id="tspan63">°F</tspan></text><text
         xml:space="preserve"
         style="font-style:normal;font-weight:normal;font-size:8.49885px;line-height:1.25;font-family:sans-serif;letter-spacing:0px;word-spacing:0px;display:inline;fill:#1b589d;fill-opacity:1;stroke:none;stroke-width:0.212471"
         x="14.439539"
         y="36.461632"
         id="text64"><tspan
           sodipodi:role="line"
           x="14.439539"
           y="36.461632"
           style="font-style:normal;font-variant:normal;font-weight:bold;font-stretch:normal;font-family:'DejaVu Sans Mono';-inkscape-font-specification:'DejaVu Sans Mono Bold';text-align:center;text-anchor:middle;fill:#1b589d;fill-opacity:1;stroke-width:0.212471"
           id="tspan64">°C</tspan></text></g><path
       style="fill:#1b589d;fill-opacity:1;stroke:#bbbacc;stroke-width:0.988;stroke-dasharray:none;stroke-opacity:1"
       d="M 79.021907,70.867184 C 12.462811,52.683703 12.462811,52.683703 12.462811,52.683703"
       id="path64"
       inkscape:transform-center-x="33.139749"
       inkscape:transform-center-y="-9.063863" /><path
       style="fill:#1b589d;fill-opacity:1;stroke:#bbbacc;stroke-width:0.988;stroke-dasharray:none;stroke-opacity:1"
       d="M 79.010785,70.900651 C 18.952926,36.932814 18.952926,36.932814 18.952926,36.932814"
       id="path65"
       inkscape:transform-center-x="29.90025"
       inkscape:transform-center-y="-16.922574" /></g></svg>
