<?xml version="1.0" encoding="UTF-8" standalone="no"?>
<!-- Created with Inkscape (http://www.inkscape.org/) -->

<svg
   width="466.21799"
   height="466.21799"
   viewBox="0 0 123.35351 123.35351"
   version="1.1"
   id="svg1"
   inkscape:version="1.4.3 (0d15f75, 2025-12-25)"
   sodipodi:docname="Coolant_Temperature_Gauge_v1.0_20260125.svg"
   inkscape:export-filename="Coolant_Temperature_Gauge_v1.0_20260125.png"
   inkscape:export-xdpi="49.418941"
   inkscape:export-ydpi="49.418941"
   xmlns:inkscape="http://www.inkscape.org/namespaces/inkscape"
   xmlns:sodipodi="http://sodipodi.sourceforge.net/DTD/sodipodi-0.dtd"
   xmlns="http://www.w3.org/2000/svg"
   xmlns:svg="http://www.w3.org/2000/svg">
  <sodipodi:namedview
     id="namedview1"
     pagecolor="#ffffff"
     bordercolor="#000000"
     borderopacity="0.25"
     inkscape:showpageshadow="2"
     inkscape:pageopacity="0.0"
     inkscape:pagecheckerboard="0"
     inkscape:deskcolor="#d1d1d1"
     inkscape:document-units="mm"
     inkscape:zoom="1.7100512"
     inkscape:cx="176.01812"
     inkscape:cy="210.22762"
     inkscape:window-width="2048"
     inkscape:window-height="1080"
     inkscape:window-x="0"
     inkscape:window-y="0"
     inkscape:window-maximized="1"
     inkscape:current-layer="layer1"
     inkscape:export-bgcolor="#000000ff"
     showguides="true">
    <sodipodi:guide
       position="28.620452,52.486325"
       orientation="0,-1"
       id="guide2"
       inkscape:locked="false" />
    <sodipodi:guide
       position="79.021909,74.530386"
       orientation="1,0"
       id="guide3"
       inkscape:locked="false" />
  </sodipodi:namedview>
  <defs
     id="defs1">
    <inkscape:path-effect
       effect="ruler"
       id="path-effect53"
       is_visible="true"
       lpeversion="1.3.1"
       unit="px"
       mark_distance="20"
       mark_angle="0"
       mark_length="14"
       minor_mark_length="7"
       minor_mark_gap="0"
       major_mark_gap="0"
       major_mark_steps="5"
       shift="0"
       offset="0"
       mark_dir="left"
       border_marks="both" />
    <inkscape:path-effect
       effect="ruler"
       id="path-effect51"
       is_visible="true"
       lpeversion="1.3.1"
       unit="px"
       mark_distance="20"
       mark_angle="0"
       mark_length="14"
       minor_mark_length="7"
       minor_mark_gap="0"
       major_mark_gap="0"
       major_mark_steps="5"
       shift="0"
       offset="0"
       mark_dir="right"
       border_marks="both" />
    <inkscape:path-effect
       effect="ruler"
       id="path-effect46"
       is_visible="true"
       lpeversion="1.3.1"
       unit="px"
       mark_distance="20"
       mark_angle="0"
       mark_length="14"
       minor_mark_length="7"
       minor_mark_gap="0"
       major_mark_gap="0"
       major_mark_steps="5"
       shift="0"
       offset="0"
       mark_dir="left"
       border_marks="both" />
    <inkscape:path-effect
       effect="ruler"
       id="path-effect45"
       is_visible="true"
       lpeversion="1.3.1"
       unit="px"
       mark_distance="20"
       mark_angle="0"
       mark_length="14"
       minor_mark_length="7"
       minor_mark_gap="0"
       major_mark_gap="0"
       major_mark_steps="5"
       shift="0"
       offset="0"
       mark_dir="right"
       border_marks="both" />
    <inkscape:path-effect
       effect="ruler"
       id="path-effect42"
       is_visible="true"
       lpeversion="1.3.1"
       unit="px"
       mark_distance="20"
       mark_angle="0"
       mark_length="14"
       minor_mark_length="7"
       minor_mark_gap="0"
       major_mark_gap="0"
       major_mark_steps="5"
       shift="0"
       offset="0"
       mark_dir="right"
       border_marks="both" />
    <inkscape:path-effect
       effect="ruler"
       id="path-effect40"
       is_visible="true"
       lpeversion="1.3.1"
       unit="px"
       mark_distance="20"
       mark_angle="0"
       mark_length="14"
       minor_mark_length="7"
       minor_mark_gap="0"
       major_mark_gap="0"
       major_mark_steps="5"
       shift="0"
       offset="0"
       mark_dir="left"
       border_marks="both" />
    <inkscape:path-effect
       effect="ruler"
       id="path-effect38"
       is_visible="true"
       lpeversion="1.3.1"
       unit="px"
       mark_distance="20"
       mark_angle="0"
       mark_length="14"
       minor_mark_length="7"
       minor_mark_gap="0"
       major_mark_gap="0"
       major_mark_steps="5"
       shift="0"
       offset="0"
       mark_dir="left"
       border_marks="both" />
    <inkscape:path-effect
       effect="ruler"
       id="path-effect36"
       is_visible="true"
       lpeversion="1.3.1"
       unit="px"
       mark_distance="20"
       mark_angle="0"
       mark_length="14"
       minor_mark_length="7"
       minor_mark_gap="0"
       major_mark_gap="0"
       major_mark_steps="5"
       shift="0"
       offset="0"
       mark_dir="right"
       border_marks="both" />
    <inkscape:path-effect
       effect="ruler"
       id="path-effect34"
       is_visible="true"
       lpeversion="1.3.1"
       unit="px"
       mark_distance="20"
       mark_angle="0"
       mark_length="14"
       minor_mark_length="7"
       minor_mark_gap="0"
       major_mark_gap="0"
       major_mark_steps="5"
       shift="0"
       offset="0"
       mark_dir="right"
       border_marks="both" />
    <inkscape:path-effect
       effect="ruler"
       id="path-effect33"
       is_visible="true"
       lpeversion="1.3.1"
       unit="px"
       mark_distance="20"
       mark_angle="0"
       mark_length="14"
       minor_mark_length="7"
       minor_mark_gap="0"
       major_mark_gap="0"
       major_mark_steps="5"
       shift="0"
       offset="0"
       mark_dir="left"
       border_marks="both" />
  </defs>
  <g
     inkscape:label="Layer 1"
     inkscape:groupmode="layer"
     id="layer1">
    <circle
       style="display:inline;fill:none;stroke:#9f0000;stroke-width:0.281881;stroke-dasharray:none;stroke-opacity:0.7"
       id="path1"
       cx="61.676754"
       cy="61.676754"
       r="61.535816"
       sodipodi:insensitive="true" />
    <path
       style="display:inline;fill:#1b589d;fill-opacity:1;stroke:#1b589d;stroke-width:0.975703;stroke-dasharray:none;stroke-opacity:1"
       d="m 30.947615,98.510213 -4.39414,2.522207 m -0.60092,-12.992323 -4.85128,1.56398 m 2.18991,-12.82903 -5.09486,0.53299 m 5.09486,-12.18053 -5.09486,-0.533 m 7.75623,-10.73205 -4.85128,-1.56398 m 9.84634,-8.90615 -4.39414,-2.52222 m 11.38093,-6.81102 -3.7547,-3.37641 m 12.391275,-4.47803 -2.964272,-4.09525 m 12.908697,-1.93841 -2.05415,-4.64746 m 12.964479,0.7765 -1.055629,-5.00173 m 12.589916,3.63542 -2e-6,-5.1267698"
       id="path924"
       inkscape:connector-curvature="0"
       sodipodi:nodetypes="cccccccccccccccccccccc" />
    <path
       style="display:inline;fill:#1b589d;fill-opacity:1;stroke:#1b589d;stroke-width:0.975703;stroke-dasharray:none;stroke-opacity:1"
       d="m 277.83549,196.45926 h 5.12676 m -5.47546,5.82377 5.09485,0.53299 m -6.11246,5.17753 5.00172,1.05562 m -6.64549,4.49891 4.85128,1.56398 m -7.07846,3.79182 4.64744,2.05415 m -7.41532,3.06017 4.39414,2.52222 m -100.41894,-2.52221 -4.39414,2.52221 m 1.62627,-7.63653 -4.64745,2.05415 m 2.42026,-7.40995 -4.85128,1.56398 m 3.20751,-7.11851 -5.00172,1.05562 m 3.98412,-6.76614 -5.09486,0.53299 m 4.74616,-6.35676 -5.12677,0 m 5.47547,-5.82377 -5.09486,-0.533 m 6.11246,-5.17752 -5.00172,-1.05563 m 6.64549,-4.4989 -4.85128,-1.56398 m 7.07847,-3.79181 -4.64745,-2.05416 m 7.41532,-3.06018 -4.39414,-2.52222 m 7.65994,-2.30788 -4.09525,-2.96427 m 7.81624,-1.53887 -3.7547,-3.37641 m 7.88813,-0.75703 -3.3764,-3.7547 m 7.87954,0.0337 -2.96427,-4.09525 m 7.79438,0.82945 -2.52222,-4.39414 m 7.63654,1.62628 -2.05415,-4.64746 m 7.40995,2.42027 -1.56399,-4.85129 m 7.11852,3.20752 -1.05563,-5.00173 m 6.76615,3.98412 -0.533,-5.09486 m 6.35677,4.74616 -1e-5,-5.12677 m 5.82377,5.47547 0.533,-5.09486 m 5.17752,6.11247 1.05562,-5.00173 m 4.49891,6.6455 1.56398,-4.85129 m 3.79182,7.07848 2.05414,-4.64746 m 3.06018,7.41532 2.52221,-4.39413 m 2.30789,7.65993 2.96427,-4.09525 m 1.53888,7.81624 3.37638,-3.7547 m 0.75704,7.88814 3.75469,-3.37641 m -0.0337,7.87955 4.09525,-2.96427 m -0.82945,7.79437 4.39414,-2.52221 m -1.62626,7.63653 4.64744,-2.05415 m -2.42026,7.40995 4.85128,-1.56398 m -3.20751,7.11851 5.00172,-1.05563 m -3.98411,6.76615 5.09485,-0.53299 m -4.74615,6.35676 h 5.12676"
       id="path2"
       inkscape:connector-curvature="0"
       sodipodi:nodetypes="cccccccccccccccccccccccccccccccccccccccccccccccccccccccccccccccccccccccccccccccccccc" />
    <path
       d="m 94.682584,89.988325 c -0.907542,-0.498856 -1.184527,-0.566297 -1.504643,-0.366402 -0.133168,0.08318 -0.268491,0.0898 -0.460826,0.02243 -0.220653,-0.07711 -0.277882,-0.161725 -0.301766,-0.44616 -0.03556,-0.423289 0.130763,-0.616712 0.66876,-0.777923 0.371942,-0.11142 0.428885,-0.09601 1.430741,0.387141 0.573857,0.27675 1.101468,0.502938 1.172469,0.502644 0.071,-3.31e-4 0.564028,-0.241375 1.095615,-0.535702 0.53159,-0.294291 1.034627,-0.535114 1.117862,-0.535114 0.08323,0 0.621117,0.249465 1.195294,0.554309 l 1.04395,0.554309 1.03801,-0.554309 c 0.5709,-0.304844 1.10279,-0.554309 1.18197,-0.554309 0.0792,0 0.59894,0.240823 1.15501,0.535114 0.55608,0.294327 1.06537,0.535113 1.13175,0.535113 0.0664,0 0.52423,-0.240786 1.01742,-0.535113 0.49319,-0.294291 0.96586,-0.535114 1.05037,-0.535114 0.33661,0 1.06563,0.406998 1.15633,0.645542 0.16769,0.441086 -0.29163,0.92766 -0.67965,0.720005 -0.33501,-0.179302 -0.6005,-0.109435 -1.46581,0.385744 -0.46755,0.267557 -0.9442,0.486463 -1.05922,0.486463 -0.11503,0 -0.64537,-0.218906 -1.17854,-0.486463 -0.53317,-0.267557 -1.0414,-0.486464 -1.12939,-0.486464 -0.088,0 -0.56487,0.218907 -1.05972,0.486464 -0.49485,0.267557 -0.99362,0.486463 -1.10837,0.486463 -0.11475,0 -0.644864,-0.218906 -1.178036,-0.486463 -0.533172,-0.267557 -1.0117,-0.486464 -1.063399,-0.486464 -0.05169,0 -0.496881,0.218907 -0.989305,0.486464 -0.492424,0.267557 -1.009144,0.484809 -1.148273,0.482749 -0.139129,-0.0037 -0.646998,-0.220341 -1.128603,-0.485066 z m 4.767401,-2.178735 c -1.099498,-0.490766 -1.35809,-1.922135 -0.514168,-2.846008 0.185962,-0.203609 0.192279,-0.348787 0.178795,-4.108224 -0.0092,-2.563853 0.02251,-4.032694 0.09267,-4.293227 0.213608,-0.793293 1.123218,-1.00422 1.677788,-0.389053 0.22901,0.254025 0.26755,0.380669 0.26755,0.87901 v 0.582256 h 1.11888 1.11889 v 0.389163 0.389164 l -0.97295,0.01214 c -0.53511,0.0066 -1.02766,0.01765 -1.09455,0.02427 -0.082,0.0081 -0.13092,0.241742 -0.15021,0.717541 l -0.0286,0.705407 h 1.12315 1.12314 v 0.389164 0.389163 h -1.12314 -1.12315 l 0.0286,0.705407 0.0286,0.70537 1.09456,0.02758 1.09456,0.02758 v 0.385964 0.386001 h -1.11888 -1.11888 v 0.935787 c 0,0.898058 0.0116,0.948988 0.28779,1.26354 0.33948,0.386626 0.52786,1.001646 0.43896,1.433025 -0.22298,1.081994 -1.443,1.729337 -2.429396,1.289023 z m -4.99959,-0.570782 -1.010538,-0.499518 -0.563605,0.312235 c -0.309978,0.171691 -0.651134,0.312199 -0.758124,0.312199 -0.300704,0 -0.514742,-0.275904 -0.481234,-0.620279 0.02666,-0.273845 0.111428,-0.346618 0.854306,-0.733133 0.937397,-0.487751 0.737921,-0.504004 2.362151,0.19243 l 0.754532,0.323525 0.510288,-0.225489 c 0.706183,-0.312089 0.982194,-0.348493 1.175658,-0.155033 0.211901,0.21192 0.206378,0.660838 -0.01055,0.857167 -0.199436,0.180479 -1.507423,0.753469 -1.695396,0.742731 -0.06982,-0.004 -0.581694,-0.232071 -1.137492,-0.506835 z m 9.329165,0.176655 c -0.88014,-0.392951 -1.10017,-0.670069 -0.84329,-1.062101 0.20959,-0.319884 0.48599,-0.323708 0.98923,-0.0136 0.21405,0.131829 0.48717,0.241043 0.60692,0.242735 0.11976,0.0037 0.67362,-0.223687 1.2308,-0.500805 l 1.01305,-0.50382 0.84343,0.382213 c 0.89004,0.403321 1.07863,0.591339 0.98147,0.97848 -0.10406,0.414573 -0.45634,0.456935 -1.13424,0.136316 l -0.59761,-0.282597 -0.47447,0.186988 c -0.26096,0.10289 -0.736,0.319038 -1.05564,0.480396 -0.31964,0.161358 -0.63713,0.29076 -0.70555,0.287561 -0.0684,-0.0037 -0.45276,-0.152422 -0.8541,-0.331614 z"
       style="display:inline;fill:#bbbacc;fill-opacity:1;stroke-width:0.367725"
       id="path1-2" />
    <path
       style="fill:none;fill-opacity:1;stroke:#1b589d;stroke-width:0.964776;stroke-opacity:1"
       id="path3"
       sodipodi:type="arc"
       sodipodi:cx="79.304916"
       sodipodi:cy="71.008476"
       sodipodi:rx="55.691319"
       sodipodi:ry="55.691319"
       sodipodi:start="2.6169765"
       sodipodi:end="4.7126097"
       sodipodi:arc-type="arc"
       d="M 31.103174,98.903189 A 55.691319,55.691319 0 0 1 31.063732,43.182031 55.691319,55.691319 0 0 1 79.317209,15.317159"
       sodipodi:open="true" />
    <text
       xml:space="preserve"
       style="font-weight:bold;font-size:3.175px;font-family:FreeSerif;-inkscape-font-specification:'FreeSerif Bold';writing-mode:lr-tb;direction:ltr;fill:none;fill-opacity:1;stroke:#1b589d;stroke-width:0.920999;stroke-opacity:1"
       x="36.397076"
       y="96.303543"
       id="text3"><tspan
         sodipodi:role="line"
         id="tspan3"
         style="stroke-width:0.921"></tspan></text>
    <text
       xml:space="preserve"
       style="font-style:normal;font-variant:normal;font-weight:normal;font-stretch:normal;font-size:3.175px;font-family:sans-serif;-inkscape-font-specification:sans-serif;writing-mode:lr-tb;direction:ltr;fill:#ff0000;fill-opacity:1;stroke:#1b589d;stroke-width:0;stroke-dasharray:none;stroke-opacity:1"
       x="34.980846"
       y="96.586784"
       id="text5"><tspan
         sodipodi:role="line"
         id="tspan5"
         style="stroke-width:0"
         x="34.980846"
         y="96.586784">50</tspan></text>
    <text
       xml:space="preserve"
       style="font-style:normal;font-variant:normal;font-weight:normal;font-stretch:normal;font-size:3.175px;font-family:'Ubuntu Sans';-inkscape-font-specification:'Ubuntu Sans';writing-mode:lr-tb;direction:ltr;fill:#008000;fill-opacity:1;stroke:#1b589d;stroke-width:0;stroke-dasharray:none;stroke-opacity:1"
       x="33.422993"
       y="97.719772"
       id="text6"><tspan
         sodipodi:role="line"
         id="tspan6"
         style="stroke-width:0"
         x="33.422993"
         y="97.719772">50</tspan></text>
    <text
       xml:space="preserve"
       style="font-style:normal;font-variant:normal;font-weight:normal;font-stretch:normal;font-size:3.175px;font-family:'Ubuntu Sans';-inkscape-font-specification:'Ubuntu Sans';writing-mode:lr-tb;direction:ltr;fill:#008000;fill-opacity:1;stroke:#1b589d;stroke-width:0;stroke-dasharray:none;stroke-opacity:1"
       x="75.484985"
       y="21.243427"
       id="text7"><tspan
         sodipodi:role="line"
         id="tspan7"
         style="stroke-width:0"
         x="75.484985"
         y="21.243427">170</tspan></text>
    <text
       xml:space="preserve"
       style="font-style:normal;font-variant:normal;font-weight:normal;font-stretch:normal;font-size:3.175px;font-family:'Ubuntu Sans';-inkscape-font-specification:'Ubuntu Sans';writing-mode:lr-tb;direction:ltr;fill:#008000;fill-opacity:1;stroke:#1b589d;stroke-width:0;stroke-dasharray:none;stroke-opacity:1"
       x="32.148392"
       y="46.027431"
       id="text8"><tspan
         sodipodi:role="line"
         id="tspan8"
         style="stroke-width:0"
         x="32.148392"
         y="46.027431">110</tspan></text>
    <text
       xml:space="preserve"
       style="font-style:normal;font-variant:normal;font-weight:normal;font-stretch:normal;font-size:3.175px;font-family:'Ubuntu Sans';-inkscape-font-specification:'Ubuntu Sans';writing-mode:lr-tb;direction:ltr;fill:#008000;fill-opacity:1;stroke:#1b589d;stroke-width:0;stroke-dasharray:none;stroke-opacity:1"
       x="28.749439"
       y="87.522926"
       id="text9"><tspan
         sodipodi:role="line"
         style="stroke-width:0"
         x="28.749439"
         y="87.522926"
         id="tspan10">62</tspan></text>
    <text
       xml:space="preserve"
       style="font-style:normal;font-variant:normal;font-weight:normal;font-stretch:normal;font-size:3.175px;font-family:'Ubuntu Sans';-inkscape-font-specification:'Ubuntu Sans';writing-mode:lr-tb;direction:ltr;fill:#008000;fill-opacity:1;stroke:#1b589d;stroke-width:0;stroke-dasharray:none;stroke-opacity:1"
       x="27.33321"
       y="76.476341"
       id="text11"><tspan
         sodipodi:role="line"
         id="tspan11"
         style="stroke-width:0"
         x="27.33321"
         y="76.476341">74</tspan></text>
    <text
       xml:space="preserve"
       style="font-style:normal;font-variant:normal;font-weight:normal;font-stretch:normal;font-size:3.175px;font-family:'Ubuntu Sans';-inkscape-font-specification:'Ubuntu Sans';writing-mode:lr-tb;direction:ltr;fill:#008000;fill-opacity:1;stroke:#1b589d;stroke-width:0;stroke-dasharray:none;stroke-opacity:1"
       x="27.049969"
       y="66.42112"
       id="text12"><tspan
         sodipodi:role="line"
         id="tspan12"
         style="stroke-width:0"
         x="27.049969"
         y="66.42112">86</tspan></text>
    <text
       xml:space="preserve"
       style="font-style:normal;font-variant:normal;font-weight:normal;font-stretch:normal;font-size:3.175px;font-family:'Ubuntu Sans';-inkscape-font-specification:'Ubuntu Sans';writing-mode:lr-tb;direction:ltr;fill:#008000;fill-opacity:1;stroke:#1b589d;stroke-width:0;stroke-dasharray:none;stroke-opacity:1"
       x="28.749439"
       y="55.941032"
       id="text13"><tspan
         sodipodi:role="line"
         id="tspan13"
         style="stroke-width:0"
         x="28.749439"
         y="55.941032">98</tspan></text>
    <text
       xml:space="preserve"
       style="font-style:normal;font-variant:normal;font-weight:normal;font-stretch:normal;font-size:3.175px;font-family:'Ubuntu Sans';-inkscape-font-specification:'Ubuntu Sans';writing-mode:lr-tb;direction:ltr;fill:#008000;fill-opacity:1;stroke:#1b589d;stroke-width:0;stroke-dasharray:none;stroke-opacity:1"
       x="38.946289"
       y="37.105186"
       id="text14"><tspan
         sodipodi:role="line"
         id="tspan14"
         style="stroke-width:0"
         x="38.946289"
         y="37.105186">122</tspan></text>
    <text
       xml:space="preserve"
       style="font-style:normal;font-variant:normal;font-weight:normal;font-stretch:normal;font-size:3.175px;font-family:'Ubuntu Sans';-inkscape-font-specification:'Ubuntu Sans';writing-mode:lr-tb;direction:ltr;fill:#008000;fill-opacity:1;stroke:#1b589d;stroke-width:0;stroke-dasharray:none;stroke-opacity:1"
       x="47.726902"
       y="29.740799"
       id="text15"><tspan
         sodipodi:role="line"
         id="tspan15"
         style="stroke-width:0"
         x="47.726902"
         y="29.740799">134</tspan></text>
    <text
       xml:space="preserve"
       style="font-style:normal;font-variant:normal;font-weight:normal;font-stretch:normal;font-size:3.175px;font-family:'Ubuntu Sans';-inkscape-font-specification:'Ubuntu Sans';writing-mode:lr-tb;direction:ltr;fill:#008000;fill-opacity:1;stroke:#1b589d;stroke-width:0;stroke-dasharray:none;stroke-opacity:1"
       x="55.941029"
       y="24.642378"
       id="text16"><tspan
         sodipodi:role="line"
         id="tspan16"
         style="stroke-width:0"
         x="55.941029"
         y="24.642378">146</tspan></text>
    <text
       xml:space="preserve"
       style="font-style:normal;font-variant:normal;font-weight:normal;font-stretch:normal;font-size:3.175px;font-family:'Ubuntu Sans';-inkscape-font-specification:'Ubuntu Sans';writing-mode:lr-tb;direction:ltr;fill:#008000;fill-opacity:1;stroke:#1b589d;stroke-width:0;stroke-dasharray:none;stroke-opacity:1"
       x="66.704369"
       y="21.243427"
       id="text17"><tspan
         sodipodi:role="line"
         id="tspan17"
         style="stroke-width:0"
         x="66.704369"
         y="21.243427">158</tspan></text>
    <g
       id="g53"
       style="display:inline">
      <path
         style="fill:none;fill-opacity:1;stroke:#aa3a1d;stroke-width:5.658;stroke-dasharray:none;stroke-opacity:1"
         id="path18"
         sodipodi:type="arc"
         sodipodi:cx="79.008102"
         sodipodi:cy="66.364151"
         sodipodi:rx="41.897064"
         sodipodi:ry="41.897064"
         sodipodi:start="4.1891332"
         sodipodi:end="4.7118633"
         sodipodi:arc-type="arc"
         d="M 58.072017,30.073046 A 41.897064,41.897064 0 0 1 78.986078,24.467093"
         sodipodi:open="true"
         inkscape:transform-center-x="10.340497"
         inkscape:transform-center-y="-43.288953" />
      <path
         style="fill:none;fill-opacity:1;stroke:#dcdf46;stroke-width:4.244;stroke-dasharray:none;stroke-opacity:1"
         id="circle18"
         sodipodi:type="arc"
         sodipodi:cx="80.296509"
         sodipodi:cy="67.893112"
         sodipodi:rx="44.544983"
         sodipodi:ry="44.544983"
         sodipodi:start="4.0064662"
         sodipodi:end="4.1787061"
         sodipodi:open="true"
         sodipodi:arc-type="arc"
         d="m 51.398559,33.993791 a 44.544983,44.544983 0 0 1 6.237582,-4.45121"
         inkscape:transform-center-x="24.493807"
         inkscape:transform-center-y="-38.698642" />
      <path
         style="fill:none;fill-opacity:1;stroke:#1b9d29;stroke-width:2.223;stroke-dasharray:none;stroke-opacity:1"
         id="circle19"
         sodipodi:type="arc"
         sodipodi:cx="79.021904"
         sodipodi:cy="70.867188"
         sodipodi:rx="46.979523"
         sodipodi:ry="46.979523"
         sodipodi:start="2.6111768"
         sodipodi:end="4.0670245"
         sodipodi:open="true"
         sodipodi:arc-type="arc"
         d="M 38.49752,94.633757 A 46.979523,46.979523 0 0 1 50.764207,33.336159"
         inkscape:transform-center-x="38.016788"
         inkscape:transform-center-y="-6.7766917" />
    </g>
    <text
       xml:space="preserve"
       style="font-style:normal;font-variant:normal;font-weight:normal;font-stretch:normal;font-size:3.175px;font-family:'Ubuntu Sans';-inkscape-font-specification:'Ubuntu Sans';writing-mode:lr-tb;direction:ltr;fill:#ffb380;fill-opacity:1;stroke:#aa3a1d;stroke-width:0;stroke-dasharray:none;stroke-opacity:1"
       x="19.685577"
       y="102.53495"
       id="text19"><tspan
         sodipodi:role="line"
         id="tspan19"
         style="stroke-width:0;stroke-dasharray:none"
         x="19.685577"
         y="102.53495">10</tspan></text>
    <text
       xml:space="preserve"
       style="font-style:normal;font-variant:normal;font-weight:normal;font-stretch:normal;font-size:3.175px;font-family:'Ubuntu Sans';-inkscape-font-specification:'Ubuntu Sans';writing-mode:lr-tb;direction:ltr;fill:#ffb380;fill-opacity:1;stroke:#aa3a1d;stroke-width:0;stroke-dasharray:none;stroke-opacity:1"
       x="76.193092"
       y="6.6562743"
       id="text20"><tspan
         sodipodi:role="line"
         id="tspan20"
         style="stroke-width:0"
         x="76.193092"
         y="6.6562743">77</tspan></text>
    <text
       xml:space="preserve"
       style="font-style:normal;font-variant:normal;font-weight:normal;font-stretch:normal;font-size:3.175px;font-family:'Ubuntu Sans';-inkscape-font-specification:'Ubuntu Sans';writing-mode:lr-tb;direction:ltr;fill:#ffb380;fill-opacity:1;stroke:#aa3a1d;stroke-width:0;stroke-dasharray:none;stroke-opacity:1"
       x="25.350491"
       y="37.530056"
       id="text21"><tspan
         sodipodi:role="line"
         id="tspan21"
         style="stroke-width:0"
         x="25.350491"
         y="37.530056">43</tspan></text>
    <text
       xml:space="preserve"
       style="font-style:normal;font-variant:normal;font-weight:normal;font-stretch:normal;font-size:3.175px;font-family:'Ubuntu Sans';-inkscape-font-specification:'Ubuntu Sans';writing-mode:lr-tb;direction:ltr;fill:#ffb380;fill-opacity:1;stroke:#aa3a1d;stroke-width:0;stroke-dasharray:none;stroke-opacity:1"
       x="12.604434"
       y="90.072136"
       id="text22"><tspan
         sodipodi:role="line"
         id="tspan22"
         style="stroke-width:0"
         x="12.604434"
         y="90.072136">17</tspan></text>
    <text
       xml:space="preserve"
       style="font-style:normal;font-variant:normal;font-weight:normal;font-stretch:normal;font-size:3.175px;font-family:'Ubuntu Sans';-inkscape-font-specification:'Ubuntu Sans';writing-mode:lr-tb;direction:ltr;fill:#ffb380;fill-opacity:1;stroke:#aa3a1d;stroke-width:0;stroke-dasharray:none;stroke-opacity:1"
       x="10.055223"
       y="76.617966"
       id="text23"><tspan
         sodipodi:role="line"
         id="tspan23"
         style="stroke-width:0"
         x="10.055223"
         y="76.617966">23</tspan></text>
    <text
       xml:space="preserve"
       style="font-style:normal;font-variant:normal;font-weight:normal;font-stretch:normal;font-size:3.175px;font-family:'Ubuntu Sans';-inkscape-font-specification:'Ubuntu Sans';writing-mode:lr-tb;direction:ltr;fill:#ffb380;fill-opacity:1;stroke:#aa3a1d;stroke-width:0;stroke-dasharray:none;stroke-opacity:1"
       x="9.7719765"
       y="62.880547"
       id="text24"><tspan
         sodipodi:role="line"
         id="tspan24"
         style="stroke-width:0"
         x="9.7719765"
         y="62.880547">30</tspan></text>
    <text
       xml:space="preserve"
       style="font-style:normal;font-variant:normal;font-weight:normal;font-stretch:normal;font-size:3.175px;font-family:'Ubuntu Sans';-inkscape-font-specification:'Ubuntu Sans';writing-mode:lr-tb;direction:ltr;fill:#ffb380;fill-opacity:1;stroke:#aa3a1d;stroke-width:0;stroke-dasharray:none;stroke-opacity:1"
       x="14.445531"
       y="51.267475"
       id="text25"><tspan
         sodipodi:role="line"
         id="tspan25"
         style="stroke-width:0"
         x="14.445531"
         y="51.267475">37</tspan></text>
    <text
       xml:space="preserve"
       style="font-style:normal;font-variant:normal;font-weight:normal;font-stretch:normal;font-size:3.175px;font-family:'Ubuntu Sans';-inkscape-font-specification:'Ubuntu Sans';writing-mode:lr-tb;direction:ltr;fill:#ffb380;fill-opacity:1;stroke:#aa3a1d;stroke-width:0;stroke-dasharray:none;stroke-opacity:1"
       x="29.599178"
       y="26.483473"
       id="text26"><tspan
         sodipodi:role="line"
         id="tspan26"
         style="stroke-width:0"
         x="29.599178"
         y="26.483473">50</tspan></text>
    <text
       xml:space="preserve"
       style="font-style:normal;font-variant:normal;font-weight:normal;font-stretch:normal;font-size:3.175px;font-family:'Ubuntu Sans';-inkscape-font-specification:'Ubuntu Sans';writing-mode:lr-tb;direction:ltr;fill:#ffb380;fill-opacity:1;stroke:#aa3a1d;stroke-width:0;stroke-dasharray:none;stroke-opacity:1"
       x="40.929005"
       y="19.260708"
       id="text27"><tspan
         sodipodi:role="line"
         id="tspan27"
         style="stroke-width:0"
         x="40.929005"
         y="19.260708">57</tspan></text>
    <text
       xml:space="preserve"
       style="font-style:normal;font-variant:normal;font-weight:normal;font-stretch:normal;font-size:3.175px;font-family:'Ubuntu Sans';-inkscape-font-specification:'Ubuntu Sans';writing-mode:lr-tb;direction:ltr;fill:#ffb380;fill-opacity:1;stroke:#aa3a1d;stroke-width:0;stroke-dasharray:none;stroke-opacity:1"
       x="51.125851"
       y="12.037943"
       id="text28"><tspan
         sodipodi:role="line"
         id="tspan28"
         style="stroke-width:0"
         x="51.125851"
         y="12.037943">63</tspan></text>
    <text
       xml:space="preserve"
       style="font-style:normal;font-variant:normal;font-weight:normal;font-stretch:normal;font-size:3.175px;font-family:'Ubuntu Sans';-inkscape-font-specification:'Ubuntu Sans';writing-mode:lr-tb;direction:ltr;fill:#ffb380;fill-opacity:1;stroke:#aa3a1d;stroke-width:0;stroke-dasharray:none;stroke-opacity:1"
       x="64.013527"
       y="6.9395199"
       id="text29"><tspan
         sodipodi:role="line"
         id="tspan29"
         style="stroke-width:0"
         x="64.013527"
         y="6.9395199">70</tspan></text>
    <text
       xml:space="preserve"
       style="font-style:normal;font-variant:normal;font-weight:normal;font-stretch:normal;font-size:3.175px;font-family:'Ubuntu Sans';-inkscape-font-specification:'Ubuntu Sans';writing-mode:lr-tb;direction:ltr;fill:#ffb380;fill-opacity:1;stroke:#aa3a1d;stroke-width:0;stroke-dasharray:none;stroke-opacity:1"
       x="86.389938"
       y="9.7719774"
       id="text30"><tspan
         sodipodi:role="line"
         id="tspan30"
         style="stroke-width:0"
         x="86.389938"
         y="9.7719774">80</tspan></text>
    <circle
       style="display:inline;fill:#1b589d;fill-opacity:1;stroke:#93a2b4;stroke-width:1.065;stroke-opacity:1"
       id="path1487"
       cx="79.021912"
       cy="70.867188"
       r="8.2439289" />
    <text
       xml:space="preserve"
       style="font-style:normal;font-weight:normal;font-size:7.76787px;line-height:1.25;font-family:sans-serif;letter-spacing:0px;word-spacing:0px;display:inline;fill:#bbbacc;fill-opacity:1;stroke:none;stroke-width:0.194197"
       x="71.219673"
       y="99.085579"
       id="text313"><tspan
         sodipodi:role="line"
         id="tspan313"
         x="71.219673"
         y="99.085579"
         style="font-style:normal;font-variant:normal;font-weight:bold;font-stretch:normal;font-family:'DejaVu Sans Mono';-inkscape-font-specification:'DejaVu Sans Mono Bold';text-align:center;text-anchor:middle;fill:#bbbacc;fill-opacity:1;stroke-width:0.194197">ENGINE</tspan><tspan
         sodipodi:role="line"
         x="71.219673"
         y="109.10795"
         style="font-style:normal;font-variant:normal;font-weight:bold;font-stretch:normal;font-family:'DejaVu Sans Mono';-inkscape-font-specification:'DejaVu Sans Mono Bold';text-align:center;text-anchor:middle;fill:#bbbacc;fill-opacity:1;stroke-width:0.194197"
         id="tspan316">TEMPERATURE</tspan></text>
    <path
       style="display:inline;fill:none;fill-opacity:1;stroke:#aa3a1d;stroke-width:0.7;stroke-dasharray:none;stroke-opacity:1"
       id="path40"
       inkscape:path-effect="#path-effect42"
       sodipodi:type="arc"
       sodipodi:cx="55.822254"
       sodipodi:cy="196.13849"
       sodipodi:rx="41.212254"
       sodipodi:ry="41.212254"
       d="m 19.806093,216.17061 c -7.087121,-12.74208 -6.914032,-28.28053 0.455174,-40.86157 7.369206,-12.58105 20.837586,-20.33193 35.417891,-20.38256 m -35.873065,61.24413 3.237141,-1.80049 m -5.505725,-2.9762 1.720521,-0.68558 m -3.358785,-4.34228 1.794144,-0.45963 m -2.775116,-4.73662 1.83823,-0.22611 m -2.145758,-5.05297 1.85205,0.0111 m -1.481071,-5.28613 3.670756,0.49638 m -2.627379,-5.68046 1.788488,0.48117 m -0.08989,-5.48897 1.712154,0.70622 m 0.613699,-5.45529 1.607629,0.91964 m 1.307185,-5.3318 1.476637,1.11792 m 1.97915,-5.12052 2.642668,2.5956 m 1.297195,-6.12275 1.144276,1.45631 m 3.214798,-4.44993 0.948378,1.59084 m 3.758138,-4.00165 0.736867,1.69919 m 4.239604,-3.48749 0.513224,1.77955 m 4.651268,-2.91591 0.562263,3.66125 m 4.705223,-4.12695 0.04441,1.85156 m 0.800694,-1.86316 0.01286,3.70415"
       sodipodi:start="2.6340032"
       sodipodi:end="4.7089168"
       sodipodi:arc-type="arc"
       sodipodi:open="true"
       transform="matrix(1.3733915,0,0,1.3733915,-22.121044,-32.947611)"
       sodipodi:insensitive="true" />
    <path
       style="fill:none;fill-opacity:1;stroke:#bbbacc;stroke-width:0.7;stroke-dasharray:none;stroke-opacity:1"
       id="path42"
       inkscape:path-effect="#path-effect45"
       sodipodi:type="arc"
       sodipodi:cx="55.627159"
       sodipodi:cy="237.00208"
       sodipodi:rx="44.72258"
       sodipodi:ry="44.72258"
       d="M 16.379859,258.44406 C 8.8091021,244.58658 9.1071754,227.76377 17.16409,214.18319 25.221005,200.60261 39.842441,192.27739 55.633135,192.2795 m -39.253276,66.16456 3.250674,-1.77594 m -5.507405,-3.00698 1.718795,-0.68989 m -3.395142,-4.32598 1.788217,-0.48217 m -2.860739,-4.69651 1.832632,-0.26771 m -2.286332,-5.00137 1.851421,-0.0495 m -1.679954,-5.23629 3.688642,0.33878 m -2.894405,-5.56738 1.81143,0.38592 m -0.40553,-5.48421 1.753207,0.59706 m 0.244696,-5.49374 1.670469,0.79984 m 0.8915,-5.42644 1.56437,0.99144 m 1.525837,-5.28326 2.872793,2.33836 m 0.70244,-6.23538 1.288336,1.33057 m 2.721928,-4.7783 1.122261,1.47334 m 3.266955,-4.42357 0.940492,1.59552 m 3.766299,-4.007 0.745571,1.69539 m 4.212976,-3.53438 1.080447,3.54309 m 4.060516,-4.78389 0.327322,1.82293 m 4.924168,-2.44818 0.109843,1.84882 m 2.548546,-1.92754 -4.95e-4,3.70416"
       sodipodi:start="2.6415714"
       sodipodi:end="4.7125226"
       sodipodi:open="true"
       sodipodi:arc-type="arc"
       transform="matrix(1.1039147,0,0,1.1039147,-3.0502782,-23.209291)" />
    <path
       style="fill:none;fill-opacity:1;stroke:#1b589d;stroke-width:0.770467;stroke-dasharray:none;stroke-opacity:1"
       id="circle42"
       inkscape:path-effect="#path-effect46"
       sodipodi:type="arc"
       sodipodi:cx="55.627159"
       sodipodi:cy="237.00208"
       sodipodi:rx="49.224682"
       sodipodi:ry="49.224682"
       d="M 12.383397,260.51901 C 4.1092541,245.30423 4.4395467,226.86064 13.25315,211.95187 22.066753,197.0431 38.066755,187.86296 55.38564,187.77799 m -43.002243,72.74102 -3.2541014,1.76966 m 0.9805194,-6.54518 -1.7125947,0.70515 m -0.035482,-5.69704 -1.7783659,0.51732 m 0.5759778,-5.66796 -1.8236059,0.32354 m 1.1807876,-5.57345 -1.847792,0.12601 m 1.7719649,-5.41459 -3.7012901,-0.14595 m 4.1933296,-5.12023 -1.832132,-0.27112 m 2.8863575,-4.91187 -1.7924667,-0.46613 m 3.3967069,-4.57383 -1.7321069,-0.65576 m 3.8678405,-4.18298 -1.65175,-0.83782 m 4.29432,-3.74384 -3.104646,-2.0204 m 6.223543,-2.25128 -1.434974,-1.17092 m 4.99419,-2.74147 -1.301059,-1.31812 m 5.259501,-2.1898 -1.152121,-1.45011 m 5.46409,-1.61284 -0.989883,-1.56536 m 5.605596,-1.01727 -1.632433,-3.32506 m 6.4986,1.25257 -0.633127,-1.74051 m 5.693567,0.20209 -0.442727,-1.79839 m 5.639018,0.81181 -0.247216,-1.83551 m 5.519364,1.41215 -0.04885,-1.85144 m 1.105694,1.83491 -0.01817,-3.70413"
       sodipodi:start="2.6435045"
       sodipodi:end="4.7074825"
       sodipodi:open="true"
       sodipodi:arc-type="arc"
       transform="matrix(1.1039147,0,0,1.1039147,-3.0502782,-23.209291)" />
    <path
       style="fill:none;fill-opacity:1;stroke:#008000;stroke-width:3.12125;stroke-dasharray:none;stroke-opacity:1"
       id="circle43"
       sodipodi:type="arc"
       sodipodi:cx="58.357357"
       sodipodi:cy="238.42078"
       sodipodi:rx="51.778194"
       sodipodi:ry="51.778194"
       sodipodi:start="2.6300408"
       sodipodi:end="4.1231984"
       sodipodi:open="true"
       sodipodi:arc-type="arc"
       d="M 13.207503,263.76781 A 51.778194,51.778194 0 0 1 29.584822,195.37287" />
    <path
       style="fill:none;fill-opacity:1;stroke:#ffff00;stroke-width:3.12125;stroke-dasharray:none;stroke-opacity:1"
       id="circle44"
       sodipodi:type="arc"
       sodipodi:cx="58.357357"
       sodipodi:cy="238.42078"
       sodipodi:rx="51.778194"
       sodipodi:ry="51.778194"
       sodipodi:start="4.1893649"
       sodipodi:end="4.3723295"
       sodipodi:arc-type="arc"
       d="m 32.494034,193.56467 a 51.778194,51.778194 0 0 1 8.59306,-3.957"
       sodipodi:open="true" />
    <path
       style="fill:none;fill-opacity:1;stroke:#c60606;stroke-width:3.12125;stroke-dasharray:none;stroke-opacity:1"
       id="circle45"
       sodipodi:type="arc"
       sodipodi:cx="58.357357"
       sodipodi:cy="238.42078"
       sodipodi:rx="51.778194"
       sodipodi:ry="51.778194"
       sodipodi:start="4.4136912"
       sodipodi:end="4.7113091"
       sodipodi:open="true"
       sodipodi:arc-type="arc"
       d="m 43.120282,188.93529 a 51.778194,51.778194 0 0 1 15.181161,-2.29268" />
    <g
       id="g54"
       sodipodi:insensitive="true"
       style="display:none">
      <path
         style="fill:none;fill-opacity:1;stroke:#bbbacc;stroke-width:0.7;stroke-dasharray:none;stroke-opacity:1"
         id="path46"
         inkscape:path-effect="#path-effect51"
         sodipodi:type="arc"
         sodipodi:cx="55.627159"
         sodipodi:cy="237.00208"
         sodipodi:rx="44.72258"
         sodipodi:ry="44.72258"
         d="M 16.379859,258.44406 C 8.8091021,244.58658 9.1071754,227.76377 17.16409,214.18319 25.221005,200.60261 39.842441,192.27739 55.633135,192.2795 m -39.253276,66.16456 3.250674,-1.77594 m -5.507405,-3.00698 1.718795,-0.68989 m -3.395142,-4.32598 1.788217,-0.48217 m -2.860739,-4.69651 1.832632,-0.26771 m -2.286332,-5.00137 1.851421,-0.0495 m -1.679954,-5.23629 3.688642,0.33878 m -2.894405,-5.56738 1.81143,0.38592 m -0.40553,-5.48421 1.753207,0.59706 m 0.244696,-5.49374 1.670469,0.79984 m 0.8915,-5.42644 1.56437,0.99144 m 1.525837,-5.28326 2.872793,2.33836 m 0.70244,-6.23538 1.288336,1.33057 m 2.721928,-4.7783 1.122261,1.47334 m 3.266955,-4.42357 0.940492,1.59552 m 3.766299,-4.007 0.745571,1.69539 m 4.212976,-3.53438 1.080447,3.54309 m 4.060516,-4.78389 0.327322,1.82293 m 4.924168,-2.44818 0.109843,1.84882 m 2.548546,-1.92754 -4.95e-4,3.70416"
         sodipodi:start="2.6415714"
         sodipodi:end="4.7125226"
         sodipodi:open="true"
         sodipodi:arc-type="arc"
         transform="matrix(1.2130593,0,0,1.2130593,11.667278,-215.08016)" />
      <path
         style="fill:none;fill-opacity:1;stroke:#1b589d;stroke-width:0.770467;stroke-dasharray:none;stroke-opacity:1"
         id="path47"
         inkscape:path-effect="#path-effect53"
         sodipodi:type="arc"
         sodipodi:cx="55.627159"
         sodipodi:cy="237.00208"
         sodipodi:rx="49.224682"
         sodipodi:ry="49.224682"
         d="M 12.383397,260.51901 C 4.1092541,245.30423 4.4395467,226.86064 13.25315,211.95187 22.066753,197.0431 38.066755,187.86296 55.38564,187.77799 m -43.002243,72.74102 -3.2541014,1.76966 m 0.9805194,-6.54518 -1.7125947,0.70515 m -0.035482,-5.69704 -1.7783659,0.51732 m 0.5759778,-5.66796 -1.8236059,0.32354 m 1.1807876,-5.57345 -1.847792,0.12601 m 1.7719649,-5.41459 -3.7012901,-0.14595 m 4.1933296,-5.12023 -1.832132,-0.27112 m 2.8863575,-4.91187 -1.7924667,-0.46613 m 3.3967069,-4.57383 -1.7321069,-0.65576 m 3.8678405,-4.18298 -1.65175,-0.83782 m 4.29432,-3.74384 -3.104646,-2.0204 m 6.223543,-2.25128 -1.434974,-1.17092 m 4.99419,-2.74147 -1.301059,-1.31812 m 5.259501,-2.1898 -1.152121,-1.45011 m 5.46409,-1.61284 -0.989883,-1.56536 m 5.605596,-1.01727 -1.632433,-3.32506 m 6.4986,1.25257 -0.633127,-1.74051 m 5.693567,0.20209 -0.442727,-1.79839 m 5.639018,0.81181 -0.247216,-1.83551 m 5.519364,1.41215 -0.04885,-1.85144 m 1.105694,1.83491 -0.01817,-3.70413"
         sodipodi:start="2.6435045"
         sodipodi:end="4.7074825"
         sodipodi:open="true"
         sodipodi:arc-type="arc"
         transform="matrix(1.2130593,0,0,1.2130593,11.667278,-215.08016)" />
      <path
         style="fill:none;fill-opacity:1;stroke:#008000;stroke-width:3.42985;stroke-dasharray:none;stroke-opacity:1"
         id="path48"
         sodipodi:type="arc"
         sodipodi:cx="79.146317"
         sodipodi:cy="72.417427"
         sodipodi:rx="56.897533"
         sodipodi:ry="56.897533"
         sodipodi:start="2.6300408"
         sodipodi:end="4.1231984"
         sodipodi:open="true"
         sodipodi:arc-type="arc"
         d="M 29.532471,100.27054 A 56.897533,56.897533 0 0 1 47.529025,25.113345" />
      <path
         style="fill:none;fill-opacity:1;stroke:#ffff00;stroke-width:3.42985;stroke-dasharray:none;stroke-opacity:1"
         id="path49"
         sodipodi:type="arc"
         sodipodi:cx="79.146317"
         sodipodi:cy="72.417427"
         sodipodi:rx="56.897533"
         sodipodi:ry="56.897533"
         sodipodi:start="4.1893649"
         sodipodi:end="4.3723295"
         sodipodi:arc-type="arc"
         d="m 50.725872,23.126376 a 56.897533,56.897533 0 0 1 9.442661,-4.348235"
         sodipodi:open="true" />
      <path
         style="fill:none;fill-opacity:1;stroke:#c60606;stroke-width:3.42985;stroke-dasharray:none;stroke-opacity:1"
         id="path50"
         sodipodi:type="arc"
         sodipodi:cx="79.146317"
         sodipodi:cy="72.417427"
         sodipodi:rx="56.897533"
         sodipodi:ry="56.897533"
         sodipodi:start="4.4136912"
         sodipodi:end="4.7113091"
         sodipodi:open="true"
         sodipodi:arc-type="arc"
         d="m 62.402744,18.039287 a 56.897533,56.897533 0 0 1 16.68213,-2.51936" />
    </g>
  </g>
</svg>
