<?xml version="1.0" encoding="UTF-8" standalone="no"?>
<!-- Created with Inkscape (http://www.inkscape.org/) -->

<svg
   width="466.21799"
   height="466.21799"
   viewBox="0 0 123.35351 123.35351"
   version="1.1"
   id="svg1"
   inkscape:version="1.4.3 (0d15f75, 2025-12-25)"
   sodipodi:docname="Diesel_Fuel_Gauge_v1.0_20260204.svg"
   inkscape:export-filename="Diesel_Fuel_Gauge_v1.0_20260204.png"
   inkscape:export-xdpi="49.418941"
   inkscape:export-ydpi="49.418941"
   xml:space="preserve"
   xmlns:inkscape="http://www.inkscape.org/namespaces/inkscape"
   xmlns:sodipodi="http://sodipodi.sourceforge.net/DTD/sodipodi-0.dtd"
   xmlns="http://www.w3.org/2000/svg"
   xmlns:svg="http://www.w3.org/2000/svg"><sodipodi:namedview
     id="namedview1"
     pagecolor="#ffffff"
     bordercolor="#000000"
     borderopacity="0.25"
     inkscape:showpageshadow="2"
     inkscape:pageopacity="0.0"
     inkscape:pagecheckerboard="0"
     inkscape:deskcolor="#d1d1d1"
     inkscape:document-units="mm"
     inkscape:zoom="1.8682248"
     inkscape:cx="232.84136"
     inkscape:cy="233.10899"
     inkscape:window-width="2048"
     inkscape:window-height="1080"
     inkscape:window-x="0"
     inkscape:window-y="0"
     inkscape:window-maximized="1"
     inkscape:current-layer="layer1"
     inkscape:export-bgcolor="#000000ff"
     showguides="true"><sodipodi:guide
       position="61.677,75.201738"
       orientation="-1,0"
       id="guide65"
       inkscape:locked="false"
       inkscape:label=""
       inkscape:color="rgb(0,134,229)" /><sodipodi:guide
       position="49.709623,70.244938"
       orientation="1,0"
       id="guide66"
       inkscape:locked="false" /><sodipodi:guide
       position="70.244938,61.67651"
       orientation="0,1"
       id="guide67"
       inkscape:locked="false"
       inkscape:label=""
       inkscape:color="rgb(0,134,229)" /><sodipodi:guide
       position="78.459064,42.911726"
       orientation="1,0"
       id="guide68"
       inkscape:locked="false" /></sodipodi:namedview><defs
     id="defs1"><inkscape:path-effect
       effect="ruler"
       id="path-effect68"
       is_visible="true"
       lpeversion="1.3.1"
       unit="px"
       mark_distance="19.2"
       mark_angle="0"
       mark_length="28"
       minor_mark_length="14"
       minor_mark_gap="0"
       major_mark_gap="0"
       major_mark_steps="5"
       shift="0"
       offset="0"
       mark_dir="right"
       border_marks="none" /><inkscape:path-effect
       effect="ruler"
       id="path-effect53"
       is_visible="true"
       lpeversion="1.3.1"
       unit="px"
       mark_distance="22.9"
       mark_angle="0"
       mark_length="22"
       minor_mark_length="11"
       minor_mark_gap="0"
       major_mark_gap="0"
       major_mark_steps="4"
       shift="2"
       offset="-22"
       mark_dir="left"
       border_marks="start" /><inkscape:path-effect
       effect="ruler"
       id="path-effect51"
       is_visible="true"
       lpeversion="1.3.1"
       unit="px"
       mark_distance="23.3"
       mark_angle="0"
       mark_length="21"
       minor_mark_length="11"
       minor_mark_gap="0"
       major_mark_gap="0"
       major_mark_steps="5"
       shift="0"
       offset="0"
       mark_dir="right"
       border_marks="start" /><inkscape:path-effect
       effect="ruler"
       id="path-effect46"
       is_visible="true"
       lpeversion="1.3.1"
       unit="px"
       mark_distance="20"
       mark_angle="0"
       mark_length="14"
       minor_mark_length="7"
       minor_mark_gap="0"
       major_mark_gap="0"
       major_mark_steps="5"
       shift="0"
       offset="0"
       mark_dir="left"
       border_marks="both" /><inkscape:path-effect
       effect="ruler"
       id="path-effect45"
       is_visible="true"
       lpeversion="1.3.1"
       unit="px"
       mark_distance="20"
       mark_angle="0"
       mark_length="14"
       minor_mark_length="7"
       minor_mark_gap="0"
       major_mark_gap="0"
       major_mark_steps="5"
       shift="0"
       offset="0"
       mark_dir="right"
       border_marks="both" /><inkscape:path-effect
       effect="ruler"
       id="path-effect42"
       is_visible="true"
       lpeversion="1.3.1"
       unit="px"
       mark_distance="20"
       mark_angle="0"
       mark_length="14"
       minor_mark_length="7"
       minor_mark_gap="0"
       major_mark_gap="0"
       major_mark_steps="5"
       shift="0"
       offset="0"
       mark_dir="right"
       border_marks="both" /><inkscape:path-effect
       effect="ruler"
       id="path-effect40"
       is_visible="true"
       lpeversion="1.3.1"
       unit="px"
       mark_distance="20"
       mark_angle="0"
       mark_length="14"
       minor_mark_length="7"
       minor_mark_gap="0"
       major_mark_gap="0"
       major_mark_steps="5"
       shift="0"
       offset="0"
       mark_dir="left"
       border_marks="both" /><inkscape:path-effect
       effect="ruler"
       id="path-effect38"
       is_visible="true"
       lpeversion="1.3.1"
       unit="px"
       mark_distance="20"
       mark_angle="0"
       mark_length="14"
       minor_mark_length="7"
       minor_mark_gap="0"
       major_mark_gap="0"
       major_mark_steps="5"
       shift="0"
       offset="0"
       mark_dir="left"
       border_marks="both" /><inkscape:path-effect
       effect="ruler"
       id="path-effect36"
       is_visible="true"
       lpeversion="1.3.1"
       unit="px"
       mark_distance="20"
       mark_angle="0"
       mark_length="14"
       minor_mark_length="7"
       minor_mark_gap="0"
       major_mark_gap="0"
       major_mark_steps="5"
       shift="0"
       offset="0"
       mark_dir="right"
       border_marks="both" /><inkscape:path-effect
       effect="ruler"
       id="path-effect34"
       is_visible="true"
       lpeversion="1.3.1"
       unit="px"
       mark_distance="20"
       mark_angle="0"
       mark_length="14"
       minor_mark_length="7"
       minor_mark_gap="0"
       major_mark_gap="0"
       major_mark_steps="5"
       shift="0"
       offset="0"
       mark_dir="right"
       border_marks="both" /><inkscape:path-effect
       effect="ruler"
       id="path-effect33"
       is_visible="true"
       lpeversion="1.3.1"
       unit="px"
       mark_distance="20"
       mark_angle="0"
       mark_length="14"
       minor_mark_length="7"
       minor_mark_gap="0"
       major_mark_gap="0"
       major_mark_steps="5"
       shift="0"
       offset="0"
       mark_dir="left"
       border_marks="both" /></defs><g
     inkscape:label="Layer 1"
     inkscape:groupmode="layer"
     id="layer1"><rect
       style="fill:#434259;fill-opacity:1;stroke:none;stroke-width:0.987999;stroke-dasharray:none;stroke-opacity:1"
       id="rect67"
       width="49.709621"
       height="123.92001"
       x="0"
       y="0" /><circle
       style="display:inline;fill:none;stroke:#9f0000;stroke-width:0.281881;stroke-dasharray:none;stroke-opacity:0.7"
       id="path1"
       cx="61.676754"
       cy="61.676754"
       r="61.535816"
       sodipodi:insensitive="true" /><path
       style="display:inline;fill:#bbbacc;fill-opacity:1;stroke-width:0.329836"
       d="m 23.39693,62.835838 c -0.05759,-0.0576 -0.104723,-0.2513 -0.104723,-0.4304 0,-0.26229 0.05098,-0.36199 0.261807,-0.5121 l 0.261806,-0.18643 v -6.220882 -6.220887 l 0.198432,-0.294444 c 0.10914,-0.161949 0.330937,-0.383763 0.492886,-0.492873 0.291699,-0.196581 0.321737,-0.198428 3.214988,-0.198428 2.784105,0 2.93543,0.0083 3.239359,0.179167 0.175351,0.09855 0.416325,0.321391 0.535494,0.495181 0.214013,0.312122 0.217028,0.342335 0.245569,2.460701 l 0.02889,2.144687 0.474994,0.208092 c 0.499054,0.218582 0.856628,0.568207 1.04789,1.0246 0.07832,0.186885 0.131241,0.969584 0.168167,2.487154 0.06032,2.479535 0.108634,2.698482 0.65704,2.977912 0.575655,0.29333 1.198743,0.14342 1.569818,-0.37772 0.16754,-0.235307 0.186155,-0.3429 0.139876,-0.808561 -0.02936,-0.295433 -0.191869,-1.106564 -0.361123,-1.802548 -0.369682,-1.520111 -0.609681,-2.879329 -0.781063,-4.423517 -0.156684,-1.41176 -0.340683,-1.815907 -1.352004,-2.969571 -0.748403,-0.853712 -0.841693,-1.095811 -0.530704,-1.377259 0.169311,-0.153209 0.193656,-0.148261 0.841673,0.172009 1.143208,0.565007 1.938223,1.500486 2.563184,3.016045 0.335897,0.81456 0.331461,0.926078 -0.04394,1.105112 -0.167506,0.07988 -0.326909,0.215646 -0.354226,0.301733 -0.04603,0.144995 0.377958,2.439823 0.88157,4.771493 0.260145,1.204458 0.267951,1.762506 0.03197,2.283844 -0.348645,0.7702 -0.971776,1.20838 -1.829008,1.28609 -0.909497,0.0825 -1.802948,-0.38195 -2.196596,-1.14182 -0.172094,-0.33218 -0.193352,-0.553695 -0.254685,-2.653623 -0.07107,-2.433423 -0.126,-2.746174 -0.491438,-2.79832 l -0.195535,-0.02804 v 3.486818 3.486785 l 0.216783,0.14203 c 0.288368,0.18896 0.364514,0.51876 0.183534,0.795 l -0.142536,0.21752 H 27.75837 c -3.194413,0 -4.282842,-0.0261 -4.361432,-0.10472 z m 6.96603,-9.320313 c 0.04545,-0.072 0.08322,-0.945802 0.08396,-1.941739 0.0013,-1.695451 -0.0098,-1.821942 -0.1732,-1.985376 -0.165884,-0.165873 -0.290894,-0.174549 -2.52113,-0.174549 -2.105538,0 -2.365768,0.01583 -2.533305,0.152747 -0.181911,0.148756 -0.18609,0.202057 -0.162388,2.070111 0.02329,1.836258 0.03193,1.92119 0.204079,2.007179 0.116755,0.05832 1.027832,0.07448 2.599559,0.04614 2.022947,-0.03648 2.433358,-0.06511 2.502429,-0.174516 z"
       id="path10"
       sodipodi:nodetypes="csscccsssssscsssssssssssssssssssccccsscsccsssssssss" /><text
       xml:space="preserve"
       style="font-style:normal;font-weight:normal;font-size:7.76787px;line-height:1.25;font-family:sans-serif;letter-spacing:0px;word-spacing:0px;display:inline;fill:#bbbacc;fill-opacity:1;stroke:none;stroke-width:0.194197"
       x="29.395647"
       y="33.840843"
       id="text313"><tspan
         sodipodi:role="line"
         x="29.395647"
         y="33.840843"
         style="font-style:normal;font-variant:normal;font-weight:bold;font-stretch:normal;font-family:'DejaVu Sans Mono';-inkscape-font-specification:'DejaVu Sans Mono Bold';text-align:center;text-anchor:middle;fill:#bbbacc;fill-opacity:1;stroke-width:0.194197"
         id="tspan316">DIESEL</tspan><tspan
         sodipodi:role="line"
         x="29.395647"
         y="43.863216"
         style="font-style:normal;font-variant:normal;font-weight:bold;font-stretch:normal;font-family:'DejaVu Sans Mono';-inkscape-font-specification:'DejaVu Sans Mono Bold';text-align:center;text-anchor:middle;fill:#bbbacc;fill-opacity:1;stroke-width:0.194197"
         id="tspan65">FUEL</tspan></text><path
       style="fill:#434259;fill-opacity:1;stroke:#bbbacc;stroke-width:1.288;stroke-dasharray:none;stroke-opacity:1"
       d="m 61.676999,11.329829 c 0,101.968461 0,101.968461 0,101.968461 m 0,-101.968461 h -7.408333 m 7.408333,5.08 h -3.704167 m 3.704167,5.079999 h -3.704167 m 3.704167,5.08 h -3.704167 m 3.704167,5.080001 h -3.704167 m 3.704167,5.08 h -7.408333 m 7.408333,5.079995 h -3.704167 m 3.704167,5.080005 h -3.704167 m 3.704167,5.08 h -3.704167 m 3.704167,5.079997 h -3.704167 m 3.704167,5.080005 h -7.408333 m 7.408333,5.079997 h -3.704167 m 3.704167,5.080001 h -3.704167 m 3.704167,5.080003 h -3.704167 m 3.704167,5.080002 h -3.704167 m 3.704167,5.079992 h -7.408333 m 7.408333,5.080004 h -3.704167 m 3.704167,5.08 h -3.704167 m 3.704167,5.08 h -3.704167 m 3.704167,5.08 h -3.704167 m 3.704167,5.08 h -7.408333"
       id="path68"
       inkscape:path-effect="#path-effect68"
       inkscape:original-d="m 61.676999,11.329829 c 0,101.968461 0,101.968461 0,101.968461 v 0"
       transform="translate(16.782064,-0.45282996)" /><rect
       style="fill:#bd2b21;fill-opacity:0.723735;stroke:none;stroke-width:1.288;stroke-dasharray:none;stroke-opacity:1"
       id="rect68"
       width="5.6649141"
       height="7.647634"
       x="72.157516"
       y="104.1898" /><text
       xml:space="preserve"
       style="font-style:normal;font-weight:normal;font-size:13.4123px;line-height:1.25;font-family:sans-serif;letter-spacing:0px;word-spacing:0px;display:inline;fill:#bbbacc;fill-opacity:1;stroke:none;stroke-width:0.194197"
       x="86.136559"
       y="19.887152"
       id="text313-8"><tspan
         sodipodi:role="line"
         x="86.136559"
         y="19.887152"
         style="font-style:normal;font-variant:normal;font-weight:bold;font-stretch:normal;font-size:13.4123px;font-family:'DejaVu Sans Mono';-inkscape-font-specification:'DejaVu Sans Mono Bold';text-align:center;text-anchor:middle;fill:#bbbacc;fill-opacity:1;stroke-width:0.194197"
         id="tspan65-8">F</tspan></text><text
       xml:space="preserve"
       style="font-style:normal;font-weight:normal;font-size:13.4123px;line-height:1.25;font-family:sans-serif;letter-spacing:0px;word-spacing:0px;display:inline;fill:#aa0000;fill-opacity:1;stroke:none;stroke-width:0.194197"
       x="86.228241"
       y="113.21662"
       id="text68"><tspan
         sodipodi:role="line"
         x="86.228241"
         y="113.21662"
         style="font-style:normal;font-variant:normal;font-weight:bold;font-stretch:normal;font-size:13.4123px;font-family:'DejaVu Sans Mono';-inkscape-font-specification:'DejaVu Sans Mono Bold';text-align:center;text-anchor:middle;fill:#aa0000;fill-opacity:1;stroke-width:0.194197"
         id="tspan68">E</tspan></text></g></svg>
