<?xml version="1.0" encoding="UTF-8" standalone="no"?>
<!-- Created with Inkscape (http://www.inkscape.org/) -->

<svg
   width="466.21799"
   height="466.21799"
   viewBox="0 0 123.3535 123.35351"
   version="1.1"
   id="svg1"
   inkscape:version="1.4.3 (0d15f75, 2025-12-25)"
   sodipodi:docname="Engine_Hours_Gauge_v1.0_20260123.svg"
   inkscape:export-filename="Engine_Hours_Gauge_v1.0_20260123.png"
   inkscape:export-xdpi="49.418941"
   inkscape:export-ydpi="49.418941"
   xmlns:inkscape="http://www.inkscape.org/namespaces/inkscape"
   xmlns:sodipodi="http://sodipodi.sourceforge.net/DTD/sodipodi-0.dtd"
   xmlns="http://www.w3.org/2000/svg"
   xmlns:svg="http://www.w3.org/2000/svg">
  <sodipodi:namedview
     id="namedview1"
     pagecolor="#ffffff"
     bordercolor="#666666"
     borderopacity="1.0"
     inkscape:showpageshadow="2"
     inkscape:pageopacity="0.0"
     inkscape:pagecheckerboard="0"
     inkscape:deskcolor="#d1d1d1"
     inkscape:document-units="mm"
     inkscape:zoom="1.8682248"
     inkscape:cx="233.10899"
     inkscape:cy="233.10899"
     inkscape:window-width="2048"
     inkscape:window-height="1080"
     inkscape:window-x="0"
     inkscape:window-y="0"
     inkscape:window-maximized="1"
     inkscape:current-layer="layer1"
     inkscape:export-bgcolor="#000000ff" />
  <defs
     id="defs1" />
  <g
     inkscape:label="Layer 1"
     inkscape:groupmode="layer"
     id="layer1">
    <circle
       style="display:inline;fill:none;stroke:#9f0000;stroke-width:0.281881;stroke-dasharray:none;stroke-opacity:0.7"
       id="path1"
       cx="61.676754"
       cy="61.676754"
       r="61.535816"
       sodipodi:insensitive="true" />
    <path
       id="rect10"
       style="display:inline;stroke:#8885a4;stroke-width:1.532"
       d="m 22.141611,49.088179 c -3.237282,0 -5.84347,-2.606188 -5.84347,-5.84347 V 26.768484 c 0,-3.237282 2.606188,-5.84347 5.84347,-5.84347 l 60.805822,-0.02333 c -0.03815,-3.295182 2.595867,-5.098581 5.867714,-5.098581 h 7.410746 c 3.271847,0 5.905857,2.634014 5.905857,5.905861 v 26.607399 c 0,3.271847 -2.63401,5.905861 -5.905857,5.905861 h -7.410746 c -3.271847,0 -5.905861,-1.803399 -5.867714,-5.104643 z"
       sodipodi:nodetypes="sssscsssssscs" />
    <g
       id="g5"
       transform="translate(-4.9746975,-26.670158)"
       style="display:none"
       sodipodi:insensitive="true">
      <rect
         style="fill:none;stroke:#9f0000;stroke-width:0.374499;stroke-dasharray:none;stroke-opacity:0.7"
         id="rect1"
         width="16.585293"
         height="25.316544"
         x="22.858315"
         y="49.018482" />
      <rect
         style="fill:none;stroke:#9f0000;stroke-width:0.374499;stroke-dasharray:none;stroke-opacity:0.7"
         id="rect2"
         width="16.585293"
         height="25.316544"
         x="39.443607"
         y="49.018482" />
      <rect
         style="fill:none;stroke:#9f0000;stroke-width:0.374499;stroke-dasharray:none;stroke-opacity:0.7"
         id="rect3"
         width="16.585293"
         height="25.316544"
         x="56.0289"
         y="49.018482" />
      <rect
         style="fill:none;stroke:#9f0000;stroke-width:0.374499;stroke-dasharray:none;stroke-opacity:0.7"
         id="rect4"
         width="16.585293"
         height="25.316544"
         x="72.614197"
         y="49.018482" />
      <rect
         style="fill:none;stroke:#9f0000;stroke-width:0.442645;stroke-dasharray:none;stroke-opacity:0.7"
         id="rect5"
         width="16.517147"
         height="35.514229"
         x="89.199493"
         y="43.91964" />
    </g>
    <text
       xml:space="preserve"
       style="font-size:9.55243px;font-family:'Noto Sans Mono CJK HK';-inkscape-font-specification:'Noto Sans Mono CJK HK';writing-mode:lr-tb;direction:ltr;display:inline;fill:#bbbacc;fill-opacity:1;stroke-width:0.796035"
       x="35.050457"
       y="60.930927"
       id="text1"><tspan
         sodipodi:role="line"
         id="tspan1"
         style="font-style:normal;font-variant:normal;font-weight:normal;font-stretch:normal;font-family:'Noto Sans Cherokee';-inkscape-font-specification:'Noto Sans Cherokee';fill:#bbbacc;fill-opacity:1;stroke-width:0.796035"
         x="35.050457"
         y="60.930927">HOURS</tspan></text>
    <g
       id="g4"
       transform="matrix(1.6913997,0,0,1.6913997,0.24388461,-62.54362)"
       style="display:inline">
      <text
         xml:space="preserve"
         style="font-style:normal;font-variant:normal;font-weight:normal;font-stretch:normal;font-size:3.175px;font-family:FreeSerif;-inkscape-font-specification:FreeSerif;writing-mode:lr-tb;direction:ltr;fill:#bbbacc;fill-opacity:1;stroke-width:0.264583"
         x="80.847321"
         y="80.93013"
         id="text3"><tspan
           sodipodi:role="line"
           id="tspan3"
           style="stroke-width:0.264583"
           x="80.847321"
           y="80.93013">1</tspan></text>
      <text
         xml:space="preserve"
         style="font-style:normal;font-variant:normal;font-weight:normal;font-stretch:normal;font-size:3.175px;font-family:FreeSerif;-inkscape-font-specification:FreeSerif;writing-mode:lr-tb;direction:ltr;fill:#bbbacc;fill-opacity:1;stroke-width:0.264583"
         x="79.923401"
         y="85.089264"
         id="text4"><tspan
           sodipodi:role="line"
           id="tspan4"
           style="stroke-width:0.264583"
           x="79.923401"
           y="85.089264">10</tspan></text>
      <path
         style="fill:#bbbacc;fill-opacity:1;stroke:#bbbacc;stroke-width:0.308336;stroke-dasharray:none;stroke-opacity:1"
         d="m 79.73775,81.878571 h 3.822508"
         id="path4" />
      <path
         style="fill:#bbbacc;fill-opacity:1;stroke:#bbbacc;stroke-width:0.398243;stroke-dasharray:none;stroke-opacity:1"
         d="m 76.541403,78.642519 v 6.376698"
         id="path5" />
    </g>
    <text
       xml:space="preserve"
       style="font-size:9.55243px;font-family:'Noto Sans Mono CJK HK';-inkscape-font-specification:'Noto Sans Mono CJK HK';writing-mode:lr-tb;direction:ltr;display:inline;fill:#bbbacc;fill-opacity:1;stroke-width:0.796035"
       x="34.285057"
       y="17.011061"
       id="text10"><tspan
         sodipodi:role="line"
         id="tspan10"
         style="font-style:normal;font-variant:normal;font-weight:normal;font-stretch:normal;font-family:'Noto Sans Cherokee';-inkscape-font-specification:'Noto Sans Cherokee';fill:#bbbacc;fill-opacity:1;stroke-width:0.796035"
         x="34.285057"
         y="17.011061">ENGINE</tspan></text>
    <g
       id="g13"
       transform="translate(0.56649143)">
      <text
         xml:space="preserve"
         style="font-style:normal;font-variant:normal;font-weight:normal;font-stretch:normal;font-size:8.31793px;font-family:FreeSerif;-inkscape-font-specification:FreeSerif;writing-mode:lr-tb;direction:ltr;fill:#bbbacc;fill-opacity:1;stroke-width:0.693161"
         x="85.35965"
         y="62.464241"
         id="text11"><tspan
           sodipodi:role="line"
           id="tspan11"
           style="font-style:normal;font-variant:normal;font-weight:bold;font-stretch:normal;font-family:FreeSerif;-inkscape-font-specification:'FreeSerif Bold';stroke-width:0.693161"
           x="85.35965"
           y="62.464241">1</tspan></text>
      <text
         xml:space="preserve"
         style="font-style:normal;font-variant:normal;font-weight:normal;font-stretch:normal;font-size:8.31793px;font-family:FreeSerif;-inkscape-font-specification:FreeSerif;writing-mode:lr-tb;direction:ltr;fill:#bbbacc;fill-opacity:1;stroke-width:0.693161"
         x="90.257538"
         y="69.156258"
         id="text12"><tspan
           sodipodi:role="line"
           id="tspan12"
           style="font-style:normal;font-variant:normal;font-weight:bold;font-stretch:normal;font-family:FreeSerif;-inkscape-font-specification:'FreeSerif Bold';stroke-width:0.693161"
           x="90.257538"
           y="69.156258">10</tspan></text>
      <path
         style="fill:#bbbacc;fill-opacity:1;stroke:#bbbacc;stroke-width:0.851;stroke-dasharray:none;stroke-opacity:1"
         d="m 86.299676,67.449935 9.061671,-8.925312"
         id="path12" />
    </g>
    <path
       style="fill:#bbbacc;fill-opacity:1;stroke:#bbbacc;stroke-width:1.00198;stroke-dasharray:none;stroke-opacity:1"
       d="M 81.979087,53.335948 V 67.94531"
       id="path13"
       inkscape:transform-center-x="-0.99136001"
       inkscape:transform-center-y="0.57549754" />
    <path
       style="display:inline;fill:#bbbacc;fill-opacity:1;stroke-width:0.364555"
       d="m 53.262892,114.98776 c -0.132599,-0.0529 -0.342896,-0.19121 -0.467326,-0.30739 -0.506844,-0.47323 -0.497274,-0.3623 -0.497274,-5.76357 0,-4.9461 0.0036,-5.0376 0.204282,-5.3949 0.316845,-0.56379 0.779199,-0.77206 1.71384,-0.77206 h 0.782616 v -1.01054 c 0,-1.35614 -0.04226,-1.32866 1.978883,-1.28713 1.846345,0.0379 1.782865,-0.0102 1.782865,1.35158 v 0.94609 h 3.568839 3.568836 v -0.92068 c 0,-0.84894 0.01845,-0.93916 0.236753,-1.15746 0.230449,-0.23047 0.275508,-0.23678 1.692349,-0.23678 1.416838,0 1.461897,0.006 1.692347,0.23678 0.217948,0.21793 0.236752,0.30911 0.236752,1.14784 v 0.91113 l 0.843984,0.0335 c 0.992956,0.0397 1.379354,0.24575 1.67297,0.89225 0.167418,0.36867 0.179696,0.72477 0.181669,5.27003 0.0022,4.86542 0.0018,4.87548 -0.214905,5.30504 -0.158542,0.31439 -0.332995,0.48883 -0.647395,0.64738 l -0.430371,0.21701 -8.829314,-0.006 c -5.62628,-0.004 -8.916773,-0.041 -9.0704,-0.10222 z m 17.824842,-1.16486 c 0.166806,-0.16682 0.166806,-9.63303 0,-9.79985 -0.153361,-0.15333 -17.159603,-0.16886 -17.445413,-0.016 -0.18063,0.0967 -0.186568,0.25311 -0.186568,4.91442 0,4.48354 0.01159,4.82134 0.168796,4.91288 0.260419,0.15169 17.311231,0.14039 17.463185,-0.0117 z m -3.935366,-3.50133 v -0.72342 h -0.675185 -0.675184 v -0.7021 -0.70213 l 0.675184,0.0368 0.675185,0.0368 v -0.7333 -0.7333 h 0.719189 0.719186 l 0.02833,0.69932 0.02833,0.69929 0.699299,0.0284 0.6993,0.0284 v 0.67096 0.67097 h -0.723411 -0.723415 v 0.72342 0.72338 h -0.723419 -0.723415 z m -12.539155,-1.39858 v -0.67519 h 2.073782 c 1.140581,0 2.106337,-0.0109 2.146125,-0.0241 0.03979,-0.0131 0.08509,0.29055 0.100683,0.67519 l 0.02833,0.69929 h -2.174462 -2.174464 z"
       id="path7"
       sodipodi:nodetypes="csscscssscccsssssccsssscscccsssscccccccccccccccccccccccccccccssscccc" />
  </g>
</svg>
