<?xml version="1.0" encoding="UTF-8" standalone="no"?>
<!-- Created with Inkscape (http://www.inkscape.org/) -->

<svg
   width="3.3632905mm"
   height="56.483818mm"
   viewBox="0 0 3.3632905 56.483819"
   version="1.1"
   id="svg1"
   sodipodi:docname="mechanical_digits_v1.0.svg"
   inkscape:version="1.4.3 (0d15f75, 2025-12-25)"
   inkscape:export-filename="mechanical_digits_v1.1.png"
   inkscape:export-xdpi="251.37465"
   inkscape:export-ydpi="251.37465"
   xmlns:inkscape="http://www.inkscape.org/namespaces/inkscape"
   xmlns:sodipodi="http://sodipodi.sourceforge.net/DTD/sodipodi-0.dtd"
   xmlns="http://www.w3.org/2000/svg"
   xmlns:svg="http://www.w3.org/2000/svg">
  <sodipodi:namedview
     id="namedview1"
     pagecolor="#ffffff"
     bordercolor="#000000"
     borderopacity="0.25"
     inkscape:showpageshadow="2"
     inkscape:pageopacity="0.0"
     inkscape:pagecheckerboard="0"
     inkscape:deskcolor="#d1d1d1"
     inkscape:document-units="mm"
     showguides="true"
     inkscape:zoom="4.0799665"
     inkscape:cx="6.4951514"
     inkscape:cy="106.74107"
     inkscape:window-width="2048"
     inkscape:window-height="1080"
     inkscape:window-x="0"
     inkscape:window-y="0"
     inkscape:window-maximized="1"
     inkscape:current-layer="layer1">
    <sodipodi:guide
       position="2.6664683,92.837587"
       orientation="0,-1"
       id="guide43"
       inkscape:locked="false" />
    <sodipodi:guide
       position="2.4418903,114.5921"
       orientation="0,-1"
       id="guide44"
       inkscape:locked="false" />
    <sodipodi:guide
       position="2.9974253,110.27193"
       orientation="0,-1"
       id="guide45"
       inkscape:locked="false" />
    <sodipodi:guide
       position="2.6014583,105.92812"
       orientation="0,-1"
       id="guide46"
       inkscape:locked="false" />
    <sodipodi:guide
       position="2.6428283,101.53703"
       orientation="0,-1"
       id="guide47"
       inkscape:locked="false" />
    <sodipodi:guide
       position="2.5187193,97.228682"
       orientation="0,-1"
       id="guide48"
       inkscape:locked="false" />
    <sodipodi:guide
       position="2.6841983,88.481957"
       orientation="0,-1"
       id="guide49"
       inkscape:locked="false" />
    <sodipodi:guide
       position="2.7314773,84.179519"
       orientation="0,-1"
       id="guide50"
       inkscape:locked="false" />
    <sodipodi:guide
       position="2.7255683,79.782515"
       orientation="0,-1"
       id="guide51"
       inkscape:locked="false" />
    <sodipodi:guide
       position="2.5719093,75.438707"
       orientation="0,-1"
       id="guide52"
       inkscape:locked="false" />
    <sodipodi:guide
       position="2.6310083,71.088987"
       orientation="0,-1"
       id="guide53"
       inkscape:locked="false" />
    <sodipodi:guide
       position="2.6841983,66.768813"
       orientation="0,-1"
       id="guide54"
       inkscape:locked="false" />
    <sodipodi:guide
       position="7.7906243,65.842144"
       orientation="0,-1"
       id="guide55"
       inkscape:locked="false" />
    <sodipodi:guide
       position="7.4450983,118.92366"
       orientation="0,-1"
       id="guide56"
       inkscape:locked="false" />
    <sodipodi:guide
       position="4.6981363,122.32595"
       orientation="0,-1"
       id="guide69"
       inkscape:locked="false" />
  </sodipodi:namedview>
  <defs
     id="defs1" />
  <g
     inkscape:label="Layer 1"
     inkscape:groupmode="layer"
     id="layer1"
     transform="translate(-37.454922,-75.206978)">
    <rect
       style="fill:#000000;stroke-width:0.260567"
       id="rect15"
       width="3.3632905"
       height="56.483818"
       x="37.454922"
       y="75.206978" />
    <g
       id="text3"
       style="font-size:3.175px;font-family:'DejaVu Sans Mono';-inkscape-font-specification:'DejaVu Sans Mono';fill:#ffffff;stroke-width:0.264583"
       aria-label="9&#10;0&#10;1&#10;2&#10;3&#10;4&#10;5&#10;6&#10;7&#10;8&#10;9&#10;0&#10;1"
       transform="translate(10.81412,-61.65453)">
      <path
         style="font-family:'Noto Sans Mono CJK HK';-inkscape-font-specification:'Noto Sans Mono CJK HK'"
         d="m 28.209731,140.24293 c 0.40005,0 0.74295,-0.34607 0.74295,-1.26047 0,-0.7112 -0.29845,-1.08268 -0.669925,-1.08268 -0.314325,0 -0.581025,0.28575 -0.581025,0.72073 0,0.46355 0.219075,0.70167 0.52705,0.70167 0.168275,0 0.32385,-0.1016 0.4445,-0.254 -0.01587,0.6985 -0.23495,0.93028 -0.466725,0.93028 -0.12065,0 -0.238125,-0.0635 -0.314325,-0.17463 l -0.161925,0.18098 c 0.10795,0.13652 0.269875,0.23812 0.479425,0.23812 z m 0.460375,-1.40652 c -0.127,0.19685 -0.269875,0.26352 -0.381,0.26352 -0.200025,0 -0.31115,-0.1651 -0.31115,-0.47942 0,-0.29845 0.127,-0.48895 0.31115,-0.48895 0.2159,0 0.3556,0.2413 0.381,0.70485 z"
         id="path17" />
      <path
         style="font-family:'Noto Sans Mono CJK HK';-inkscape-font-specification:'Noto Sans Mono CJK HK'"
         d="m 28.333556,144.59343 c 0.371475,0 0.625475,-0.3937 0.625475,-1.18428 0,-0.7874 -0.254,-1.15887 -0.625475,-1.15887 -0.371475,0 -0.625475,0.37147 -0.625475,1.15887 0,0.79058 0.254,1.18428 0.625475,1.18428 z m 0,-0.23495 c -0.200025,0 -0.346075,-0.2667 -0.346075,-0.94933 0,-0.6858 0.14605,-0.92392 0.346075,-0.92392 0.200025,0 0.346075,0.23812 0.346075,0.92392 0,0.68263 -0.14605,0.94933 -0.346075,0.94933 z"
         id="path18" />
      <path
         style="font-family:'Noto Sans Mono CJK HK';-inkscape-font-specification:'Noto Sans Mono CJK HK'"
         d="m 27.746181,148.90582 h 1.228725 v -0.2413 h -0.447675 v -2.02565 h -0.219075 c -0.12065,0.0762 -0.263525,0.13335 -0.46355,0.1651 v 0.18733 h 0.3937 v 1.67322 h -0.492125 z"
         id="path19" />
      <path
         style="font-family:'Noto Sans Mono CJK HK';-inkscape-font-specification:'Noto Sans Mono CJK HK'"
         d="m 27.689031,153.25632 h 1.285875 v -0.24448 h -0.5334 c -0.12065,0 -0.231775,0.01 -0.3556,0.0159 0.460375,-0.56833 0.7874,-0.99695 0.7874,-1.4224 0,-0.39688 -0.225425,-0.65723 -0.59055,-0.65723 -0.263525,0 -0.4445,0.13335 -0.6096,0.3302 l 0.174625,0.16193 c 0.1016,-0.1397 0.2413,-0.254 0.40005,-0.254 0.231775,0 0.33655,0.18097 0.33655,0.42862 0,0.39688 -0.320675,0.80963 -0.89535,1.4732 z"
         id="path20" />
      <path
         style="font-family:'Noto Sans Mono CJK HK';-inkscape-font-specification:'Noto Sans Mono CJK HK'"
         d="m 28.292281,157.64491 c 0.352425,0 0.635,-0.23812 0.635,-0.63182 0,-0.32068 -0.1905,-0.52388 -0.4064,-0.58738 v -0.0127 c 0.2032,-0.0889 0.346075,-0.2667 0.346075,-0.54927 0,-0.3556 -0.23495,-0.56198 -0.581025,-0.56198 -0.225425,0 -0.4191,0.11748 -0.5715,0.28258 l 0.161925,0.18097 c 0.111125,-0.13652 0.244475,-0.22542 0.38735,-0.22542 0.19685,0 0.32385,0.13017 0.32385,0.35242 0,0.23178 -0.14605,0.42863 -0.52705,0.42863 v 0.22225 c 0.422275,0 0.5842,0.17462 0.5842,0.45402 0,0.25718 -0.17145,0.40323 -0.384175,0.40323 -0.200025,0 -0.3556,-0.1143 -0.466725,-0.26035 l -0.1524,0.18732 c 0.127,0.1651 0.339725,0.3175 0.650875,0.3175 z"
         id="path21" />
      <path
         style="font-family:'Noto Sans Mono CJK HK';-inkscape-font-specification:'Noto Sans Mono CJK HK'"
         d="m 28.485956,161.9573 h 0.27305 v -0.62865 h 0.250825 v -0.23177 h -0.250825 v -1.40653 h -0.358775 l -0.765175,1.44463 v 0.19367 h 0.8509 z m 0,-0.86042 h -0.57785 l 0.415925,-0.77153 c 0.05397,-0.11112 0.111125,-0.24765 0.161925,-0.37147 h 0.0127 c -0.0095,0.1524 -0.0127,0.28892 -0.0127,0.41275 z"
         id="path22" />
      <path
         style="font-family:'Noto Sans Mono CJK HK';-inkscape-font-specification:'Noto Sans Mono CJK HK'"
         d="m 28.273231,166.3459 c 0.346075,0 0.663575,-0.27305 0.663575,-0.76518 0,-0.48895 -0.276225,-0.70802 -0.57785,-0.70802 -0.12065,0 -0.200025,0.0317 -0.28575,0.0857 l 0.05715,-0.66675 h 0.74295 v -0.25082 h -0.993775 l -0.07303,1.08267 0.1524,0.0921 c 0.10795,-0.0762 0.18415,-0.12383 0.307975,-0.12383 0.219075,0 0.377825,0.1905 0.377825,0.49848 0,0.31432 -0.180975,0.51117 -0.40005,0.51117 -0.212725,0 -0.3429,-0.10795 -0.45085,-0.2286 l -0.14605,0.18733 c 0.136525,0.14605 0.32385,0.28575 0.625475,0.28575 z"
         id="path23" />
      <path
         style="font-family:'Noto Sans Mono CJK HK';-inkscape-font-specification:'Noto Sans Mono CJK HK'"
         d="m 28.384356,170.69639 c 0.314325,0 0.581025,-0.28575 0.581025,-0.72072 0,-0.46355 -0.219075,-0.70168 -0.52705,-0.70168 -0.168275,0 -0.32385,0.1016 -0.4445,0.254 0.01588,-0.6985 0.23495,-0.93027 0.466725,-0.93027 0.12065,0 0.238125,0.0635 0.314325,0.17462 l 0.161925,-0.18415 c -0.10795,-0.13335 -0.269875,-0.23495 -0.479425,-0.23495 -0.40005,0 -0.74295,0.3429 -0.74295,1.26048 0,0.7112 0.29845,1.08267 0.669925,1.08267 z m -0.38735,-0.93662 c 0.127,-0.19685 0.269875,-0.26353 0.381,-0.26353 0.200025,0 0.31115,0.1651 0.31115,0.47943 0,0.29527 -0.127,0.48895 -0.31115,0.48895 -0.2159,0 -0.3556,-0.2413 -0.381,-0.70485 z"
         id="path24" />
      <path
         style="font-family:'Noto Sans Mono CJK HK';-inkscape-font-specification:'Noto Sans Mono CJK HK'"
         d="m 28.095431,175.00879 h 0.3048 c 0.0127,-0.87313 0.142875,-1.41605 0.561975,-2.08915 v -0.1778 h -1.247775 v 0.24447 h 0.936625 c -0.36195,0.635 -0.517525,1.13983 -0.555625,2.02248 z"
         id="path25" />
      <path
         style="font-family:'Noto Sans Mono CJK HK';-inkscape-font-specification:'Noto Sans Mono CJK HK'"
         d="m 28.339906,179.39738 c 0.4064,0 0.62865,-0.254 0.62865,-0.5842 0,-0.31432 -0.15875,-0.46037 -0.339725,-0.5969 v -0.0127 c 0.142875,-0.1397 0.269875,-0.3429 0.269875,-0.57785 0,-0.32702 -0.212725,-0.5715 -0.5588,-0.5715 -0.327025,0 -0.56515,0.22225 -0.56515,0.5588 0,0.23813 0.130175,0.41593 0.27305,0.54293 v 0.0127 c -0.18415,0.12382 -0.3556,0.30162 -0.3556,0.6223 0,0.34925 0.254,0.60642 0.6477,0.60642 z m 0.104775,-1.28587 c -0.219075,-0.10795 -0.40005,-0.26035 -0.40005,-0.50165 0,-0.20955 0.123825,-0.33973 0.2921,-0.33973 0.1905,0 0.3048,0.1651 0.3048,0.3683 0,0.1778 -0.06985,0.3302 -0.19685,0.47308 z m -0.1016,1.07315 c -0.231775,0 -0.381,-0.17145 -0.381,-0.40323 0,-0.23812 0.111125,-0.38735 0.254,-0.50482 0.263525,0.1397 0.466725,0.26035 0.466725,0.54927 0,0.20955 -0.117475,0.35878 -0.339725,0.35878 z"
         id="path26" />
      <path
         style="font-family:'Noto Sans Mono CJK HK';-inkscape-font-specification:'Noto Sans Mono CJK HK'"
         d="m 28.209731,183.74787 c 0.40005,0 0.74295,-0.34607 0.74295,-1.26047 0,-0.7112 -0.29845,-1.08268 -0.669925,-1.08268 -0.314325,0 -0.581025,0.28575 -0.581025,0.72073 0,0.46355 0.219075,0.70167 0.52705,0.70167 0.168275,0 0.32385,-0.1016 0.4445,-0.254 -0.01587,0.6985 -0.23495,0.93028 -0.466725,0.93028 -0.12065,0 -0.238125,-0.0635 -0.314325,-0.17463 l -0.161925,0.18098 c 0.10795,0.13652 0.269875,0.23812 0.479425,0.23812 z m 0.460375,-1.40652 c -0.127,0.19685 -0.269875,0.26352 -0.381,0.26352 -0.200025,0 -0.31115,-0.1651 -0.31115,-0.47942 0,-0.29845 0.127,-0.48895 0.31115,-0.48895 0.2159,0 0.3556,0.2413 0.381,0.70485 z"
         id="path27" />
      <path
         style="font-family:'Noto Sans Mono CJK HK';-inkscape-font-specification:'Noto Sans Mono CJK HK'"
         d="m 28.333556,188.09837 c 0.371475,0 0.625475,-0.3937 0.625475,-1.18428 0,-0.7874 -0.254,-1.15887 -0.625475,-1.15887 -0.371475,0 -0.625475,0.37147 -0.625475,1.15887 0,0.79058 0.254,1.18428 0.625475,1.18428 z m 0,-0.23495 c -0.200025,0 -0.346075,-0.2667 -0.346075,-0.94933 0,-0.6858 0.14605,-0.92392 0.346075,-0.92392 0.200025,0 0.346075,0.23812 0.346075,0.92392 0,0.68263 -0.14605,0.94933 -0.346075,0.94933 z"
         id="path28" />
      <path
         style="font-family:'Noto Sans Mono CJK HK';-inkscape-font-specification:'Noto Sans Mono CJK HK'"
         d="m 27.746181,192.41076 h 1.228725 v -0.2413 h -0.447675 v -2.02565 h -0.219075 c -0.12065,0.0762 -0.263525,0.13335 -0.46355,0.1651 v 0.18733 h 0.3937 v 1.67322 h -0.492125 z"
         id="path29" />
    </g>
  </g>
</svg>
