<?xml version="1.0" encoding="UTF-8" standalone="no"?>
<!-- Created with Inkscape (http://www.inkscape.org/) -->

<svg
   width="466.21835"
   height="466.21835"
   viewBox="0 0 123.35361 123.35361"
   version="1.1"
   id="svg1"
   inkscape:version="1.4.3 (0d15f75, 2025-12-25)"
   sodipodi:docname="myGauge_2.svg"
   inkscape:export-filename="myGauge_1e.png"
   inkscape:export-xdpi="49.4189"
   inkscape:export-ydpi="49.4189"
   xml:space="preserve"
   xmlns:inkscape="http://www.inkscape.org/namespaces/inkscape"
   xmlns:sodipodi="http://sodipodi.sourceforge.net/DTD/sodipodi-0.dtd"
   xmlns="http://www.w3.org/2000/svg"
   xmlns:svg="http://www.w3.org/2000/svg"
   xmlns:rdf="http://www.w3.org/1999/02/22-rdf-syntax-ns#"
   xmlns:cc="http://creativecommons.org/ns#"
   xmlns:dc="http://purl.org/dc/elements/1.1/"><sodipodi:namedview
     id="namedview1"
     pagecolor="#ffffff"
     bordercolor="#666666"
     borderopacity="1.0"
     inkscape:showpageshadow="2"
     inkscape:pageopacity="0.0"
     inkscape:pagecheckerboard="0"
     inkscape:deskcolor="#d1d1d1"
     inkscape:document-units="mm"
     inkscape:zoom="1.8682233"
     inkscape:cx="233.10918"
     inkscape:cy="233.10918"
     inkscape:window-width="2048"
     inkscape:window-height="1080"
     inkscape:window-x="0"
     inkscape:window-y="0"
     inkscape:window-maximized="1"
     showgrid="false"
     inkscape:snap-global="false"
     inkscape:current-layer="layer1"
     showguides="true"
     inkscape:export-bgcolor="#000000ff"><sodipodi:guide
       position="61.52376,92.132596"
       orientation="1,0"
       id="guide313"
       inkscape:locked="false" /></sodipodi:namedview><metadata
     id="metadata64"><rdf:RDF><cc:Work
         rdf:about=""><dc:format>image/svg+xml</dc:format><dc:type
           rdf:resource="http://purl.org/dc/dcmitype/StillImage" /></cc:Work></rdf:RDF></metadata><defs
     id="defs1"><inkscape:path-effect
       effect="skeletal"
       id="path-effect308"
       is_visible="true"
       lpeversion="1"
       pattern="m 48.437072,34.936317 c 0.899637,-0.176715 0.68207,1.125538 0.293714,1.495293 -1.052433,1.00203 -2.687955,0.178223 -3.284299,-0.907838 -1.066694,-1.942756 0.215768,-4.265824 2.109417,-5.073306 2.779051,-1.18499 5.870046,0.607721 6.862313,3.310996 1.32252,3.603042 -0.997982,7.484268 -4.512575,8.651292 -4.422748,1.468622 -9.103413,-1.38721 -10.440299,-5.714126 -1.619171,-5.240497 1.775804,-10.725362 6.915705,-12.229307 6.057212,-1.772338 12.349084,2.164001 14.018314,8.117285 1.927198,6.873293 -2.551933,13.973967 -9.318864,15.807318 -7.689003,2.083144 -15.599648,-2.93968 -17.5963,-10.520441 -2.239936,-8.504475 3.327268,-17.225962 11.721994,-19.385306 9.319737,-2.39731 18.852728,3.71475 21.174314,12.923546"
       copytype="repeated_stretched"
       prop_scale="1.6"
       scale_y_rel="false"
       spacing="-0.1"
       normal_offset="0"
       tang_offset="0"
       prop_units="false"
       vertical_pattern="false"
       hide_knot="false"
       fuse_tolerance="0" /><inkscape:path-effect
       effect="curvestitching"
       id="path-effect933"
       is_visible="true"
       count="13"
       startpoint_edge_variation="0;1"
       startpoint_spacing_variation="0;1"
       endpoint_edge_variation="0;1"
       endpoint_spacing_variation="0;1"
       strokepath="M 0,0 H 1"
       prop_scale="1"
       scale_y_rel="false"
       lpeversion="0" /><inkscape:path-effect
       effect="curvestitching"
       id="path-effect926"
       is_visible="true"
       count="61"
       startpoint_edge_variation="0;1"
       startpoint_spacing_variation="0;1"
       endpoint_edge_variation="0;1"
       endpoint_spacing_variation="0;1"
       strokepath="M 0,0 H 1"
       prop_scale="1"
       scale_y_rel="false"
       lpeversion="0" /><inkscape:path-effect
       effect="curvestitching"
       id="path-effect1"
       is_visible="true"
       lpeversion="1"
       count="61"
       startpoint_edge_variation="0;1"
       startpoint_spacing_variation="0;1"
       endpoint_edge_variation="0;1"
       endpoint_spacing_variation="0;1"
       strokepath="M 0,0 H 1"
       prop_scale="1"
       scale_y_rel="false" /></defs><g
     inkscape:label="Layer 1"
     inkscape:groupmode="layer"
     id="layer1"
     transform="translate(-31.349202,-16.328321)"
     style="display:inline"><g
       id="g1483"
       transform="translate(121.61039,-46.90525)"
       style="display:inline"><path
         style="display:inline;fill:#1b589d;fill-opacity:1;stroke:#1b589d;stroke-width:0.975703;stroke-dasharray:none;stroke-opacity:1"
         d="m 149.24519,77.986626 h 5.12676 m -5.47546,5.823767 5.09485,0.532996 m -6.11246,5.177524 5.00172,1.055627 m -6.64549,4.498904 4.85128,1.563981 m -7.07846,3.791815 4.64744,2.05415 m -7.41531,3.06017 4.39413,2.52222 m -100.418948,-2.52221 -4.394136,2.52221 m 1.626271,-7.63653 -4.647453,2.05415 m 2.420265,-7.409945 -4.851287,1.563976 m 3.207518,-7.118507 -5.001726,1.055622 m 3.98412,-6.766142 -5.094857,0.532991 m 4.746156,-6.356758 -5.12677,-5e-6 m 5.47547,-5.823762 -5.094856,-0.533001 m 6.112462,-5.177519 -5.001724,-1.055632 m 6.645493,-4.498899 -4.851285,-1.563986 m 7.078474,-3.791811 -4.647451,-2.054154 M 45.215244,50.42769 40.82111,47.90547 m 7.659932,-2.307884 -4.095245,-2.964274 m 7.816235,-1.538867 -3.754698,-3.376406 m 7.888135,-0.757031 -3.376402,-3.754701 m 7.879544,0.03371 -2.964272,-4.095249 m 7.794375,0.82945 -2.522217,-4.394137 m 7.636539,1.626272 -2.05415,-4.647454 m 7.409948,2.420266 -1.563984,-4.851289 m 7.118515,3.207521 -1.055629,-5.001729 m 6.766149,3.984123 -0.532998,-5.094861 m 6.356765,4.746161 -2e-6,-5.126775 m 5.823769,5.475475 0.532993,-5.094861 m 5.177528,6.112467 1.05562,-5.001728 m 4.49891,6.645496 1.56398,-4.851288 m 3.79182,7.078476 2.05414,-4.647453 m 3.06018,7.415318 2.52221,-4.394136 m 2.30789,7.659934 2.96427,-4.095246 m 1.53888,7.816235 3.37639,-3.754698 m 0.75704,7.888135 3.75469,-3.376402 m -0.0337,7.879543 4.09524,-2.96427 m -0.82944,7.794374 4.39413,-2.522216 m -1.62626,7.636538 4.64744,-2.054149 m -2.42026,7.409946 4.85128,-1.563982 m -3.20751,7.118513 5.00172,-1.055627 m -3.98411,6.766147 5.09485,-0.532996 m -4.74615,6.356763 h 5.12676"
         id="path924"
         inkscape:connector-curvature="0"
         sodipodi:nodetypes="cccccccccccccccccccccccccccccccccccccccccccccccccccccccccccccccccccccccccccccccccccc"
         transform="translate(-122.02755,47.047505)" /><path
         style="display:inline;fill:none;fill-opacity:1;stroke:#93a2b4;stroke-width:0.975703;stroke-dasharray:none;stroke-opacity:1"
         d="m -89.68315,172.08164 h -8.548879 m -0.188888,30.08115 -7.327213,-4.20579 m -97.48587,4.20578 7.32722,-4.20579 m -16.06498,-25.87536 h 8.54889 m 0.18888,-30.08115 7.32722,4.20579 m 14.99817,-26.53118 4.2058,7.32722 m 25.87535,-16.06498 1e-5,8.54889 m 30.08114,0.18888 -4.20579,7.32721 m 26.531178,14.99818 -7.327208,4.20579 m 16.06497,25.87536 h -8.548879"
         id="path885"
         inkscape:connector-curvature="0"
         sodipodi:nodetypes="cccccccccccccccccccc"
         transform="translate(122.02755,-47.047506)" /></g><path
       inkscape:connector-curvature="0"
       id="path920"
       style="display:inline;fill:none;fill-opacity:1;stroke:#0000f1;stroke-width:0.975703;stroke-dasharray:none;stroke-opacity:1"
       d="M -57.124588,8.1985546 A 56.017533,56.017533 0 0 1 -113.14213,64.216085 56.017533,56.017533 0 0 1 -169.15966,8.1985546 56.017533,56.017533 0 0 1 -113.14213,-47.818979 56.017533,56.017533 0 0 1 -57.124588,8.1985546 Z m 5.126759,0 a 61.144306,61.144306 0 0 1 -61.144301,61.1443044 61.144306,61.144306 0 0 1 -61.1443,-61.1443044 61.144306,61.144306 0 0 1 61.1443,-61.1443086 61.144306,61.144306 0 0 1 61.144301,61.1443086 z" /><circle
       style="fill:#1b589d;fill-opacity:1;stroke:#93a2b4;stroke-width:1.065;stroke-opacity:1"
       id="path1487"
       cx="92.810486"
       cy="78.128876"
       r="8.2439289" /><text
       xml:space="preserve"
       style="font-style:normal;font-weight:normal;font-size:7.76787px;line-height:1.25;font-family:FreeSans;letter-spacing:0px;word-spacing:0px;fill:#bbbacc;fill-opacity:1;stroke:none;stroke-width:0.194197;-inkscape-font-specification:FreeSans;font-stretch:normal;font-variant:normal"
       x="49.045368"
       y="104.54839"
       id="text1541"><tspan
         sodipodi:role="line"
         id="tspan1539"
         x="49.045368"
         y="104.54839"
         style="fill:#bbbacc;fill-opacity:1;stroke-width:0.194197;-inkscape-font-specification:FreeSans;font-family:FreeSans;font-weight:normal;font-style:normal;font-stretch:normal;font-variant:normal">0</tspan></text><text
       xml:space="preserve"
       style="font-style:normal;font-weight:normal;font-size:7.76787px;line-height:1.25;font-family:FreeSans;letter-spacing:0px;word-spacing:0px;fill:#bbbacc;fill-opacity:1;stroke:none;stroke-width:0.194197;-inkscape-font-specification:FreeSans;font-stretch:normal;font-variant:normal"
       x="41.456745"
       y="81.273598"
       id="text1545"><tspan
         sodipodi:role="line"
         id="tspan1543"
         x="41.456745"
         y="81.273598"
         style="fill:#bbbacc;fill-opacity:1;stroke-width:0.194197;-inkscape-font-specification:FreeSans;font-family:FreeSans;font-weight:normal;font-style:normal;font-stretch:normal;font-variant:normal">10</tspan></text><text
       xml:space="preserve"
       style="font-style:normal;font-weight:normal;font-size:7.76787px;line-height:1.25;font-family:FreeSans;letter-spacing:0px;word-spacing:0px;fill:#bbbacc;fill-opacity:1;stroke:none;stroke-width:0.194197;-inkscape-font-specification:FreeSans;font-stretch:normal;font-variant:normal"
       x="48.737587"
       y="57.581512"
       id="text1549"><tspan
         sodipodi:role="line"
         id="tspan1547"
         x="48.737587"
         y="57.581512"
         style="fill:#bbbacc;fill-opacity:1;stroke-width:0.194197;-inkscape-font-specification:FreeSans;font-family:FreeSans;font-weight:normal;font-style:normal;font-stretch:normal;font-variant:normal">20</tspan></text><text
       xml:space="preserve"
       style="font-style:normal;font-weight:normal;font-size:7.76787px;line-height:1.25;font-family:FreeSans;letter-spacing:0px;word-spacing:0px;fill:#bbbacc;fill-opacity:1;stroke:none;stroke-width:0.194197;-inkscape-font-specification:FreeSans;font-stretch:normal;font-variant:normal"
       x="65.585419"
       y="41.694508"
       id="text1553"><tspan
         sodipodi:role="line"
         id="tspan1551"
         x="65.585419"
         y="41.694508"
         style="fill:#bbbacc;fill-opacity:1;stroke-width:0.194197;-inkscape-font-specification:FreeSans;font-family:FreeSans;font-weight:normal;font-style:normal;font-stretch:normal;font-variant:normal">30</tspan></text><text
       xml:space="preserve"
       style="font-style:normal;font-weight:normal;font-size:7.76787px;line-height:1.25;font-family:FreeSans;letter-spacing:0px;word-spacing:0px;fill:#bbbacc;fill-opacity:1;stroke:none;stroke-width:0.194197;-inkscape-font-specification:FreeSans;font-stretch:normal;font-variant:normal"
       x="88.314133"
       y="33.903618"
       id="text1557"><tspan
         sodipodi:role="line"
         id="tspan1555"
         x="88.314133"
         y="33.903618"
         style="fill:#bbbacc;fill-opacity:1;stroke-width:0.194197;-inkscape-font-specification:FreeSans;font-family:FreeSans;font-weight:normal;font-style:normal;font-stretch:normal;font-variant:normal">40</tspan></text><text
       xml:space="preserve"
       style="font-style:normal;font-weight:normal;font-size:7.76787px;line-height:1.25;font-family:FreeSans;letter-spacing:0px;word-spacing:0px;fill:#bbbacc;fill-opacity:1;stroke:none;stroke-width:0.194197;-inkscape-font-specification:FreeSans;font-stretch:normal;font-variant:normal"
       x="111.52708"
       y="40.688587"
       id="text1561"><tspan
         sodipodi:role="line"
         id="tspan1559"
         x="111.52708"
         y="40.688587"
         style="fill:#bbbacc;fill-opacity:1;stroke-width:0.194197;-inkscape-font-specification:FreeSans;font-family:FreeSans;font-weight:normal;font-style:normal;font-stretch:normal;font-variant:normal">50</tspan></text><text
       xml:space="preserve"
       style="font-style:normal;font-weight:normal;font-size:7.76787px;line-height:1.25;font-family:FreeSans;letter-spacing:0px;word-spacing:0px;fill:#bbbacc;fill-opacity:1;stroke:none;stroke-width:0.194197;-inkscape-font-specification:FreeSans;font-stretch:normal;font-variant:normal"
       x="128.1315"
       y="58.18943"
       id="text1565"><tspan
         sodipodi:role="line"
         id="tspan1563"
         x="128.1315"
         y="58.18943"
         style="fill:#bbbacc;fill-opacity:1;stroke-width:0.194197;-inkscape-font-specification:FreeSans;font-family:FreeSans;font-weight:normal;font-style:normal;font-stretch:normal;font-variant:normal">60</tspan></text><text
       xml:space="preserve"
       style="font-style:normal;font-weight:normal;font-size:7.76787px;line-height:1.25;font-family:FreeSans;letter-spacing:0px;word-spacing:0px;fill:#bbbacc;fill-opacity:1;stroke:none;stroke-width:0.194197;-inkscape-font-specification:FreeSans;font-stretch:normal;font-variant:normal"
       x="134.24417"
       y="81.385651"
       id="text1569"><tspan
         sodipodi:role="line"
         id="tspan1567"
         x="134.24417"
         y="81.385651"
         style="fill:#bbbacc;fill-opacity:1;stroke-width:0.194197;-inkscape-font-specification:FreeSans;font-family:FreeSans;font-weight:normal;font-style:normal;font-stretch:normal;font-variant:normal">70</tspan></text><text
       xml:space="preserve"
       style="font-style:normal;font-variant:normal;font-weight:normal;font-stretch:normal;font-size:7.76781px;line-height:1.25;font-family:FreeSans;-inkscape-font-specification:FreeSans;letter-spacing:0px;word-spacing:0px;fill:#bbbacc;fill-opacity:1;stroke:none;stroke-width:0.194195"
       x="127.52265"
       y="103.82325"
       id="text1573"><tspan
         sodipodi:role="line"
         id="tspan1571"
         x="127.52265"
         y="103.82325"
         style="font-style:normal;font-variant:normal;font-weight:normal;font-stretch:normal;font-family:FreeSans;-inkscape-font-specification:FreeSans;fill:#bbbacc;fill-opacity:1;stroke-width:0.194195">80</tspan></text><path
       inkscape:connector-curvature="0"
       id="path1"
       style="fill:none;fill-opacity:1;stroke:#0000f1;stroke-width:0.975703;stroke-dasharray:none;stroke-opacity:1"
       d="m -57.592955,240.11221 a 56.017533,56.017533 0 0 1 -56.017555,56.01753 56.017533,56.017533 0 0 1 -56.01753,-56.01753 56.017533,56.017533 0 0 1 56.01753,-56.01754 56.017533,56.017533 0 0 1 56.017555,56.01754 z m 5.12676,0 a 61.144306,61.144306 0 0 1 -61.144315,61.1443 61.144306,61.144306 0 0 1 -61.1443,-61.1443 61.144306,61.144306 0 0 1 61.1443,-61.14431 61.144306,61.144306 0 0 1 61.144315,61.14431 z" /><rect
       style="display:inline;fill:#0000f1;fill-opacity:1;stroke-width:0.162545"
       id="rect1"
       width="2"
       height="157.66846"
       x="-115.12447"
       y="161.27798" /><g
       id="g293"
       transform="translate(16.435439,30.405562)"><path
         style="display:inline;fill:#fbfbfb"
         d="m -406.7046,257.16389 v -91.54583 h 86.78334 86.78333 v 91.54583 91.54583 h -86.78333 -86.78334 z m 85.90139,53.82273 c 11.49728,-2.65827 20.26147,-7.61873 28.27679,-16.00444 15.55895,-16.27794 19.19063,-40.79354 9.05144,-61.10162 -5.39002,-10.79585 -14.24859,-19.55239 -25.00098,-24.71303 -19.58413,-9.39947 -42.72715,-6.19144 -59.16617,8.20147 -7.84857,6.87168 -14.07524,16.90939 -16.6309,26.80989 -1.82306,7.06241 -2.18297,15.8464 -0.94443,23.04985 3.72349,21.65617 20.71482,39.23776 42.23141,43.69848 5.052,1.04736 4.98776,1.0426 12.30506,0.91258 5.21289,-0.0926 7.40852,-0.28226 9.87778,-0.85318 z m -17.78555,-0.75943 c -8.50889,-1.10177 -17.91016,-4.90355 -24.73626,-10.0031 -3.93452,-2.93936 -9.57746,-8.82666 -12.11346,-12.63803 -4.28255,-6.43627 -7.06578,-13.45302 -8.37696,-21.11896 -0.63261,-3.69863 -0.7167,-5.25217 -0.55126,-10.18516 0.2066,-6.16054 0.84796,-9.97538 2.53219,-15.0616 1.35594,-4.09481 4.40127,-10.10191 6.93335,-13.67646 2.80521,-3.96012 8.40559,-9.60825 12.19021,-12.29412 18.31583,-12.99843 42.25482,-13.18953 60.93562,-0.48644 4.10464,2.79118 10.35101,9.03598 13.12331,13.12001 4.02344,5.92715 6.97858,12.86946 8.48444,19.93195 0.91933,4.31162 0.90629,16.19897 -0.0224,20.46111 -3.84301,17.63637 -15.52968,31.79015 -31.67203,38.35813 -8.4187,3.42539 -18.03526,4.71807 -26.72671,3.59267 z m 17.60916,-39.99825 c 0,-0.0903 -0.49485,-0.72771 -1.09966,-1.41656 l -1.09967,-1.25245 6.45795,-10.13691 c 3.55187,-5.5753 6.96089,-10.89483 7.5756,-11.82117 l 1.11766,-1.68427 2.25531,1.63693 c 1.24042,0.90031 3.09005,2.44784 4.11029,3.43896 l 1.85498,1.80204 3.70127,-3.68867 c 2.0357,-2.02877 3.70127,-3.88058 3.70127,-4.11513 0,-1.24149 -1.06656,-0.62382 -4.04571,2.34293 l -3.26529,3.25172 -1.72871,-1.53207 c -1.34011,-1.18767 -3.95635,-3.19649 -5.71519,-4.38827 -0.063,-0.0427 0.29048,-0.68981 0.7856,-1.43799 0.77145,-1.16575 1.959,-4.2739 1.97104,-5.15877 0.007,-0.54157 -3.28522,2.23709 -4.32299,3.64823 -0.57673,0.78424 -1.14883,1.37237 -1.27132,1.30695 -0.12249,-0.0654 -0.96722,-0.4595 -1.87719,-0.87575 l -1.65448,-0.75682 0.76243,-1.80463 c 0.65761,-1.55651 0.69107,-1.84976 0.24337,-2.13289 -0.83508,-0.52812 -0.94453,-0.4304 -1.61919,1.44577 -0.45751,1.27231 -0.79692,1.73971 -1.18195,1.62767 -0.29708,-0.0865 -1.88952,-0.55481 -3.53875,-1.04082 -2.88112,-0.84902 -5.99182,-1.40941 -10.31875,-1.85894 l -2.02847,-0.21074 v -4.56073 c 0,-4.32554 -0.0364,-4.56073 -0.70556,-4.56073 -0.6692,0 -0.70555,0.23519 -0.70555,4.5645 v 4.5645 l -1.49931,0.17845 c -6.09099,0.72498 -7.92653,1.03893 -10.59178,1.81161 -1.6633,0.48221 -3.276,0.97337 -3.58377,1.09148 -0.41929,0.16089 -0.74319,-0.22705 -1.29186,-1.5473 -0.58573,-1.40942 -0.86744,-1.72667 -1.40777,-1.58537 -0.83964,0.21957 -0.83854,0.36109 0.0183,2.36011 l 0.69385,1.6187 -2.84702,1.43145 c -1.56587,0.7873 -2.8866,1.38174 -2.93496,1.32097 -0.0484,-0.0608 -0.75332,-1.26142 -1.56656,-2.66812 -0.81324,-1.4067 -1.60556,-2.55764 -1.7607,-2.55764 -0.52406,0 -4.43348,2.7984 -6.89655,4.93661 l -2.44725,2.12448 -0.93775,-0.89843 c -0.84786,-0.8123 -0.98282,-0.84413 -1.40779,-0.33207 -0.41063,0.49478 0.002,1.03876 3.26817,4.30454 l 3.7382,3.7382 2.39986,-2.19904 c 5.87714,-5.38533 14.05513,-9.36641 22.13504,-10.77543 6.21117,-1.08314 14.57318,-0.57728 20.51783,1.24121 2.91661,0.89221 8.28416,3.14213 8.2497,3.45804 -0.0134,0.1225 -3.15199,4.50897 -6.97473,9.74772 -5.86269,8.03434 -7.08731,9.525 -7.82501,9.525 -0.80632,0 -0.8829,-0.14455 -0.9812,-1.85208 -0.0587,-1.01865 -0.26466,-1.85209 -0.45781,-1.85209 -0.20679,0 -0.30799,0.90651 -0.24615,2.20486 0.0943,1.98033 0.18586,2.21635 0.89878,2.3176 0.95954,0.13627 0.97337,0.3492 0.0914,1.40726 -0.61253,0.7348 -0.80975,0.77812 -2.01673,0.44294 -0.7358,-0.20432 -2.40342,-0.37238 -3.70583,-0.37347 -3.4778,-0.003 -5.97335,1.03244 -8.4799,3.51806 -1.11566,1.10634 -2.02847,2.19568 -2.02847,2.42075 0,0.3015 2.83236,0.40923 10.75972,0.40923 5.91785,0 10.75972,-0.0739 10.75972,-0.16412 z m -17.63889,-8.85254 c 0,-0.72162 0.17146,-0.86112 1.05834,-0.86112 0.58208,0 1.05833,-0.15875 1.05833,-0.35278 0,-0.19403 -0.47625,-0.35278 -1.05833,-0.35278 -0.70556,0 -1.05834,-0.17639 -1.05834,-0.52916 0,-0.35278 0.35278,-0.52917 1.05834,-0.52917 0.58208,0 1.05833,-0.15875 1.05833,-0.35278 0,-0.19403 -0.635,-0.35278 -1.41111,-0.35278 h -1.41111 v 2.31388 c 0,1.45275 0.13129,2.23273 0.35277,2.09585 0.19403,-0.11992 0.35278,-0.60554 0.35278,-1.07916 z m 5.92667,0.83221 c 0.50973,-0.50973 0.57165,-4.16278 0.0706,-4.16278 -0.19403,0 -0.35278,0.79874 -0.35278,1.77496 0,1.25895 -0.15514,1.8345 -0.53366,1.97975 -0.92373,0.35447 -1.58301,-0.56609 -1.58301,-2.2104 0,-0.84937 -0.15875,-1.54431 -0.35277,-1.54431 -0.60116,0 -0.41174,3.23069 0.23106,3.94098 0.66695,0.73697 1.89718,0.84523 2.5206,0.2218 z m 4.83306,0.0706 c 0.13167,-0.21306 -0.34912,-0.35278 -1.21391,-0.35278 -1.19674,0 -1.43193,-0.11588 -1.43193,-0.70556 0,-0.57116 0.23519,-0.70555 1.23472,-0.70555 0.6791,0 1.23473,-0.15875 1.23473,-0.35278 0,-0.19403 -0.55563,-0.35278 -1.23473,-0.35278 -0.86234,0 -1.23472,-0.15959 -1.23472,-0.52916 0,-0.36958 0.37238,-0.52917 1.23472,-0.52917 0.6791,0 1.23473,-0.15875 1.23473,-0.35278 0,-0.19403 -0.71438,-0.35278 -1.5875,-0.35278 h -1.5875 v 2.29306 2.29305 h 1.56668 c 0.86167,0 1.66479,-0.15875 1.78471,-0.35277 z m -37.57084,-2.11667 c 0,-0.62716 -0.23518,-0.70556 -2.11667,-0.70556 h -2.11666 v -1.05833 c 0,-1.04764 0.0196,-1.05833 1.94028,-1.05833 1.70509,0 1.94027,-0.0855 1.94027,-0.70556 0,-0.62003 -0.23518,-0.70555 -1.94027,-0.70555 -1.83445,0 -1.94028,-0.0481 -1.94028,-0.88195 0,-0.84274 0.0941,-0.88194 2.11666,-0.88194 1.88149,0 2.11667,-0.0784 2.11667,-0.70556 0,-0.65022 -0.23518,-0.70555 -2.99861,-0.70555 h -2.99861 v 4.05694 4.05695 h 2.99861 c 2.76343,0 2.99861,-0.0553 2.99861,-0.70556 z m 69.49722,-1.05833 v -1.76389 h 1.5875 c 1.35232,0 1.5875,-0.10453 1.5875,-0.70556 0,-0.60103 -0.23518,-0.70555 -1.5875,-0.70555 -1.45814,0 -1.5875,-0.0719 -1.5875,-0.88195 0,-0.83384 0.10584,-0.88194 1.94028,-0.88194 1.70509,0 1.94028,-0.0855 1.94028,-0.70556 0,-0.65022 -0.23519,-0.70555 -2.99861,-0.70555 h -2.99861 v 4.05694 4.05695 h 1.05833 c 1.03482,0 1.05833,-0.0392 1.05833,-1.76389 z m -34.15053,-8.29028 c -0.10917,-2.07988 -0.0357,-2.99861 0.23963,-2.99861 0.24532,0 0.39702,0.73033 0.39702,1.91142 0,1.05129 0.0964,2.16254 0.21413,2.46945 0.25963,0.6766 2.55737,0.77336 2.77944,0.11704 0.0821,-0.24253 0.19615,-2.20796 0.25352,-4.36761 l 0.10429,-3.92665 -1.22987,-0.83585 c -2.10804,-1.43268 -2.11654,-1.43569 -2.34877,-0.8305 -0.14448,0.37649 0.22042,1.02473 1.06191,1.88649 1.2755,1.30623 1.28201,1.32851 1.28201,4.38483 0,1.81277 -0.1446,3.07193 -0.35278,3.07193 -0.19402,0 -0.35277,-0.86014 -0.35277,-1.91142 0,-2.4543 -0.23786,-3.02746 -1.25635,-3.02746 -0.77684,0 -0.83454,-0.14737 -0.9324,-2.38125 l -0.10431,-2.38125 h -3.35139 -3.35139 l -0.0984,5.10781 c -0.0541,2.8093 -0.25254,5.26199 -0.44097,5.45042 -0.18843,0.18843 -0.3426,0.54897 -0.3426,0.80121 0,0.34929 0.952,0.45861 3.9937,0.45861 h 3.99371 z m -5.71335,-5.99722 v -1.94028 h 2.11666 2.11667 v 1.94028 1.94028 h -2.11667 -2.11666 z m 3.08589,-21.96042 c 0.62265,-1.11566 1.69669,-3.03336 2.38676,-4.26156 1.02034,-1.81601 1.13829,-2.21068 0.6315,-2.11308 -0.36636,0.0705 -1.53015,1.71778 -2.82392,3.99698 -2.35984,4.15727 -2.46005,4.40613 -1.77416,4.40613 0.24625,0 0.95717,-0.91281 1.57982,-2.02847 z m 5.02799,1.49931 c 0,-0.29104 -0.26273,-0.52917 -0.58384,-0.52917 -0.54327,0 -0.54327,-0.0448 0,-0.64514 0.84263,-0.9311 0.74083,-2.14137 -0.20991,-2.49534 -0.99159,-0.36918 -2.16828,0.0363 -2.31892,0.79904 -0.12888,0.65258 0.65677,0.77568 1.23841,0.19404 0.22855,-0.22855 0.46581,-0.25036 0.58718,-0.054 0.11201,0.18124 -0.26694,0.7804 -0.84213,1.33146 -1.49897,1.43611 -1.36071,1.92826 0.54171,1.92826 1.17593,0 1.5875,-0.13719 1.5875,-0.52916 z m -5.99722,-5.82084 c 0,-1.78496 -0.0967,-2.1149 -0.61736,-2.10544 -1.2873,0.0234 -2.59256,1.75267 -1.32292,1.75267 0.36958,0 0.52917,0.37237 0.52917,1.23472 0,0.99954 0.13439,1.23472 0.70556,1.23472 0.62716,0 0.70555,-0.23518 0.70555,-2.11667 z"
         id="path5" /><path
         style="display:inline;fill:#ee830a"
         d="m -296.63793,297.07097 c 0,-0.0732 0.27781,-0.35107 0.61736,-0.61736 0.55952,-0.43881 0.572,-0.42633 0.13319,0.13319 -0.46086,0.58764 -0.75055,0.77452 -0.75055,0.48417 z m -72.69122,-1.89528 -1.21573,-1.32291 1.32292,1.21573 c 1.23134,1.13157 1.48512,1.4301 1.21573,1.4301 -0.0589,0 -0.65426,-0.59531 -1.32292,-1.32292 z m 75.51344,-0.92694 c 0,-0.0733 0.27781,-0.35107 0.61736,-0.61736 0.55953,-0.43881 0.572,-0.42633 0.13319,0.13319 -0.46085,0.58764 -0.75055,0.77452 -0.75055,0.48417 z m -35.91706,-25.49008 c 14.06599,-19.67508 22.21577,-30.58942 23.67089,-31.70048 0.91456,-0.69832 1.66112,-1.14334 1.65902,-0.98893 -0.023,1.68965 -2.23874,5.58564 -10.81809,19.02153 l -9.77109,15.30227 h -2.95459 -2.95459 z m 51.84776,-9.30173 c 0,-0.48506 0.0801,-0.6835 0.17794,-0.44097 0.0979,0.24254 0.0979,0.63941 0,0.88195 -0.0979,0.24253 -0.17794,0.0441 -0.17794,-0.44098 z m 0,-2.82222 c 0,-0.48507 0.0801,-0.6835 0.17794,-0.44097 0.0979,0.24254 0.0979,0.63941 0,0.88194 -0.0979,0.24254 -0.17794,0.0441 -0.17794,-0.44097 z m -22.84338,-6.79097 -0.67204,-0.79375 0.79375,0.67204 c 0.43656,0.36962 0.79375,0.72681 0.79375,0.79375 0,0.28231 -0.28392,0.0739 -0.91546,-0.67204 z m 8.27879,-28.75139 c -0.43881,-0.55952 -0.42633,-0.572 0.1332,-0.13319 0.58763,0.46086 0.77451,0.75055 0.48416,0.75055 -0.0733,0 -0.35107,-0.27781 -0.61736,-0.61736 z m -77.91889,-1.32291 c 0.65821,-0.6791 1.27612,-1.23473 1.37313,-1.23473 0.097,0 -0.36214,0.55563 -1.02035,1.23473 -0.65821,0.67909 -1.27611,1.23472 -1.37313,1.23472 -0.097,0 0.36215,-0.55563 1.02035,-1.23472 z"
         id="path4" /><path
         style="display:inline;fill:#da1c1d"
         d="m -366.4365,246.27968 -2.22123,-2.24116 2.05504,-1.83221 c 2.12551,-1.89505 7.12747,-5.4952 7.32959,-5.27546 0.0631,0.0686 0.83879,1.35456 1.72377,2.85771 l 1.60905,2.73299 -2.03325,1.38076 c -1.11828,0.75941 -2.8867,2.10925 -3.92982,2.99964 -1.04312,0.89038 -1.99003,1.61888 -2.10424,1.61888 -0.11422,0 -1.20723,-1.00852 -2.42891,-2.24115 z"
         id="path3" /><path
         style="display:inline;fill:#000000;fill-opacity:1"
         d="m -340.20599,311.48454 c -6.98432,-1.12861 -15.83829,-4.56545 -21.39605,-8.30529 -12.08057,-8.12908 -20.07868,-19.8862 -23.29236,-34.23946 -0.71825,-3.20791 -0.81872,-4.58068 -0.81027,-11.07035 0.008,-6.30164 0.12429,-7.9186 0.77706,-10.82419 1.60095,-7.12607 4.1707,-13.19476 8.10755,-19.14667 2.98269,-4.50936 9.91103,-11.50852 14.38907,-14.53615 16.82536,-11.37571 37.50048,-12.60126 55.51374,-3.29065 9.79756,5.06411 17.89956,13.16462 22.93108,22.92683 3.02665,5.87235 4.36152,9.84307 5.51473,16.40417 0.66825,3.80198 0.76148,11.84556 0.18565,16.0184 -3.08678,22.36911 -20.2931,40.76256 -42.62361,45.56438 -4.5555,0.97959 -14.69917,1.24189 -19.29659,0.49898 z m 18.91443,-1.90654 c 21.01214,-4.50507 36.62063,-20.18097 41.12398,-41.30161 0.92107,-4.3198 0.90904,-16.54233 -0.0205,-20.81389 -3.8237,-17.57155 -15.82411,-31.91778 -32.13221,-38.41341 -28.10251,-11.19342 -59.94286,3.56562 -69.53517,32.23182 -2.02443,6.04992 -2.74053,11.27923 -2.51317,18.35242 0.28387,8.83129 1.64835,14.38982 5.36907,21.87222 7.5985,15.28067 22.01061,25.79852 39.14634,28.56871 4.50995,0.72909 14.03413,0.47445 18.56165,-0.49626 z m -21.20748,-39.55284 c 0,-0.79779 3.37067,-3.90928 5.20954,-4.80896 2.34938,-1.14944 6.82961,-1.5254 8.98842,-0.75427 l 1.32157,0.47207 -1.97834,2.72953 -1.97834,2.72953 h -5.78143 c -3.77743,0 -5.78142,-0.12753 -5.78142,-0.3679 z m 17.9534,-0.24947 c 0.18664,-0.33954 0.58874,-0.93486 0.89356,-1.32291 0.54744,-0.69692 0.56503,-0.69344 1.43696,0.28425 0.48551,0.5444 0.88274,1.13971 0.88274,1.32292 0,0.18321 -0.79933,0.33311 -1.7763,0.33311 -1.5858,0 -1.73991,-0.0662 -1.43696,-0.61737 z m -14.7784,-9.41598 v -2.31388 h 1.41111 c 0.77611,0 1.41111,0.15875 1.41111,0.35278 0,0.19403 -0.47625,0.35278 -1.05833,0.35278 -0.70556,0 -1.05834,0.17639 -1.05834,0.52917 0,0.32584 0.33087,0.52916 0.86113,0.52916 0.47362,0 0.95923,0.15875 1.07915,0.35278 0.1272,0.20582 -0.23152,0.35278 -0.86112,0.35278 -0.90896,0 -1.07916,0.13581 -1.07916,0.86112 0,0.47362 -0.15875,0.95924 -0.35278,1.07916 -0.22148,0.13688 -0.35277,-0.6431 -0.35277,-2.09585 z m 4.11162,1.6271 c -0.64281,-0.71029 -0.83223,-3.94098 -0.23107,-3.94098 0.19403,0 0.35521,0.67469 0.35818,1.49931 0.007,1.80549 0.38291,2.49356 1.2716,2.32446 0.53132,-0.1011 0.68449,-0.49403 0.76991,-1.97499 0.14122,-2.44845 0.77531,-2.38377 0.77531,0.0791 0,1.54497 -0.13552,2.0004 -0.68236,2.29305 -0.98638,0.5279 -1.59913,0.45205 -2.26157,-0.27994 z m 4.00227,-1.64792 v -2.29306 h 1.5875 c 0.87312,0 1.5875,0.15875 1.5875,0.35278 0,0.19403 -0.55563,0.35278 -1.23473,0.35278 -0.86234,0 -1.23472,0.15959 -1.23472,0.52917 0,0.36957 0.37238,0.52916 1.23472,0.52916 0.6791,0 1.23473,0.15875 1.23473,0.35278 0,0.19403 -0.55563,0.35278 -1.23473,0.35278 -0.99953,0 -1.23472,0.13439 -1.23472,0.70555 0,0.58968 0.23519,0.70556 1.43193,0.70556 0.86479,0 1.34558,0.13972 1.21391,0.35278 -0.11992,0.19402 -0.92304,0.35277 -1.78471,0.35277 h -1.56668 z m 4.11574,2.05787 c -0.37806,-0.37806 -0.27068,-4.35093 0.11759,-4.35093 0.19403,0 0.35278,0.87313 0.35278,1.94028 0,1.84638 0.0437,1.94028 0.90276,1.94028 0.51201,0 0.80839,0.1527 0.68474,0.35278 -0.24493,0.3963 -1.69623,0.47923 -2.05787,0.11759 z m -44.33241,-5.58565 v -4.05694 h 2.99861 c 2.76343,0 2.99861,0.0553 2.99861,0.70555 0,0.62716 -0.23518,0.70556 -2.11667,0.70556 -2.02259,0 -2.11666,0.0392 -2.11666,0.88194 0,0.83384 0.10583,0.88195 1.94028,0.88195 1.70509,0 1.94027,0.0855 1.94027,0.70555 0,0.62004 -0.23518,0.70556 -1.94027,0.70556 -1.92068,0 -1.94028,0.0107 -1.94028,1.05833 v 1.05833 h 2.11666 c 1.88149,0 2.11667,0.0784 2.11667,0.70556 0,0.65022 -0.23518,0.70556 -2.99861,0.70556 h -2.99861 z m 73.62784,3.83664 c -0.13753,-0.13753 -0.25006,-1.96986 -0.25006,-4.07182 v -3.82176 h 2.99861 c 2.76342,0 2.99861,0.0553 2.99861,0.70555 0,0.62004 -0.23519,0.70556 -1.94028,0.70556 -1.83444,0 -1.94028,0.0481 -1.94028,0.88194 0,0.81008 0.12935,0.88195 1.5875,0.88195 1.35232,0 1.5875,0.10452 1.5875,0.70555 0,0.59974 -0.23518,0.70556 -1.56817,0.70556 h -1.56817 l -0.10752,1.67569 c -0.0882,1.3751 -0.2367,1.69419 -0.8276,1.77877 -0.39604,0.0567 -0.8326,-0.009 -0.97014,-0.14699 z m -39.96194,-7.22747 c -0.13332,-0.21572 -0.0677,-0.50016 0.14572,-0.63209 0.24684,-0.15256 0.42381,-2.16069 0.48617,-5.51681 l 0.098,-5.27693 3.14517,-0.10278 c 2.27822,-0.0745 3.22483,0.0228 3.43418,0.35277 0.15896,0.25056 0.29145,1.36837 0.29442,2.48403 0.005,1.90283 0.0577,2.02848 0.8496,2.02848 1.03484,0 1.27247,0.56536 1.27247,3.02746 0,1.05128 0.15875,1.91142 0.35277,1.91142 0.20847,0 0.35278,-1.27045 0.35278,-3.10579 0,-3.08635 -0.008,-3.11329 -1.23472,-4.30254 -2.15055,-2.08439 -1.35906,-2.89582 1.0936,-1.12114 l 1.37584,0.99553 -0.17639,4.20794 -0.17638,4.20795 -0.99148,0.11368 c -1.55074,0.17782 -2.00714,-0.45947 -2.00714,-2.80271 0,-1.30116 -0.14787,-2.07347 -0.39701,-2.07347 -0.27538,0 -0.3488,0.91873 -0.23963,2.99861 l 0.15738,2.99861 h -3.79649 c -2.40498,0 -3.88534,-0.14376 -4.0389,-0.39222 z m 6.19799,-8.60361 v -1.94028 h -2.11667 -2.11667 v 1.94028 1.94028 h 2.11667 2.11667 z m -36.315,2.13785 c -3.22033,-3.23133 -3.6123,-3.75304 -3.19633,-4.25425 0.42203,-0.50852 0.83443,-0.21246 3.75412,2.69509 l 3.28001,3.26637 1.33374,-1.12976 c 2.61001,-2.21085 8.07046,-5.98731 10.23541,-7.07885 l 2.1989,-1.10864 -0.6913,-1.75385 c -0.67534,-1.71334 -0.67597,-1.76205 -0.0275,-2.10911 0.58282,-0.31191 0.74209,-0.13756 1.30547,1.42916 0.72851,2.02592 0.34365,1.98306 5.10828,0.56883 2.72708,-0.80945 5.02358,-1.22357 10.28016,-1.85378 l 1.67569,-0.2009 v -4.5645 c 0,-4.32931 0.0364,-4.5645 0.70556,-4.5645 0.6692,0 0.70556,0.23519 0.70556,4.5645 v 4.5645 l 1.67569,0.19345 c 4.61538,0.53285 9.10608,1.37657 11.43411,2.14827 1.42384,0.47197 2.76568,0.86227 2.98185,0.86732 0.21618,0.005 0.66587,-0.70519 0.99932,-1.57831 0.42723,-1.11868 0.80602,-1.5875 1.28265,-1.5875 0.84616,0 0.84426,0.25539 -0.0168,2.26414 l -0.69316,1.61709 1.75149,0.88755 c 0.96332,0.48815 1.7515,1.03425 1.7515,1.21356 0,0.8225 -0.96135,0.67344 -3.97867,-0.6169 -6.0545,-2.58916 -11.07988,-3.60155 -17.8776,-3.60155 -11.44259,0 -21.98679,4.00852 -29.82067,11.33672 -1.21637,1.13786 -2.27356,2.06883 -2.34932,2.06883 -0.0757,0 -1.78943,-1.65734 -3.80818,-3.68298 z m 65.60061,1.35679 c -1.45242,-1.26517 -3.31745,-2.72779 -4.1445,-3.25026 -1.4942,-0.94391 -1.84837,-1.57803 -1.1295,-2.02231 0.46961,-0.29024 3.43652,1.66687 5.91192,3.89978 l 1.87769,1.69375 3.26522,-3.25164 c 2.91248,-2.90036 3.31664,-3.18968 3.74123,-2.67808 0.41855,0.50432 0.0319,1.0163 -3.20264,4.24132 l -3.67864,3.66777 z m -32.45318,-23.69117 c 0.0202,-0.71886 4.56929,-8.04066 5.05615,-8.13792 0.37865,-0.0756 -0.21137,1.27348 -1.80992,4.13851 -1.30445,2.3379 -2.57016,4.25372 -2.81269,4.25736 -0.24253,0.004 -0.43763,-0.11243 -0.43354,-0.25795 z m 3.87312,-0.15959 c 0,-0.2333 0.50509,-0.9453 1.12242,-1.58222 1.19536,-1.2333 1.18759,-1.86842 -0.0137,-1.11821 -0.846,0.52833 -1.22074,0.29921 -0.89576,-0.54769 0.3585,-0.93422 2.75031,-0.63231 2.89261,0.36513 0.0588,0.41238 -0.13961,0.99635 -0.44097,1.29772 -0.68821,0.6882 -0.6934,0.95111 -0.0188,0.95111 0.29105,0 0.52917,0.23813 0.52917,0.52917 0,0.39197 -0.41157,0.52916 -1.5875,0.52916 -1.00129,0 -1.5875,-0.15663 -1.5875,-0.42417 z m -4.23333,-5.18333 c 0,-1.12254 -0.11258,-1.38271 -0.52917,-1.22285 -0.29599,0.11359 -0.52916,0.009 -0.52916,-0.23676 0,-0.57966 1.07003,-1.3742 1.86969,-1.38833 0.55101,-0.01 0.62097,0.25653 0.52916,2.01382 -0.0835,1.5974 -0.23617,2.04986 -0.72316,2.14253 -0.50551,0.0962 -0.61736,-0.14083 -0.61736,-1.30841 z"
         id="path2" /></g><g
       id="g13"
       transform="translate(-393.91341,-14.268083)"><rect
         style="fill:#000000;fill-opacity:0.996586;stroke:none;stroke-width:0.2"
         id="rect11"
         width="173.58569"
         height="6.9405999"
         x="11.718865"
         y="152.56932" /><rect
         style="fill:#93a2b4;fill-opacity:1;stroke:none;stroke-width:0.2"
         id="rect12"
         width="173.58569"
         height="3.2959299"
         x="11.718865"
         y="162.16498" /><rect
         style="fill:#1b589d;fill-opacity:1;stroke:none;stroke-width:0.2"
         id="rect13"
         width="173.58569"
         height="5.3443499"
         x="11.718865"
         y="167.74974" /></g><g
       id="g7"
       transform="translate(-167.11273,-54.351424)"><rect
         style="fill:#000000;fill-opacity:0.996586;stroke:none;stroke-width:0.2"
         id="rect5"
         width="173.58569"
         height="6.9405999"
         x="11.718865"
         y="152.56932" /><rect
         style="fill:#93a2b4;fill-opacity:1;stroke:none;stroke-width:0.2"
         id="rect6"
         width="173.58569"
         height="3.2959299"
         x="11.718865"
         y="162.16498" /><rect
         style="fill:#1b589d;fill-opacity:1;stroke:none;stroke-width:0.2"
         id="rect7"
         width="173.58569"
         height="5.3443499"
         x="11.718865"
         y="167.74974" /></g><rect
       style="display:inline;fill:#0000f1;fill-opacity:1;stroke-width:0.162545"
       id="rect8"
       width="2"
       height="157.66846"
       x="149.88104"
       y="140.05658"
       transform="rotate(60)" /><rect
       style="display:inline;fill:#0000f1;fill-opacity:1;stroke-width:0.162545"
       id="rect9"
       width="2"
       height="157.66846"
       x="-266.00552"
       y="-57.612816"
       transform="rotate(-60)" /><rect
       style="display:inline;fill:#0000f1;fill-opacity:1;stroke-width:0.162545"
       id="rect10"
       width="2"
       height="157.66846"
       x="20.221413"
       y="186.17128"
       transform="rotate(30)" /><rect
       style="display:inline;fill:#0000f1;fill-opacity:1;stroke-width:0.162545"
       id="rect14"
       width="2"
       height="157.66846"
       x="-219.89079"
       y="72.046814"
       transform="rotate(-30)" /><path
       inkscape:connector-curvature="0"
       id="path14"
       style="fill:none;fill-opacity:1;stroke:#0000f1;stroke-width:0.975703;stroke-dasharray:none;stroke-opacity:1"
       d="m -57.592955,240.11221 a 56.017533,56.017533 0 0 1 -56.017555,56.01753 56.017533,56.017533 0 0 1 -56.01753,-56.01753 56.017533,56.017533 0 0 1 56.01753,-56.01754 56.017533,56.017533 0 0 1 56.017555,56.01754 z m 5.12676,0 a 61.144306,61.144306 0 0 1 -61.144315,61.1443 61.144306,61.144306 0 0 1 -61.1443,-61.1443 61.144306,61.144306 0 0 1 61.1443,-61.14431 61.144306,61.144306 0 0 1 61.144315,61.14431 z" /><g
       id="g17"
       transform="translate(263.36186,268.44639)"><rect
         style="fill:#000000;fill-opacity:0.996586;stroke:none;stroke-width:0.2"
         id="rect15"
         width="173.58569"
         height="6.9405999"
         x="11.718865"
         y="152.56932" /><rect
         style="fill:#93a2b4;fill-opacity:1;stroke:none;stroke-width:0.2"
         id="rect16"
         width="173.58569"
         height="3.2959299"
         x="11.718865"
         y="162.16498" /><rect
         style="fill:#1b589d;fill-opacity:1;stroke:none;stroke-width:0.2"
         id="rect17"
         width="173.58569"
         height="5.3443499"
         x="11.718865"
         y="167.74974" /></g><path
       d="m -45.351122,489.07379 c 0,0 0,-5.2e-4 0,-5.2e-4 l -45.3285,26.1705 -0.52348,-0.30179 v 5.1e-4 l 0.52348,0.30179 z"
       style="baseline-shift:baseline;display:inline;overflow:visible;vector-effect:none;fill:#1b589d;enable-background:accumulate;stop-color:#000000;stop-opacity:1"
       id="path221" /><path
       d="m -46.190342,487.44185 c 0.31402,0.52243 0.54251,1.09771 0.83922,1.63142 l 0.078,-0.045 c -0.29704,-0.53435 -0.60284,-1.06341 -0.91725,-1.58646 z"
       style="baseline-shift:baseline;display:inline;overflow:visible;vector-effect:none;fill:#1b589d;enable-background:accumulate;stop-color:#000000;stop-opacity:1"
       id="path214" /><path
       d="m -64.824862,468.9267 -25.184,43.62007 h 5.2e-4 z"
       style="baseline-shift:baseline;display:inline;overflow:visible;vector-effect:none;fill:#1b589d;enable-background:accumulate;stop-color:#000000;stop-opacity:1"
       id="path209" /><path
       d="m -66.368962,467.93141 c 0.53724,0.29868 1.01829,0.67907 1.5441,0.99529 l 0.0439,-0.0765 c -0.52378,-0.31491 -1.05289,-0.6213 -1.58802,-0.91881 z"
       style="baseline-shift:baseline;display:inline;overflow:visible;vector-effect:none;fill:#1b589d;enable-background:accumulate;stop-color:#000000;stop-opacity:1"
       id="path206" /><path
       d="m -92.680532,513.17568 v 5.1e-4 h 5.2e-4 l 0.91881,-1.59266 v -50.44189 c 0,0 -5.2e-4,0 -5.2e-4,0 v 50.44189 z"
       style="baseline-shift:baseline;display:inline;overflow:visible;vector-effect:none;fill:#1b589d;enable-background:accumulate;stop-color:#000000;stop-opacity:1"
       id="path202" /><path
       d="m -140.04404,489.0526 45.364148,26.19168 0.52245,-0.30179 v -5.1e-4 l -0.52245,0.30179 z"
       style="baseline-shift:baseline;display:inline;overflow:visible;vector-effect:none;fill:#1b589d;enable-background:accumulate;stop-color:#000000;stop-opacity:1"
       id="path199" /><path
       d="m -139.69988,488.35807 c -0.12847,0.2235 -0.2622,0.44371 -0.38757,0.66921 l 0.0434,0.0253 c 0.12523,-0.22526 0.21582,-0.47126 0.34416,-0.69453 z"
       style="baseline-shift:baseline;display:inline;overflow:visible;vector-effect:none;fill:#1b589d;enable-background:accumulate;stop-color:#000000;stop-opacity:1"
       id="path198" /><path
       d="m -139.12369,487.46355 -0.0444,-0.0253 c -0.13863,0.23056 -0.26937,0.46641 -0.40463,0.69918 0.13609,-0.23417 0.3096,-0.44193 0.44907,-0.67386 z"
       style="baseline-shift:baseline;display:inline;overflow:visible;vector-effect:none;fill:#1b589d;enable-background:accumulate;stop-color:#000000;stop-opacity:1"
       id="path197" /><path
       d="m -93.598822,461.18557 5.2e-4,50.40054 0.91777,1.58957 -0.91725,-1.58957 z"
       style="baseline-shift:baseline;display:inline;overflow:visible;vector-effect:none;fill:#1b589d;enable-background:accumulate;stop-color:#000000;stop-opacity:1"
       id="path185" /><path
       d="m -92.825222,461.13389 c -0.25827,7.8e-4 -0.51623,0.004 -0.7736,0.008 v 0.0439 c 0.26128,-0.004 0.51143,-0.051 0.7736,-0.0517 z"
       style="baseline-shift:baseline;display:inline;overflow:visible;vector-effect:none;fill:#1b589d;enable-background:accumulate;stop-color:#000000;stop-opacity:1"
       id="path184" /><path
       d="m -43.860252,487.78705 c 0.0606,0.10715 0.12508,0.2118 0.185,0.31936 l 5.2e-4,-5.2e-4 c -0.0599,-0.10753 -0.12493,-0.21175 -0.18552,-0.31884 z"
       style="baseline-shift:baseline;display:inline;overflow:visible;vector-effect:none;fill:#1b589d;enable-background:accumulate;stop-color:#000000;stop-opacity:1"
       id="path182" /><path
       d="m -44.679322,486.3768 c 0.28112,0.46479 0.55119,0.93677 0.81907,1.41025 -0.24115,-0.4265 -0.48337,-0.85242 -0.73536,-1.27176 -0.0278,-0.0463 -0.0557,-0.0923 -0.0837,-0.13849 z"
       style="baseline-shift:baseline;display:inline;overflow:visible;vector-effect:none;fill:#1b589d;enable-background:accumulate;stop-color:#000000;stop-opacity:1"
       id="path181" /><path
       d="m -125.46199,460.39647 3.95893,6.85746 c 0.1209,-0.0727 0.2449,-0.14061 0.36639,-0.21239 0.055,-0.0325 0.11073,-0.0633 0.16588,-0.0956 0.3516,-0.20613 0.70191,-0.4143 1.05833,-0.61288 l -3.95841,-6.85695 c -0.53516,0.29938 -1.06559,0.60618 -1.59112,0.92036 z"
       style="baseline-shift:baseline;display:inline;overflow:visible;vector-effect:none;fill:#1b589d;enable-background:accumulate;stop-color:#000000;stop-opacity:1"
       id="path174" /><path
       d="m -147.45238,482.46644 6.77272,3.90984 c 4.80873,-7.95003 11.53921,-14.6067 19.54299,-19.33474 -0.12149,0.0718 -0.24549,0.13974 -0.36639,0.21239 -0.0464,0.0279 -0.0927,0.0557 -0.13901,0.0837 l -3.95945,-6.85746 c -8.98319,5.40149 -16.44804,13.00404 -21.85086,21.98625 z"
       style="baseline-shift:baseline;display:inline;overflow:visible;vector-effect:none;fill:#1b589d;enable-background:accumulate;stop-color:#000000;stop-opacity:1"
       id="path172" /><path
       d="m -148.54223,484.14644 6.85798,3.95945 c 0.29812,-0.53512 0.60488,-1.06488 0.91984,-1.58905 l -6.77737,-3.91346 c -0.31531,0.52726 -0.70004,1.0061 -1.00045,1.54306 z"
       style="baseline-shift:baseline;display:inline;overflow:visible;vector-effect:none;fill:#1b589d;enable-background:accumulate;stop-color:#000000;stop-opacity:1"
       id="path169" /><path
       d="m -148.54223,484.14644 c 0.30041,-0.53696 0.68514,-1.0158 1.00045,-1.54306 l -0.0806,-0.0465 c -0.31386,0.52497 -0.62076,1.055 -0.91984,1.58957 z"
       style="baseline-shift:baseline;display:inline;overflow:visible;vector-effect:none;fill:#1b589d;enable-background:accumulate;stop-color:#000000;stop-opacity:1"
       id="path168" /><path
       d="m -37.740732,482.55739 -6.85488,3.9579 c 0.25199,0.41934 0.49421,0.84526 0.73536,1.27176 0.0606,0.10709 0.12561,0.21131 0.18552,0.31884 l 6.85436,-3.95738 c -0.29938,-0.53516 -0.60618,-1.06559 -0.92036,-1.59112 z"
       style="baseline-shift:baseline;display:inline;overflow:visible;vector-effect:none;fill:#1b589d;enable-background:accumulate;stop-color:#000000;stop-opacity:1"
       id="path133" /><path
       d="m -37.740732,482.55739 c 0.31418,0.52553 0.62098,1.05596 0.92036,1.59112 l 0.002,-10e-4 c -0.29933,-0.53504 -0.60626,-1.0657 -0.92036,-1.59111 z"
       style="baseline-shift:baseline;display:inline;overflow:visible;vector-effect:none;fill:#1b589d;enable-background:accumulate;stop-color:#000000;stop-opacity:1"
       id="path132" /><path
       d="m -61.489672,459.47818 -3.95738,6.85488 c 0.53514,0.29815 1.06487,0.60485 1.58905,0.91984 l 3.9579,-6.85488 c -0.52506,-0.3139 -1.05488,-0.62071 -1.58957,-0.91984 z"
       style="baseline-shift:baseline;display:inline;overflow:visible;vector-effect:none;fill:#1b589d;enable-background:accumulate;stop-color:#000000;stop-opacity:1"
       id="path126" /><path
       d="m -61.489672,459.47818 c 0.53469,0.29913 1.06451,0.60594 1.58957,0.91984 l 10e-4,-0.002 c -0.52489,-0.31378 -1.05454,-0.62029 -1.58905,-0.91932 h -5.1e-4 z"
       style="baseline-shift:baseline;display:inline;overflow:visible;vector-effect:none;fill:#1b589d;enable-background:accumulate;stop-color:#000000;stop-opacity:1"
       id="path125" /><path
       d="m -92.679492,451.37221 c -0.30698,0 -0.61338,0.002 -0.91933,0.007 v 7.90856 c 0.30586,-0.005 0.6123,-0.007 0.91933,-0.007 0.3065,0 0.61243,0.002 0.91777,0.007 v -7.90907 c -0.30541,-0.004 -0.61134,-0.006 -0.91777,-0.006 z"
       style="baseline-shift:baseline;display:inline;overflow:visible;vector-effect:none;fill:#1b589d;enable-background:accumulate;stop-color:#000000;stop-opacity:1"
       id="path120" /><path
       d="m -92.679492,451.37221 v 5.2e-4 c 0.30643,0 0.61236,0.002 0.91777,0.006 -0.30541,-0.004 -0.61134,-0.006 -0.91777,-0.006 z"
       style="baseline-shift:baseline;display:inline;overflow:visible;vector-effect:none;fill:#1b589d;enable-background:accumulate;stop-color:#000000;stop-opacity:1"
       id="path119" /><path
       d="m -154.15326,479.69865 c 0.133,-0.22896 0.30428,-0.43102 0.43977,-0.65836 l -0.0439,-0.0253 c -0.13469,0.22603 -0.26353,0.45602 -0.39584,0.68368 z"
       style="baseline-shift:baseline;display:inline;overflow:visible;vector-effect:none;fill:#1b589d;enable-background:accumulate;stop-color:#000000;stop-opacity:1"
       id="path116" /><path
       d="m -154.67726,480.60454 0.0475,0.0274 c 0.13999,-0.24938 0.23951,-0.523 0.38241,-0.7705 -0.14316,0.24783 -0.2898,0.49343 -0.42995,0.74311 z"
       style="baseline-shift:baseline;display:inline;overflow:visible;vector-effect:none;fill:#1b589d;enable-background:accumulate;stop-color:#000000;stop-opacity:1"
       id="path115" /><path
       d="m -57.945702,453.34005 -0.001,0.002 c 0.53413,0.29984 1.06512,0.60465 1.5906,0.91778 -0.52538,-0.31307 -1.05553,-0.61955 -1.58957,-0.91933 z"
       style="baseline-shift:baseline;display:inline;overflow:visible;vector-effect:none;fill:#1b589d;enable-background:accumulate;stop-color:#000000;stop-opacity:1"
       id="path78" /><path
       d="m -36.878772,482.06026 5.27668,-3.04684 c 0,0 0,-5.2e-4 0,-5.2e-4 l -5.27668,3.04685 z"
       style="baseline-shift:baseline;display:inline;overflow:visible;vector-effect:none;fill:#1b589d;enable-background:accumulate;stop-color:#000000;stop-opacity:1"
       id="path70" /><path
       d="m -35.958412,483.65035 5.27668,-3.04633 c -0.30006,-0.53455 -0.60698,-1.06472 -0.92036,-1.5906 l -5.27668,3.04684 c 0.31404,0.52534 0.62088,1.05528 0.92036,1.59009 z"
       style="baseline-shift:baseline;display:inline;overflow:visible;vector-effect:none;fill:#1b589d;enable-background:accumulate;stop-color:#000000;stop-opacity:1"
       id="path69" /><path
       d="m -35.958412,483.65086 5.27668,-3.04632 c 0,0 0,-5.2e-4 0,-5.2e-4 l -5.27668,3.04633 z"
       style="baseline-shift:baseline;display:inline;overflow:visible;vector-effect:none;fill:#1b589d;enable-background:accumulate;stop-color:#000000;stop-opacity:1"
       id="path68" /><path
       d="m -148.48074,482.0613 -5.23275,-3.02101 c -0.13549,0.22734 -0.30677,0.4294 -0.43977,0.65836 -0.0315,0.0542 -0.0627,0.10851 -0.094,0.16278 -0.1429,0.2475 -0.24242,0.52112 -0.38241,0.7705 l 5.22914,3.01893 c 0.29926,-0.53442 0.60604,-1.06459 0.91984,-1.58956 z"
       style="baseline-shift:baseline;display:inline;overflow:visible;vector-effect:none;fill:#1b589d;enable-background:accumulate;stop-color:#000000;stop-opacity:1"
       id="path64" /><path
       d="m -92.679492,444.28841 c -0.30688,0 -0.61338,0.002 -0.91933,0.006 v 6.088 c 0.30594,-0.004 0.61238,-0.006 0.91933,-0.006 0.30642,0 0.61235,0.002 0.91777,0.006 v -6.088 c -0.30546,-0.004 -0.61139,-0.006 -0.91777,-0.006 z"
       style="baseline-shift:baseline;display:inline;overflow:visible;vector-effect:none;fill:#1b589d;enable-background:accumulate;stop-color:#000000;stop-opacity:1"
       id="path53" /><path
       d="m -92.679492,444.28841 c 0.30638,0 0.61231,0.002 0.91777,0.006 v -5.2e-4 c -0.30546,-0.004 -0.61139,-0.006 -0.91777,-0.006 z"
       style="baseline-shift:baseline;display:inline;overflow:visible;vector-effect:none;fill:#1b589d;enable-background:accumulate;stop-color:#000000;stop-opacity:1"
       id="path52" /><path
       d="m -93.598822,443.18873 c 0.30599,-0.004 0.61243,-0.006 0.91933,-0.006 0.30637,0 0.6123,0.002 0.91777,0.006 -0.30547,-0.004 -0.6114,-0.006 -0.91777,-0.006 -0.30688,0 -0.61336,0.002 -0.91933,0.006 z"
       style="baseline-shift:baseline;display:inline;overflow:visible;vector-effect:none;fill:#1b589d;enable-background:accumulate;stop-color:#000000;stop-opacity:1"
       id="path51" /><path
       d="m -24.019092,476.75723 -5.70921,3.29644 5.70921,-3.29593 z"
       style="baseline-shift:baseline;display:inline;overflow:visible;vector-effect:none;fill:#1b589d;enable-background:accumulate;stop-color:#000000;stop-opacity:1"
       id="path45" /><path
       d="m -30.649172,478.46358 5.71128,-3.29747 v -5.2e-4 l -5.71128,3.29748 z"
       style="baseline-shift:baseline;display:inline;overflow:visible;vector-effect:none;fill:#1b589d;enable-background:accumulate;stop-color:#000000;stop-opacity:1"
       id="path44" /><path
       d="m -57.537972,452.30704 c 0.58224,0.32537 1.15952,0.65853 1.73168,0.99942 -0.52541,-0.31303 -1.05514,-0.61988 -1.58905,-0.91984 -0.0475,-0.0267 -0.095,-0.053 -0.14263,-0.0796 z"
       style="baseline-shift:baseline;display:inline;overflow:visible;vector-effect:none;fill:#1b589d;enable-background:accumulate;stop-color:#000000;stop-opacity:1"
       id="path40" /><path
       d="m -45.273092,489.02883 -0.078,0.045 c 0.0261,0.047 0.0479,0.0966 0.0739,0.14366 l 0.0827,-0.0475 c -0.026,-0.0472 -0.0523,-0.094 -0.0786,-0.14108 z"
       style="baseline-shift:baseline;display:inline;overflow:visible;vector-effect:none;fill:#1b589d;enable-background:accumulate;stop-color:#000000;stop-opacity:1"
       id="path215" /><path
       d="m -64.824862,468.9267 c 0.0468,0.0282 0.0907,0.0606 0.13746,0.0889 l 0.047,-0.0811 c -0.0467,-0.0283 -0.0933,-0.0561 -0.14004,-0.0842 z"
       style="baseline-shift:baseline;display:inline;overflow:visible;vector-effect:none;fill:#1b589d;enable-background:accumulate;stop-color:#000000;stop-opacity:1"
       id="path208" /><path
       d="m -66.516752,467.8601 c 0.0474,0.0262 0.0994,0.0445 0.14676,0.0708 -0.0474,-0.0264 -0.0946,-0.0528 -0.14211,-0.0791 z"
       style="baseline-shift:baseline;display:inline;overflow:visible;vector-effect:none;fill:#1b589d;enable-background:accumulate;stop-color:#000000;stop-opacity:1"
       id="path204" /><path
       d="m -140.04404,489.0526 -0.0434,-0.0248 c -0.0263,0.0474 -0.0528,0.0946 -0.0791,0.14211 l 0.0501,0.0289 c 0.0262,-0.0475 0.046,-0.0988 0.0723,-0.14625 z"
       style="baseline-shift:baseline;display:inline;overflow:visible;vector-effect:none;fill:#1b589d;enable-background:accumulate;stop-color:#000000;stop-opacity:1"
       id="path200" /><path
       d="m -139.03274,487.32713 -0.0506,-0.0295 c -0.0283,0.0467 -0.0566,0.0933 -0.0847,0.14004 l 0.0444,0.0258 c 0.0282,-0.047 0.0626,-0.0896 0.0909,-0.13642 z"
       style="baseline-shift:baseline;display:inline;overflow:visible;vector-effect:none;fill:#1b589d;enable-background:accumulate;stop-color:#000000;stop-opacity:1"
       id="path194" /><path
       d="m -120.58632,468.85487 c -0.0445,0.0268 -0.0889,0.0533 -0.13332,0.0801 l 0.005,0.008 c 0.0446,-0.027 0.0839,-0.0615 0.12867,-0.0884 z"
       style="baseline-shift:baseline;display:inline;overflow:visible;vector-effect:none;fill:#1b589d;enable-background:accumulate;stop-color:#000000;stop-opacity:1"
       id="path192" /><path
       d="m -118.84379,467.86113 -0.005,-0.008 c -0.0472,0.0261 -0.0945,0.0519 -0.14159,0.078 0.047,-0.0262 0.0991,-0.0438 0.14624,-0.0698 z"
       style="baseline-shift:baseline;display:inline;overflow:visible;vector-effect:none;fill:#1b589d;enable-background:accumulate;stop-color:#000000;stop-opacity:1"
       id="path189" /><path
       d="m -93.598822,461.18557 v -0.0439 c -0.0542,9e-4 -0.10808,0.002 -0.16226,0.003 v 0.0517 c 0.0548,-10e-4 0.10746,-0.01 0.16226,-0.0109 z"
       style="baseline-shift:baseline;display:inline;overflow:visible;vector-effect:none;fill:#1b589d;enable-background:accumulate;stop-color:#000000;stop-opacity:1"
       id="path187" /><path
       d="m -93.761082,451.381 v 7.90959 c 0.0541,-0.001 0.10816,-0.002 0.16226,-0.003 v -7.90856 c -0.0541,7.6e-4 -0.10821,10e-4 -0.16226,0.002 z"
       style="baseline-shift:baseline;display:inline;overflow:visible;vector-effect:none;fill:#1b589d;enable-background:accumulate;stop-color:#000000;stop-opacity:1"
       id="path178" /><path
       d="m -123.87087,459.47611 3.95841,6.85695 c 0.0471,-0.0262 0.0944,-0.0523 0.1416,-0.0786 l -3.95428,-6.84868 c -0.047,0.0261 -0.0988,0.044 -0.14573,0.0703 z"
       style="baseline-shift:baseline;display:inline;overflow:visible;vector-effect:none;fill:#1b589d;enable-background:accumulate;stop-color:#000000;stop-opacity:1"
       id="path176" /><path
       d="m -123.87087,459.47611 c 0.0469,-0.0262 0.0987,-0.0442 0.14573,-0.0703 l -0.005,-0.008 c -0.0471,0.0262 -0.094,0.0521 -0.14107,0.0786 z"
       style="baseline-shift:baseline;display:inline;overflow:visible;vector-effect:none;fill:#1b589d;enable-background:accumulate;stop-color:#000000;stop-opacity:1"
       id="path175" /><path
       d="m -125.60152,460.48019 3.95945,6.85746 c 0.0463,-0.028 0.0926,-0.0558 0.13901,-0.0837 l -3.95893,-6.85746 c -0.0465,0.0278 -0.0931,0.0558 -0.13953,0.0837 z"
       style="baseline-shift:baseline;display:inline;overflow:visible;vector-effect:none;fill:#1b589d;enable-background:accumulate;stop-color:#000000;stop-opacity:1"
       id="path173" /><path
       d="m -147.54178,482.60338 6.77737,3.91346 c 0.0281,-0.0468 0.0565,-0.0939 0.0848,-0.14056 l -6.77272,-3.90984 c -0.0282,0.0468 -0.0614,0.09 -0.0894,0.13694 z"
       style="baseline-shift:baseline;display:inline;overflow:visible;vector-effect:none;fill:#1b589d;enable-background:accumulate;stop-color:#000000;stop-opacity:1"
       id="path171" /><path
       d="m -147.54178,482.60338 c 0.028,-0.0469 0.0612,-0.0901 0.0894,-0.13694 l -0.0858,-0.0496 c -0.0281,0.0468 -0.0562,0.0932 -0.0842,0.14004 z"
       style="baseline-shift:baseline;display:inline;overflow:visible;vector-effect:none;fill:#1b589d;enable-background:accumulate;stop-color:#000000;stop-opacity:1"
       id="path170" /><path
       d="m -148.61303,484.29372 6.84971,3.9548 c 0.0263,-0.0476 0.0526,-0.0951 0.0791,-0.14263 l -6.85798,-3.95945 c -0.0265,0.0474 -0.0444,0.0998 -0.0708,0.14728 z"
       style="baseline-shift:baseline;display:inline;overflow:visible;vector-effect:none;fill:#1b589d;enable-background:accumulate;stop-color:#000000;stop-opacity:1"
       id="path167" /><path
       d="m -148.61303,484.29372 c 0.0264,-0.0475 0.0443,-0.0999 0.0708,-0.14728 -0.0266,0.0475 -0.0526,0.0951 -0.0791,0.14263 z"
       style="baseline-shift:baseline;display:inline;overflow:visible;vector-effect:none;fill:#1b589d;enable-background:accumulate;stop-color:#000000;stop-opacity:1"
       id="path166" /><path
       d="m -36.820372,484.14851 -6.85436,3.95738 c 0.002,0.003 0.003,0.007 0.005,0.01 0.0246,0.0441 0.0494,0.0881 0.0739,0.13229 l 6.85695,-3.95893 c -0.0263,-0.0473 -0.0547,-0.0933 -0.0811,-0.14056 z"
       style="baseline-shift:baseline;display:inline;overflow:visible;vector-effect:none;fill:#1b589d;enable-background:accumulate;stop-color:#000000;stop-opacity:1"
       id="path135" /><path
       d="m -36.820372,484.14851 c 0.0264,0.0473 0.0548,0.0932 0.0811,0.14056 -0.0263,-0.0472 -0.0527,-0.0944 -0.0791,-0.1416 z"
       style="baseline-shift:baseline;display:inline;overflow:visible;vector-effect:none;fill:#1b589d;enable-background:accumulate;stop-color:#000000;stop-opacity:1"
       id="path134" /><path
       d="m -37.821862,482.41735 -6.85746,3.95945 c 0.028,0.0462 0.0559,0.0922 0.0837,0.13849 l 6.85488,-3.9579 c -0.0277,-0.0463 -0.0533,-0.0938 -0.0811,-0.14004 z"
       style="baseline-shift:baseline;display:inline;overflow:visible;vector-effect:none;fill:#1b589d;enable-background:accumulate;stop-color:#000000;stop-opacity:1"
       id="path131" /><path
       d="m -37.821862,482.41735 c 0.0278,0.0462 0.0535,0.0938 0.0811,0.14004 l 0.002,-10e-4 c -0.0277,-0.0464 -0.0554,-0.0927 -0.0832,-0.13901 z"
       style="baseline-shift:baseline;display:inline;overflow:visible;vector-effect:none;fill:#1b589d;enable-background:accumulate;stop-color:#000000;stop-opacity:1"
       id="path130" /><path
       d="m -59.900102,460.39802 -3.9579,6.85488 c 0.0468,0.0281 0.0934,0.056 0.14005,0.0842 l 3.95944,-6.85746 c -0.0466,-0.0281 -0.0949,-0.0537 -0.14159,-0.0816 z"
       style="baseline-shift:baseline;display:inline;overflow:visible;vector-effect:none;fill:#1b589d;enable-background:accumulate;stop-color:#000000;stop-opacity:1"
       id="path128" /><path
       d="m -59.900102,460.39802 c 0.0467,0.0279 0.0949,0.0536 0.14159,0.0816 -0.0468,-0.0281 -0.0937,-0.0557 -0.14056,-0.0837 z"
       style="baseline-shift:baseline;display:inline;overflow:visible;vector-effect:none;fill:#1b589d;enable-background:accumulate;stop-color:#000000;stop-opacity:1"
       id="path127" /><path
       d="m -61.631262,459.39653 -3.95893,6.85695 c 0.0477,0.0264 0.0955,0.053 0.14314,0.0796 l 3.95738,-6.85488 c -0.0476,-0.0266 -0.0939,-0.0552 -0.14159,-0.0817 z"
       style="baseline-shift:baseline;display:inline;overflow:visible;vector-effect:none;fill:#1b589d;enable-background:accumulate;stop-color:#000000;stop-opacity:1"
       id="path124" /><path
       d="m -61.631262,459.39653 c 0.0477,0.0265 0.094,0.055 0.14159,0.0817 l 10e-4,-0.002 c -0.0475,-0.0266 -0.0951,-0.0537 -0.14263,-0.0801 z"
       style="baseline-shift:baseline;display:inline;overflow:visible;vector-effect:none;fill:#1b589d;enable-background:accumulate;stop-color:#000000;stop-opacity:1"
       id="path123" /><path
       d="m -91.761722,451.37842 v 7.90907 c 0.0541,8.7e-4 0.1082,0.002 0.16226,0.003 v -7.90959 c -0.0541,-9e-4 -0.10816,-0.002 -0.16226,-0.003 z"
       style="baseline-shift:baseline;display:inline;overflow:visible;vector-effect:none;fill:#1b589d;enable-background:accumulate;stop-color:#000000;stop-opacity:1"
       id="path121" /><path
       d="m -93.761082,444.30339 c 0.0376,-5.6e-4 0.0735,-0.008 0.1111,-0.008 -0.037,6.7e-4 -0.0741,10e-4 -0.1111,0.002 z"
       style="baseline-shift:baseline;display:inline;overflow:visible;vector-effect:none;fill:#1b589d;enable-background:accumulate;stop-color:#000000;stop-opacity:1"
       id="path118" /><path
       d="m -153.75742,479.01497 0.0439,0.0253 c 0.0281,-0.0471 0.0628,-0.0894 0.091,-0.13642 l -0.0512,-0.0295 c -0.0281,0.0469 -0.0558,0.0936 -0.0837,0.14056 z"
       style="baseline-shift:baseline;display:inline;overflow:visible;vector-effect:none;fill:#1b589d;enable-background:accumulate;stop-color:#000000;stop-opacity:1"
       id="path117" /><path
       d="m -154.70206,480.77817 c 0.0264,-0.0474 0.0458,-0.0989 0.0723,-0.14624 l -0.0475,-0.0274 c -0.0266,0.0474 -0.0531,0.0946 -0.0796,0.14211 z"
       style="baseline-shift:baseline;display:inline;overflow:visible;vector-effect:none;fill:#1b589d;enable-background:accumulate;stop-color:#000000;stop-opacity:1"
       id="path114" /><path
       d="m -30.679662,480.60764 c 0.0258,0.046 0.043,0.0971 0.0687,0.14314 l 0.008,-0.005 c -0.0257,-0.0461 -0.0511,-0.0925 -0.077,-0.13849 z"
       style="baseline-shift:baseline;display:inline;overflow:visible;vector-effect:none;fill:#1b589d;enable-background:accumulate;stop-color:#000000;stop-opacity:1"
       id="path82" /><path
       d="m -31.693552,478.87906 c 0.0279,0.0465 0.0637,0.0873 0.0915,0.13384 -0.0276,-0.0463 -0.0555,-0.0922 -0.0832,-0.13849 z"
       style="baseline-shift:baseline;display:inline;overflow:visible;vector-effect:none;fill:#1b589d;enable-background:accumulate;stop-color:#000000;stop-opacity:1"
       id="path81" /><path
       d="m -91.761722,444.29409 c 0.055,7e-4 0.10729,0.0116 0.16226,0.0124 v -0.009 c -0.0541,-8.1e-4 -0.10816,-0.002 -0.16226,-0.003 z"
       style="baseline-shift:baseline;display:inline;overflow:visible;vector-effect:none;fill:#1b589d;enable-background:accumulate;stop-color:#000000;stop-opacity:1"
       id="path80" /><path
       d="m -91.599462,450.38519 v -6.07869 c -0.055,-8.3e-4 -0.10726,-0.0117 -0.16226,-0.0124 v 6.08852 c 0.0541,7.5e-4 0.10819,0.002 0.16226,0.003 z"
       style="baseline-shift:baseline;display:inline;overflow:visible;vector-effect:none;fill:#1b589d;enable-background:accumulate;stop-color:#000000;stop-opacity:1"
       id="path79" /><path
       d="m -58.088322,453.25995 c 0.0476,0.0266 0.094,0.055 0.14159,0.0817 l 10e-4,-0.002 c -0.0475,-0.0267 -0.095,-0.0535 -0.14262,-0.0801 z"
       style="baseline-shift:baseline;display:inline;overflow:visible;vector-effect:none;fill:#1b589d;enable-background:accumulate;stop-color:#000000;stop-opacity:1"
       id="path77" /><path
       d="m -36.878772,482.05975 5.27668,-3.04685 c -0.0277,-0.0466 -0.0636,-0.0873 -0.0915,-0.13384 l -5.26841,3.04168 c 0.0278,0.0462 0.0555,0.0927 0.0832,0.13901 z"
       style="baseline-shift:baseline;display:inline;overflow:visible;vector-effect:none;fill:#1b589d;enable-background:accumulate;stop-color:#000000;stop-opacity:1"
       id="path71" /><path
       d="m -35.879342,483.79246 5.26841,-3.04168 c -0.0263,-0.0471 -0.0444,-0.0992 -0.0708,-0.14624 l -5.27668,3.04632 c 0.0264,0.0472 0.0528,0.0943 0.0791,0.1416 z"
       style="baseline-shift:baseline;display:inline;overflow:visible;vector-effect:none;fill:#1b589d;enable-background:accumulate;stop-color:#000000;stop-opacity:1"
       id="path67" /><path
       d="m -149.40058,483.65086 -5.22914,-3.01893 c -0.0265,0.0473 -0.0459,0.0989 -0.0723,0.14624 l 5.2219,3.01532 c 0.0264,-0.0474 0.0531,-0.0953 0.0796,-0.14263 z"
       style="baseline-shift:baseline;display:inline;overflow:visible;vector-effect:none;fill:#1b589d;enable-background:accumulate;stop-color:#000000;stop-opacity:1"
       id="path65" /><path
       d="m -148.39702,481.92074 -5.22552,-3.01687 c -0.0282,0.047 -0.0629,0.0893 -0.091,0.13642 l 5.23275,3.02101 c 0.0279,-0.0468 0.0557,-0.0939 0.0837,-0.14056 z"
       style="baseline-shift:baseline;display:inline;overflow:visible;vector-effect:none;fill:#1b589d;enable-background:accumulate;stop-color:#000000;stop-opacity:1"
       id="path63" /><path
       d="m -93.598822,444.29461 v -5.2e-4 c -0.0548,7e-4 -0.10751,0.008 -0.16226,0.009 v 6.0818 c 0.0541,-8.8e-4 0.10816,-0.002 0.16226,-0.003 z"
       style="baseline-shift:baseline;display:inline;overflow:visible;vector-effect:none;fill:#1b589d;enable-background:accumulate;stop-color:#000000;stop-opacity:1"
       id="path55" /><path
       d="m -92.679492,444.28841 c -0.30691,0 -0.61335,0.002 -0.91933,0.006 v 5.2e-4 c 0.30595,-0.004 0.61245,-0.006 0.91933,-0.006 z"
       style="baseline-shift:baseline;display:inline;overflow:visible;opacity:1;vector-effect:none;fill:#1b589d;enable-background:accumulate;stop-color:#000000;stop-opacity:1"
       id="path54" /><path
       d="m -93.598822,450.38261 v 5.2e-4 c 0.30591,-0.004 0.61242,-0.006 0.91933,-0.006 0.30642,0 0.61235,0.002 0.91777,0.006 v -5.2e-4 c -0.30542,-0.004 -0.61135,-0.006 -0.91777,-0.006 -0.30695,0 -0.61339,0.002 -0.91933,0.006 z"
       style="baseline-shift:baseline;display:inline;overflow:visible;opacity:1;vector-effect:none;fill:#1b589d;enable-background:accumulate;stop-color:#000000;stop-opacity:1"
       id="path56" /><path
       d="m -93.598822,459.28749 c -9.973678,0.16055 -19.312898,2.93488 -27.371968,7.65845 -0.055,0.0323 -0.11096,0.0632 -0.16588,0.0956 -16.51459,9.75559 -27.59987,27.73483 -27.59987,48.29576 0,30.94825 25.1088,56.05653 56.057048,56.05653 30.94825,0 56.05652,-25.10828 56.05652,-56.05653 0,-9.87758 -2.5582,-19.16018 -7.04711,-27.22159 -0.002,-0.003 -0.003,-0.006 -0.005,-0.009 -0.0599,-0.10756 -0.12442,-0.21221 -0.185,-0.31936 -9.48525,-16.76525 -27.35136,-28.16932 -47.90147,-28.49956 -0.30534,-0.005 -0.61127,-0.007 -0.91777,-0.007 -0.30697,0 -0.61353,0.002 -0.91933,0.007 z m 0.7736,1.8464 c 0.0486,-1.3e-4 0.0971,0 0.14573,0 9.49111,0 18.40596,2.4445 26.16274,6.72621 l 0.005,-0.008 c 0.0475,0.0263 0.0947,0.0527 0.14211,0.0791 2e-4,1.1e-4 8.4e-4,4.1e-4 0.001,5.2e-4 0.53513,0.29751 1.06424,0.6039 1.58802,0.91881 l -0.0439,0.0765 0.0444,-0.0765 c 0.0467,0.0281 0.0933,0.0559 0.14004,0.0842 l -0.047,0.0811 c 7.5512,4.57238 13.94853,10.85901 18.49706,18.42627 0.31441,0.52305 0.62021,1.05211 0.91725,1.58646 0.0262,0.0471 0.0525,0.0944 0.0786,0.1416 l -0.0827,0.0475 c 4.28234,7.75733 6.80062,16.6279 6.80062,26.11985 0,9.49154 -2.44473,18.40648 -6.72672,26.16378 l 0.008,0.005 c -0.0262,0.0473 -0.0523,0.0948 -0.0786,0.14211 -4.62221,8.31462 -11.36876,15.28456 -19.50682,20.17758 l 5.2e-4,0.001 c -0.52444,0.31532 -1.05481,0.62249 -1.59061,0.92036 h -5.1e-4 l -5.2e-4,-5.2e-4 c -0.0472,0.0262 -0.0938,0.0519 -0.14108,0.078 -7.46142,4.11875 -15.99883,6.53003 -25.0858,6.7076 -0.0545,10e-4 -0.10932,0.002 -0.16382,0.003 v 5.1e-4 c -0.3052,0.005 -0.61084,0.008 -0.91725,0.008 -0.30682,0 -0.61321,-0.003 -0.91881,-0.008 v -5.1e-4 c -0.0546,-0.001 -0.10881,-0.002 -0.1633,-0.003 -9.087208,-0.17773 -17.619828,-2.5973 -25.081668,-6.71639 l -0.005,0.008 c -0.0473,-0.0262 -0.0944,-0.0518 -0.1416,-0.078 l -5.1e-4,5.2e-4 c -0.5356,-0.29776 -1.06585,-0.60414 -1.59009,-0.91933 l 5.2e-4,-10e-4 c -15.76378,-9.47751 -26.30537,-26.74652 -26.30537,-46.48812 0,-9.49139 2.48635,-18.38145 6.76858,-26.13845 l -0.0501,-0.0289 c 0.0262,-0.0475 0.0527,-0.0947 0.0791,-0.14211 0,0 0,-5.2e-4 0,-5.2e-4 0.12537,-0.2255 0.2591,-0.44571 0.38757,-0.66921 0.0424,-0.0738 0.0844,-0.14712 0.12712,-0.22066 0.13526,-0.23277 0.266,-0.46862 0.40463,-0.69918 l 0.0444,0.0253 -0.0444,-0.0258 c 0.0281,-0.0467 0.0564,-0.0933 0.0847,-0.14004 l 0.0506,0.0295 c 4.54345,-7.50357 10.81352,-13.84129 18.31775,-18.3839 l -0.005,-0.008 c 0.0444,-0.0268 0.0889,-0.0533 0.13332,-0.0801 0.52644,-0.3166 1.05839,-0.62496 1.59629,-0.92398 0.047,-0.0262 0.0944,-0.052 0.14159,-0.078 l 0.005,0.008 c 7.45835,-4.11706 16.00023,-6.4849 25.082708,-6.66471 v -0.0517 c 0.0542,-0.001 0.10806,-0.002 0.16226,-0.003 0.25737,-0.004 0.51533,-0.007 0.7736,-0.008 z"
       style="baseline-shift:baseline;display:inline;overflow:visible;opacity:1;vector-effect:none;fill:#1b589d;enable-background:accumulate;stop-color:#000000;stop-opacity:1"
       id="path180" /><path
       d="m -93.598822,459.28749 c 0.3058,-0.005 0.61236,-0.007 0.91933,-0.007 0.3065,0 0.61243,0.002 0.91777,0.007 -0.30534,-0.005 -0.61127,-0.007 -0.91777,-0.007 -0.30703,0 -0.61347,0.002 -0.91933,0.007 z"
       style="baseline-shift:baseline;display:inline;overflow:visible;opacity:1;vector-effect:none;fill:#1b589d;enable-background:accumulate;stop-color:#000000;stop-opacity:1"
       id="path179" /><rect
       style="display:inline;fill:#1b589d;fill-opacity:1;stroke:#1b589d;stroke-width:0.162545;stroke-opacity:1"
       id="rect24"
       width="2"
       height="157.66846"
       x="87.180962"
       y="451.16486" /><rect
       style="display:inline;fill:#1b589d;fill-opacity:1;stroke:#1b589d;stroke-width:0.162545;stroke-opacity:1"
       id="rect25"
       width="2"
       height="157.66846"
       x="502.08313"
       y="109.79834"
       transform="rotate(60)" /><rect
       style="display:inline;fill:#1b589d;fill-opacity:1;stroke:#1b589d;stroke-width:0.162545;stroke-opacity:1"
       id="rect26"
       width="2"
       height="157.66846"
       x="-415.90222"
       y="262.53226"
       transform="rotate(-60)" /><rect
       style="display:inline;fill:#1b589d;fill-opacity:1;stroke:#1b589d;stroke-width:0.162545;stroke-opacity:1"
       id="rect27"
       width="2"
       height="157.66846"
       x="340.36646"
       y="336.06793"
       transform="rotate(30)" /><rect
       style="display:inline;fill:#1b589d;fill-opacity:1;stroke:#1b589d;stroke-width:0.162545;stroke-opacity:1"
       id="rect28"
       width="2"
       height="157.66846"
       x="-189.63255"
       y="424.2489"
       transform="rotate(-30)" /><circle
       style="fill:none;fill-opacity:1;stroke:#1b589d;stroke-width:1.10666;stroke-dasharray:none;stroke-opacity:1"
       id="circle28"
       cx="88.180992"
       cy="529.99915"
       r="71.602104" /><circle
       style="fill:none;fill-opacity:1;stroke:#1b589d;stroke-width:0.996343;stroke-dasharray:none;stroke-opacity:1"
       id="circle29"
       cx="88.180992"
       cy="529.99915"
       r="64.464462" /><circle
       style="fill:none;fill-opacity:1;stroke:#1b589d;stroke-width:1.852;stroke-dasharray:none;stroke-opacity:1"
       id="circle30"
       cx="88.180992"
       cy="529.99915"
       r="55.130619" /><path
       d="m -92.740682,511.62202 c -0.66111,0.0106 -1.28016,0.19454 -1.81436,0.50764 -0.004,0.002 -0.007,0.004 -0.011,0.006 -1.09468,0.64665 -1.82947,1.83842 -1.82947,3.20131 0,2.05142 1.66435,3.71574 3.71577,3.71574 2.05142,0 3.71574,-1.66432 3.71574,-3.71574 0,-0.65474 -0.16957,-1.27004 -0.46712,-1.8044 -1.3e-4,-2e-4 -2e-4,-4e-4 -3.3e-4,-6e-4 -0.004,-0.007 -0.008,-0.0141 -0.0123,-0.0212 -0.62873,-1.1113 -1.813,-1.86722 -3.17517,-1.88911 -0.0202,-3.4e-4 -0.0405,-4.7e-4 -0.0608,-4.7e-4 -0.0203,0 -0.0407,1.3e-4 -0.0609,4.7e-4 z m 0.0513,0.12239 c 0.003,-1e-5 0.006,0 0.01,0 0.62913,0 1.22005,0.16203 1.73421,0.44585 l 3.4e-4,-5.3e-4 c 0.003,0.002 0.006,0.003 0.009,0.005 1e-5,10e-6 5e-5,3e-5 6e-5,3e-5 0.0355,0.0197 0.0706,0.04 0.10527,0.0609 l -0.003,0.005 0.003,-0.005 c 0.003,0.002 0.006,0.004 0.009,0.006 l -0.003,0.005 c 0.50053,0.30309 0.92458,0.7198 1.22608,1.2214 0.0208,0.0347 0.0411,0.0697 0.0608,0.10516 0.002,0.003 0.003,0.006 0.005,0.009 l -0.005,0.003 c 0.28386,0.5142 0.45079,1.10219 0.45079,1.73137 0,0.62916 -0.16206,1.22009 -0.44589,1.73428 l 5.3e-4,3.4e-4 c -0.002,0.003 -0.003,0.006 -0.005,0.009 -0.30638,0.55113 -0.75358,1.01314 -1.29302,1.33748 l 3e-5,6e-5 c -0.0348,0.0209 -0.0699,0.0413 -0.10543,0.061 h -3e-5 l -4e-5,-3e-5 c -0.003,0.002 -0.006,0.003 -0.009,0.005 -0.49458,0.27301 -1.06049,0.43284 -1.66283,0.44461 -0.004,7e-5 -0.007,1.4e-4 -0.0109,2e-4 v 4e-5 c -0.0202,3.3e-4 -0.0405,5.3e-4 -0.0608,5.3e-4 -0.0203,0 -0.0406,-2e-4 -0.0609,-5.3e-4 v -4e-5 c -0.004,-6e-5 -0.007,-1.3e-4 -0.0108,-2e-4 -0.60235,-0.0118 -1.16794,-0.17216 -1.66256,-0.4452 l -3.3e-4,5.3e-4 c -0.003,-0.002 -0.006,-0.003 -0.009,-0.005 l -4e-5,4e-5 c -0.0355,-0.0197 -0.0707,-0.0401 -0.1054,-0.0609 l 4e-5,-7e-5 c -1.04491,-0.62822 -1.74367,-1.7729 -1.74367,-3.08149 0,-0.62914 0.16481,-1.21842 0.44866,-1.7326 l -0.003,-0.002 c 0.002,-0.003 0.003,-0.006 0.005,-0.009 0,0 0,-3e-5 0,-3e-5 0.008,-0.0149 0.0172,-0.0295 0.0257,-0.0444 0.003,-0.005 0.006,-0.01 0.008,-0.0146 0.009,-0.0154 0.0176,-0.0311 0.0268,-0.0463 l 0.003,0.002 -0.003,-0.002 c 0.002,-0.003 0.004,-0.006 0.006,-0.009 l 0.003,0.002 c 0.30116,-0.49738 0.71678,-0.91748 1.2142,-1.21859 l -3.3e-4,-5.3e-4 c 0.003,-0.002 0.006,-0.004 0.009,-0.005 0.0349,-0.021 0.0702,-0.0414 0.10581,-0.0612 0.003,-0.002 0.006,-0.003 0.009,-0.005 l 3.3e-4,5.3e-4 c 0.49438,-0.27291 1.06059,-0.42986 1.66263,-0.44178 v -0.003 c 0.004,-6e-5 0.007,-1.3e-4 0.0108,-1.9e-4 0.0171,-2.7e-4 0.0342,-4.7e-4 0.0513,-5.3e-4 z"
       style="baseline-shift:baseline;display:inline;overflow:visible;opacity:1;vector-effect:none;fill:#1b589d;stroke-width:0.0662856;enable-background:accumulate;stop-color:#000000;stop-opacity:1"
       id="path292" /><path
       d="m 360.8309,480.74855 v 75.10136 l 1.00046,1.73271 0.99942,-1.73116 v -75.10291 z m 0.99994,80.83434 -0.99994,1.73168 v 75.10239 h 1.99988 v -75.10187 z"
       style="display:inline;fill:#1b589d;stroke-width:0.162545"
       id="path303" /><path
       d="m 429.60345,519.29969 -65.04048,37.55119 -1.36581,2.36575 0.63407,0.36587 66.77215,-38.55062 z m -69.77249,40.28333 -66.77215,38.55113 0.99994,1.73168 65.04047,-37.5512 1.36581,-2.36574 z"
       style="display:inline;fill:#1b589d;stroke-width:0.162545"
       id="path302" /><path
       d="m 294.05875,519.29969 -0.99994,1.73219 67.40622,38.91701 0.21136,-0.36587 -1.57717,-2.73214 z m 69.13841,39.91694 -0.21135,0.36587 1.57768,2.73265 65.03996,37.55068 0.99993,-1.73168 z"
       style="display:inline;fill:#1b589d;stroke-width:0.162545"
       id="path301" /><path
       d="m 400.38197,490.81047 -38.55061,66.77215 1.15445,1.99988 39.12836,-67.77209 z m -39.70558,68.77255 -39.12836,67.77209 1.73167,0.99994 38.55114,-66.77216 z"
       style="display:inline;fill:#1b589d;stroke-width:0.162545"
       id="path300" /><path
       d="m 323.28022,490.81047 -1.73219,0.99994 78.83394,136.54515 1.7322,-1.00045 z"
       style="display:inline;fill:#1b589d;stroke-width:0.162545"
       id="path299" /><circle
       style="fill:none;fill-opacity:1;stroke:#1b589d;stroke-width:1.10666;stroke-dasharray:none;stroke-opacity:1"
       id="circle297"
       cx="361.83105"
       cy="559.58295"
       r="71.602104" /><circle
       style="fill:none;fill-opacity:1;stroke:#1b589d;stroke-width:0.996343;stroke-dasharray:none;stroke-opacity:1"
       id="circle298"
       cx="361.83105"
       cy="559.58295"
       r="64.464462" /><circle
       style="fill:none;fill-opacity:1;stroke:#1b589d;stroke-width:1.852;stroke-dasharray:none;stroke-opacity:1"
       id="circle299"
       cx="361.83105"
       cy="559.58295"
       r="55.130619" /><path
       d="M 310.253 186.407 C 311.271 186.123 311.138 187.638 310.726 188.098 C 309.608 189.344 307.655 188.545 306.872 187.352 C 305.472 185.217 306.735 182.434 308.837 181.336 C 311.921 179.724 315.632 181.504 317.016 184.519 C 318.859 188.537 316.545 193.203 312.615 194.86 C 307.668 196.946 302.036 194.089 300.11 189.241 C 297.778 183.369 301.181 176.765 306.948 174.574 C 313.743 171.992 321.324 175.944 323.778 182.63 C 326.611 190.348 322.108 198.906 314.503 201.622 C 305.862 204.708 296.325 199.654 293.348 191.13 C 290.008 181.566 295.614 171.049 305.059 167.812 C 315.544 164.218 327.043 170.376 330.54 180.741 M 346.593 173.595 C 347.61 173.311 347.478 174.826 347.065 175.286 C 345.947 176.531 343.994 175.733 343.212 174.54 C 341.811 172.405 343.074 169.622 345.176 168.524 C 348.26 166.912 351.971 168.692 353.355 171.706 C 355.199 175.724 352.884 180.391 348.954 182.048 C 344.008 184.134 338.375 181.277 336.45 176.429 C 334.117 170.557 337.521 163.953 343.287 161.762 C 350.083 159.18 357.663 163.132 360.117 169.818 C 362.95 177.536 358.448 186.094 350.843 188.81 C 342.201 191.896 332.664 186.842 329.687 178.318 C 326.348 168.754 331.953 158.237 341.398 155 C 351.884 151.406 363.382 157.564 366.879 167.929 M 382.932 160.783 C 383.949 160.499 383.817 162.014 383.404 162.474 C 382.286 163.719 380.334 162.921 379.551 161.728 C 378.151 159.593 379.414 156.81 381.515 155.712 C 384.6 154.1 388.311 155.88 389.694 158.894 C 391.538 162.912 389.224 167.579 385.293 169.236 C 380.347 171.321 374.715 168.465 372.789 163.617 C 370.457 157.745 373.86 151.14 379.626 148.95 C 386.422 146.368 394.002 150.32 396.456 157.005 C 399.29 164.724 394.787 173.282 387.182 175.998 C 378.541 179.084 369.004 174.03 366.027 165.505 C 362.687 155.942 368.293 145.425 377.738 142.187 C 388.223 138.593 399.721 144.752 403.218 155.117 M 419.271 147.971 C 420.288 147.687 420.156 149.202 419.744 149.662 C 418.626 150.907 416.673 150.109 415.89 148.916 C 414.49 146.781 415.753 143.998 417.855 142.9 C 420.939 141.288 424.65 143.068 426.033 146.082 C 427.877 150.1 425.563 154.766 421.632 156.424 C 416.686 158.509 411.054 155.652 409.128 150.805 C 406.796 144.933 410.199 138.328 415.966 136.138 C 422.761 133.556 430.341 137.508 432.796 144.193 C 435.629 151.912 431.126 160.47 423.521 163.186 C 414.88 166.272 405.343 161.218 402.366 152.693 C 399.026 143.13 404.632 132.612 414.077 129.375 C 424.562 125.781 436.061 131.94 439.558 142.304"
       style="fill:none;fill-rule:evenodd;stroke:#000000;stroke-width:2.53228349;stroke-dasharray:none"
       id="path2627" /><path
       style="fill:none;stroke:#000000;stroke-width:0.765;stroke-linecap:butt;stroke-linejoin:miter;stroke-opacity:1;stroke-dasharray:none"
       d="M 369.92808,256.98487 C 476.14889,209.40679 476.42551,209.13018 476.42551,209.13018"
       id="path305" /><path
       d="m -324.94479,738.34238 c 1.018,-0.284 0.885,1.231 0.473,1.691 -1.118,1.246 -3.071,0.447 -3.854,-0.746 -1.4,-2.135 -0.137,-4.918 1.965,-6.016 3.084,-1.612 6.795,0.168 8.179,3.183 1.843,4.018 -0.471,8.684 -4.401,10.341 -4.947,2.086 -10.579,-0.771 -12.505,-5.619 -2.332,-5.872 1.071,-12.476 6.838,-14.667 6.795,-2.582 14.376,1.37 16.83,8.056 2.833,7.718 -1.67,16.276 -9.275,18.992 -8.641,3.086 -18.178,-1.968 -21.155,-10.492 -3.34,-9.564 2.266,-20.081 11.711,-23.318 10.485,-3.594 21.984,2.564 25.481,12.929 m 16.053,-7.146 c 1.017,-0.284 0.885,1.231 0.472,1.691 -1.118,1.245 -3.071,0.447 -3.853,-0.746 -1.401,-2.135 -0.138,-4.918 1.964,-6.016 3.084,-1.612 6.795,0.168 8.179,3.182 1.844,4.018 -0.471,8.685 -4.401,10.342 -4.946,2.086 -10.579,-0.771 -12.504,-5.619 -2.333,-5.872 1.071,-12.476 6.837,-14.667 6.796,-2.582 14.376,1.37 16.83,8.056 2.833,7.718 -1.669,16.276 -9.274,18.992 -8.642,3.086 -18.179,-1.968 -21.156,-10.492 -3.339,-9.564 2.266,-20.081 11.711,-23.318 10.486,-3.594 21.984,2.564 25.481,12.929 m 16.053,-7.146 c 1.017,-0.284 0.885,1.231 0.472,1.691 -1.118,1.245 -3.07,0.447 -3.853,-0.746 -1.4,-2.135 -0.137,-4.918 1.964,-6.016 3.085,-1.612 6.796,0.168 8.179,3.182 1.844,4.018 -0.47,8.685 -4.401,10.342 -4.946,2.085 -10.578,-0.771 -12.504,-5.619 -2.332,-5.872 1.071,-12.477 6.837,-14.667 6.796,-2.582 14.376,1.37 16.83,8.055 2.834,7.719 -1.669,16.277 -9.274,18.993 -8.641,3.086 -18.178,-1.968 -21.155,-10.493 -3.34,-9.563 2.266,-20.08 11.711,-23.318 10.485,-3.594 21.983,2.565 25.48,12.93 m 16.053,-7.146 c 1.017,-0.284 0.885,1.231 0.473,1.691 -1.118,1.245 -3.071,0.447 -3.854,-0.746 -1.4,-2.135 -0.137,-4.918 1.965,-6.016 3.084,-1.612 6.795,0.168 8.178,3.182 1.844,4.018 -0.47,8.684 -4.401,10.342 -4.946,2.085 -10.578,-0.772 -12.504,-5.619 -2.332,-5.872 1.071,-12.477 6.838,-14.667 6.795,-2.582 14.375,1.37 16.83,8.055 2.833,7.719 -1.67,16.277 -9.275,18.993 -8.641,3.086 -18.178,-1.968 -21.155,-10.493 -3.34,-9.563 2.266,-20.081 11.711,-23.318 10.485,-3.594 21.984,2.565 25.481,12.929"
       style="fill:none;fill-rule:evenodd;stroke:#000000;stroke-width:2.53228;stroke-dasharray:none"
       id="path306" /><path
       sodipodi:type="spiral"
       style="fill:none;fill-rule:evenodd;stroke:#000000;stroke-width:12.35905528;stroke-dasharray:none"
       id="path307"
       sodipodi:cx="-1510.1561"
       sodipodi:cy="3017.8901"
       sodipodi:expansion="1"
       sodipodi:revolution="3"
       sodipodi:radius="69.113716"
       sodipodi:argument="-19.043514"
       sodipodi:t0="0"
       d="m -1510.1561,3017.8901 c 3.4002,-0.6679 2.5779,4.254 1.1101,5.6515 -3.9777,3.7872 -10.1592,0.6736 -12.4131,-3.4312 -4.0316,-7.3427 0.8155,-16.1228 7.9726,-19.1747 10.5035,-4.4787 22.186,2.2969 25.9363,12.514 4.9985,13.6178 -3.7719,28.287 -17.0554,32.6978 -16.7159,5.5507 -34.4066,-5.243 -39.4594,-21.5967 -6.1197,-19.8066 6.7117,-40.5368 26.1381,-46.221 22.8934,-6.6986 46.6737,8.1789 52.9826,30.6795 7.2839,25.9778 -9.6451,52.815 -35.2209,59.7442 -29.0608,7.8733 -58.9593,-11.1106 -66.5057,-39.7623 -8.4659,-32.1429 12.5755,-65.106 44.3036,-73.2673 35.2242,-9.0607 71.2544,14.04 80.0289,48.8449"
       transform="matrix(0.26458333,0,0,0.26458333,31.349202,16.328321)" /><path
       style="fill:none;stroke:#000000;stroke-width:3.665;stroke-linecap:butt;stroke-linejoin:miter;stroke-dasharray:none;stroke-opacity:1"
       d="m -258.1383,823.80584 c 0.90305,-0.70452 1.49363,1.31158 1.2923,2.04577 -0.54561,1.98962 -2.92281,1.5924 -4.29422,0.29621 -2.45314,-2.31867 -2.49609,-6.3581 -0.87499,-8.47924 2.37911,-3.11286 7.02324,-2.01663 9.88076,1.45338 3.80859,4.62499 3.6794,11.46188 0.45762,14.91269 -4.05424,4.34255 -11.17747,2.47569 -15.46724,-3.20296 -5.19552,-6.87763 -4.88222,-16.59666 -0.0403,-21.34616 5.70605,-5.59711 15.34388,-2.94481 21.05378,4.95256 6.59231,9.11782 6.09178,21.74163 -0.37702,27.77964 -7.35027,6.86073 -19.51509,3.41799 -26.64028,-6.70217 -7.99339,-11.3533 -7.30442,-26.89116 0.79435,-34.21307 8.99114,-8.12875 23.68875,-3.8933 32.22678,8.45169 m 19.60945,-2.43754 c 0.90305,-0.70451 1.49363,1.31159 1.2923,2.04578 -0.54562,1.98962 -2.92281,1.5924 -4.29422,0.29621 -2.45314,-2.31867 -2.4961,-6.3581 -0.87499,-8.47924 2.3791,-3.11286 7.02324,-2.01663 9.88075,1.45338 3.8086,4.62499 3.67941,11.46187 0.45763,14.91269 -4.05424,4.34255 -11.17747,2.47569 -15.46724,-3.20296 -5.19552,-6.87763 -4.88222,-16.59667 -0.0403,-21.34616 5.70604,-5.59711 15.34388,-2.94481 21.05378,4.95256 6.59231,9.11781 6.09178,21.74163 -0.37703,27.77964 -7.35027,6.86073 -19.51508,3.41798 -26.64027,-6.70217 -7.99339,-11.3533 -7.30442,-26.89116 0.79435,-34.21307 8.99114,-8.12875 23.68875,-3.8933 32.22678,8.45169 m 19.60944,-2.43754 c 0.90305,-0.70451 1.49364,1.31159 1.2923,2.04577 -0.54561,1.98963 -2.9228,1.59241 -4.29422,0.29621 -2.45313,-2.31866 -2.49609,-6.35809 -0.87498,-8.47924 2.3791,-3.11286 7.02324,-2.01662 9.88075,1.45339 3.8086,4.62499 3.6794,11.46187 0.45763,14.91269 -4.05424,4.34255 -11.17747,2.47569 -15.46724,-3.20296 -5.19552,-6.87764 -4.88222,-16.59667 -0.0403,-21.34616 5.70604,-5.59711 15.34387,-2.94481 21.05378,4.95256 6.59231,9.11781 6.09178,21.74162 -0.37703,27.77964 -7.35027,6.86073 -19.51508,3.41798 -26.64028,-6.70217 -7.99338,-11.3533 -7.30441,-26.89116 0.79435,-34.21307 8.99115,-8.12875 23.68876,-3.8933 32.22678,8.45169 m 19.60945,-2.43754 c 0.90305,-0.70451 1.49364,1.31159 1.2923,2.04577 -0.54561,1.98962 -2.92281,1.59241 -4.29422,0.29621 -2.45313,-2.31867 -2.49609,-6.35809 -0.87498,-8.47924 2.3791,-3.11286 7.02324,-2.01662 9.88075,1.45339 3.80859,4.62499 3.6794,11.46187 0.45763,14.91268 -4.05424,4.34256 -11.17748,2.4757 -15.46724,-3.20296 -5.19552,-6.87763 -4.88223,-16.59666 -0.0403,-21.34615 5.70604,-5.59711 15.34387,-2.94482 21.05377,4.95256 6.59232,9.11781 6.09179,21.74162 -0.37702,27.77963 -7.35027,6.86073 -19.51509,3.41799 -26.64028,-6.70216 -7.99338,-11.3533 -7.30441,-26.89117 0.79435,-34.21308 8.99115,-8.12875 23.68876,-3.89329 32.22678,8.45169"
       id="path308"
       inkscape:path-effect="#path-effect308"
       inkscape:original-d="m -276.57317,829.23057 150.59679,-66.00626"
       transform="matrix(0.52541825,0,0,0.38600473,-190.65344,466.01347)" /><g
       id="g313"
       transform="translate(-201.55111,59.562853)"><path
         inkscape:connector-curvature="0"
         id="path309"
         style="fill:none;fill-opacity:1;stroke:#0000f1;stroke-width:0.975703;stroke-dasharray:none;stroke-opacity:1"
         d="m -57.592955,240.11221 a 56.017533,56.017533 0 0 1 -56.017555,56.01753 56.017533,56.017533 0 0 1 -56.01753,-56.01753 56.017533,56.017533 0 0 1 56.01753,-56.01754 56.017533,56.017533 0 0 1 56.017555,56.01754 z m 5.12676,0 a 61.144306,61.144306 0 0 1 -61.144315,61.1443 61.144306,61.144306 0 0 1 -61.1443,-61.1443 61.144306,61.144306 0 0 1 61.1443,-61.14431 61.144306,61.144306 0 0 1 61.144315,61.14431 z" /><rect
         style="display:inline;fill:#0000f1;fill-opacity:1;stroke-width:0.162545"
         id="rect309"
         width="2"
         height="157.66846"
         x="-115.12447"
         y="161.27798" /><rect
         style="display:inline;fill:#0000f1;fill-opacity:1;stroke-width:0.162545"
         id="rect310"
         width="2"
         height="157.66846"
         x="149.88104"
         y="140.05658"
         transform="rotate(60)" /><rect
         style="display:inline;fill:#0000f1;fill-opacity:1;stroke-width:0.162545"
         id="rect311"
         width="2"
         height="157.66846"
         x="-266.00552"
         y="-57.612816"
         transform="rotate(-60)" /><rect
         style="display:inline;fill:#0000f1;fill-opacity:1;stroke-width:0.162545"
         id="rect312"
         width="2"
         height="157.66846"
         x="20.221413"
         y="186.17128"
         transform="rotate(30)" /><rect
         style="display:inline;fill:#0000f1;fill-opacity:1;stroke-width:0.162545"
         id="rect313"
         width="2"
         height="157.66846"
         x="-219.89079"
         y="72.046814"
         transform="rotate(-30)" /><path
         inkscape:connector-curvature="0"
         id="path313"
         style="fill:none;fill-opacity:1;stroke:#0000f1;stroke-width:0.975703;stroke-dasharray:none;stroke-opacity:1"
         d="m -57.592955,240.11221 a 56.017533,56.017533 0 0 1 -56.017555,56.01753 56.017533,56.017533 0 0 1 -56.01753,-56.01753 56.017533,56.017533 0 0 1 56.01753,-56.01754 56.017533,56.017533 0 0 1 56.017555,56.01754 z m 5.12676,0 a 61.144306,61.144306 0 0 1 -61.144315,61.1443 61.144306,61.144306 0 0 1 -61.1443,-61.1443 61.144306,61.144306 0 0 1 61.1443,-61.14431 61.144306,61.144306 0 0 1 61.144315,61.14431 z" /></g><text
       xml:space="preserve"
       style="font-style:normal;font-weight:normal;font-size:7.76787px;line-height:1.25;font-family:sans-serif;letter-spacing:0px;word-spacing:0px;fill:#bbbacc;fill-opacity:1;stroke:none;stroke-width:0.194197"
       x="92.759285"
       y="49.681328"
       id="text313"><tspan
         sodipodi:role="line"
         id="tspan313"
         x="92.759285"
         y="49.681328"
         style="font-style:normal;font-variant:normal;font-weight:bold;font-stretch:normal;font-family:'DejaVu Sans Mono';-inkscape-font-specification:'DejaVu Sans Mono Bold';text-align:center;text-anchor:middle;fill:#bbbacc;fill-opacity:1;stroke-width:0.194197">OIL</tspan><tspan
         sodipodi:role="line"
         x="92.759285"
         y="59.703701"
         style="font-style:normal;font-variant:normal;font-weight:bold;font-stretch:normal;font-family:'DejaVu Sans Mono';-inkscape-font-specification:'DejaVu Sans Mono Bold';text-align:center;text-anchor:middle;fill:#bbbacc;fill-opacity:1;stroke-width:0.194197"
         id="tspan316">PRESSURE</tspan></text><path
       style="fill:none;fill-opacity:1;stroke:#9f0000;stroke-width:6.86482;stroke-dasharray:none;stroke-opacity:0.69999999"
       id="path314"
       sodipodi:type="arc"
       sodipodi:cx="93.026001"
       sodipodi:cy="78.005127"
       sodipodi:rx="58.244392"
       sodipodi:ry="58.244392"
       sodipodi:start="5.2383668"
       sodipodi:end="0.52872499"
       sodipodi:arc-type="arc"
       d="m 122.26812,27.633429 a 58.244392,58.244392 0 0 1 27.07382,35.508168 58.244392,58.244392 0 0 1 -6.02476,44.243913"
       sodipodi:open="true" /><path
       style="fill:none;fill-opacity:1;stroke:#9f0000;stroke-width:6.86482;stroke-dasharray:none;stroke-opacity:0.69999999"
       id="path315"
       sodipodi:type="arc"
       sodipodi:cx="-119.22508"
       sodipodi:cy="-21.566118"
       sodipodi:rx="58.244392"
       sodipodi:ry="58.244392"
       sodipodi:start="5.2383668"
       sodipodi:end="5.3868496"
       sodipodi:arc-type="arc"
       d="m -89.982967,-71.937816 a 58.244392,58.244392 0 0 1 7.130117,4.880271"
       sodipodi:open="true"
       inkscape:transform-center-x="43.83525"
       inkscape:transform-center-y="-10.720943"
       transform="rotate(-150.07678)" /><text
       xml:space="preserve"
       style="font-style:normal;font-weight:normal;font-size:9.71515px;line-height:1.25;font-family:sans-serif;letter-spacing:0px;word-spacing:0px;fill:#bbbacc;fill-opacity:1;stroke:none;stroke-width:0.242879"
       x="101.23343"
       y="98.154488"
       id="text315"><tspan
         sodipodi:role="line"
         id="tspan315"
         x="101.23343"
         y="98.154488"
         style="font-style:normal;font-variant:normal;font-weight:bold;font-stretch:normal;font-family:'DejaVu Sans Mono';-inkscape-font-specification:'DejaVu Sans Mono Bold';fill:#bbbacc;fill-opacity:1;stroke-width:0.242879">PSI</tspan></text><path
       style="fill:#f0d51c"
       d="m 153.82482,328.94665 c -0.17462,-0.1747 -0.3175,-0.7619 -0.3175,-1.3049 0,-0.7952 0.15457,-1.0975 0.79375,-1.5526 l 0.79375,-0.5652 v -18.8606 -18.8606 l 0.60161,-0.8927 c 0.33089,-0.491 1.00334,-1.1635 1.49434,-1.4943 0.88438,-0.596 0.97545,-0.6016 9.74726,-0.6016 8.4409,0 8.89969,0.025 9.82115,0.5432 0.53163,0.2988 1.26222,0.9744 1.62352,1.5013 0.64885,0.9463 0.65799,1.0379 0.74452,7.4604 l 0.0876,6.5023 1.4401,0.6309 c 1.51304,0.6627 2.59714,1.7227 3.17701,3.1064 0.23745,0.5666 0.3979,2.9396 0.50985,7.5406 0.1829,7.5175 0.32936,8.1813 1.99203,9.0285 1.74528,0.8893 3.63437,0.4348 4.7594,-1.1452 0.50795,-0.7134 0.56439,-1.0396 0.42408,-2.4514 -0.089,-0.8957 -0.58171,-3.3549 -1.09486,-5.465 -1.12081,-4.6087 -1.84844,-8.7296 -2.36804,-13.4113 -0.47504,-4.2802 -1.03289,-5.5055 -4.09903,-9.0032 -2.26902,-2.5883 -2.55186,-3.3223 -1.609,-4.1756 0.51332,-0.4645 0.58713,-0.4495 2.5518,0.5215 3.466,1.713 5.87634,4.5492 7.77111,9.1441 1.01838,2.4696 1.00493,2.8077 -0.13322,3.3505 -0.50785,0.2422 -0.99113,0.6538 -1.07395,0.9148 -0.13954,0.4396 1.1459,7.3971 2.67276,14.4663 0.78871,3.6517 0.81238,5.3436 0.0969,6.9242 -1.05703,2.3351 -2.94625,3.6636 -5.54522,3.8992 -2.75743,0.2501 -5.46621,-1.158 -6.65968,-3.4618 -0.52176,-1.0071 -0.58621,-1.6787 -0.77216,-8.0453 -0.21547,-7.3777 -0.38201,-8.3259 -1.48995,-8.484 l -0.59283,-0.085 v 10.5714 10.5713 l 0.65725,0.4306 c 0.87428,0.5729 1.10514,1.5728 0.55644,2.4103 l -0.43214,0.6595 H 167.0479 c -9.68488,0 -12.9848,-0.079 -13.22307,-0.3175 z m 21.11974,-28.2575 c 0.13777,-0.2183 0.25232,-2.8675 0.25454,-5.887 0.004,-5.1403 -0.0297,-5.5238 -0.52511,-6.0193 -0.50293,-0.5029 -0.88194,-0.5292 -7.64361,-0.5292 -6.38361,0 -7.17258,0.048 -7.68052,0.4631 -0.55152,0.451 -0.56419,0.6126 -0.49233,6.2762 0.0706,5.5672 0.0968,5.8247 0.61873,6.0854 0.35398,0.1768 3.1162,0.2258 7.88139,0.1399 6.13321,-0.1106 7.3775,-0.1974 7.58691,-0.5291 z"
       id="path10"
       sodipodi:nodetypes="csscccsssssscsssssssssssssssssssccccsscsccsssssssss" /><path
       style="fill:#eb2435"
       d="m 95.518965,236.47635 c -0.36373,-0.1451 -0.94059,-0.5245 -1.28191,-0.8432 -1.39031,-1.2981 -1.36406,-0.9938 -1.36406,-15.8099 0,-13.5675 0.01,-13.8185 0.56036,-14.7986 0.86913,-1.5465 2.1374,-2.1178 4.70119,-2.1178 h 2.146775 v -2.772 c 0,-3.72 -0.11593,-3.6446 5.42822,-3.5307 5.06466,0.104 4.89053,-0.028 4.89053,3.7075 v 2.5952 h 9.78959 9.78958 v -2.5255 c 0,-2.3287 0.0506,-2.5762 0.64943,-3.175 0.63214,-0.6322 0.75574,-0.6495 4.64224,-0.6495 3.88649,0 4.01009,0.017 4.64223,0.6495 0.59785,0.5978 0.64943,0.8479 0.64943,3.1486 v 2.4993 l 2.31511,0.092 c 2.72375,0.1088 3.78367,0.6741 4.58908,2.4475 0.45924,1.0113 0.49292,1.9881 0.49833,14.4561 0.006,13.3462 0.005,13.3738 -0.5895,14.5521 -0.43489,0.8624 -0.91343,1.3409 -1.77585,1.7758 l -1.18054,0.5953 -24.21946,-0.017 c -15.4333,-0.011 -24.459365,-0.1124 -24.880775,-0.2804 z m 48.894855,-3.1953 c 0.45756,-0.4576 0.45756,-26.4241 0,-26.8817 -0.42068,-0.4206 -47.070055,-0.4632 -47.854055,-0.044 -0.49548,0.2652 -0.51177,0.6943 -0.51177,13.4806 0,12.2987 0.0318,13.2253 0.46302,13.4764 0.71435,0.4161 47.485985,0.3851 47.902805,-0.032 z m -10.795,-9.6044 v -1.9844 h -1.85208 -1.85208 v -1.9259 -1.926 l 1.85208,0.101 1.85208,0.101 v -2.0115 -2.0115 h 1.97279 1.97278 l 0.0777,1.9183 0.0777,1.9182 1.91823,0.078 1.91823,0.078 v 1.8405 1.8405 h -1.98437 -1.98438 v 1.9844 1.9843 h -1.98437 -1.98438 z m -34.395825,-3.8364 v -1.8521 h 5.688535 c 3.1287,0 5.77784,-0.03 5.88698,-0.066 0.10914,-0.036 0.23342,0.797 0.27618,1.8521 l 0.0777,1.9182 h -5.96471 -5.964715 z"
       id="path7"
       sodipodi:nodetypes="csscscssscccsssssccsssscscccsssscccccccccccccccccccccccccccccssscccc" /><path
       d="m 209.24562,158.46817 c -0.097,-0.097 -0.17639,-2.9479 -0.17639,-6.3353 v -6.1589 l -2.97657,-0.9204 c -1.6371,-0.5062 -4.01835,-1.2413 -5.29166,-1.6334 -1.96791,-0.6061 -2.31441,-0.7976 -2.31044,-1.2771 0.007,-0.881 2.54521,-8.4697 2.8686,-8.5775 0.3589,-0.1196 9.83996,2.567 10.27819,2.9125 0.17559,0.1384 0.35411,1.0447 0.39687,2.0148 l 0.0777,1.7631 h 3.96874 3.96875 l 0.0799,-1.6957 c 0.0882,-1.8729 -0.0822,-2.13 -1.41601,-2.1367 -0.44384,0 -0.94986,-0.1469 -1.12448,-0.3215 -0.40929,-0.4093 -0.40929,-1.6016 0,-2.0109 0.38003,-0.38 7.80445,-0.4438 8.3917,-0.072 0.38907,0.2463 0.51974,1.7264 0.1822,2.0639 -0.10594,0.106 -0.81039,0.2548 -1.56545,0.3308 l -1.37283,0.1381 -0.0777,1.9182 -0.0777,1.9182 4.04649,-0.01 4.04648,-0.01 2.38125,2.52 2.38125,2.5199 11.39962,-3.4238 c 6.35365,-1.9083 11.63875,-3.3614 11.93986,-3.2826 0.29714,0.078 1.23326,1.1615 2.08028,2.4084 l 1.54003,2.2672 -0.90219,0.7532 c -0.49621,0.4142 -1.03688,0.7532 -1.20151,0.7532 -0.16462,0 -0.7049,-0.599 -1.20062,-1.331 -0.49891,-0.7368 -1.17773,-1.402 -1.52046,-1.4899 -0.65783,-0.1688 -3.49463,0.5526 -4.44889,1.1314 -0.31357,0.1902 -3.32536,3.7437 -6.69287,7.8968 l -6.12274,7.551 h -15.68647 c -8.62755,0 -15.76584,-0.079 -15.86285,-0.1764 z m 29.84259,-2.6341 c 0.59387,-0.2279 8.3456,-9.7722 8.3456,-10.2755 0,-0.2243 -0.18329,-0.4078 -0.40732,-0.4078 -0.22402,0 -3.03567,0.7874 -6.24811,1.7498 l -5.84081,1.7498 -2.02011,-2.1899 c -1.11106,-1.2044 -2.17569,-2.4085 -2.36584,-2.6758 -0.32403,-0.4555 -0.91768,-0.486 -9.45885,-0.486 h -9.11313 v 6.1736 c 0,3.3955 0.0794,6.253 0.17639,6.35 0.22294,0.223 26.35212,0.2344 26.93218,0.012 z m -30.07438,-15.229 c 0.0667,-1.7573 0.014,-2.0454 -0.39688,-2.1693 -1.93507,-0.5836 -5.20158,-1.4871 -5.37658,-1.4871 -0.36112,0 -1.40091,3.4594 -1.12325,3.7371 0.33393,0.3339 5.91755,2.0747 6.42294,2.0025 0.30539,-0.044 0.4146,-0.5239 0.47377,-2.0832 z m 52.56316,12.6275 c -0.95821,-0.9582 -0.87493,-2.3247 0.25046,-4.1096 l 0.89989,-1.4272 0.8304,1.3072 c 1.30624,2.0562 1.38112,3.249 0.2735,4.3566 -0.70138,0.7014 -1.46912,0.6581 -2.25425,-0.127 z"
       style="fill:#eb2435"
       id="path1-6" /><path
       d="m 212.97371,241.53776 c -2.46799,-1.3566 -3.22123,-1.54 -4.09176,-0.9964 -0.36214,0.2262 -0.73014,0.2442 -1.25318,0.061 -0.60005,-0.2097 -0.75568,-0.4398 -0.82063,-1.2133 -0.0967,-1.1511 0.3556,-1.6771 1.81864,-2.1155 1.01147,-0.303 1.16632,-0.2611 3.89079,1.0528 1.56056,0.7526 2.99536,1.3677 3.18844,1.3669 0.19308,-9e-4 1.53383,-0.6564 2.97944,-1.4568 1.44562,-0.8003 2.81359,-1.4552 3.03994,-1.4552 0.22635,0 1.68908,0.6784 3.25051,1.5074 l 2.83895,1.5074 2.82278,-1.5074 c 1.55252,-0.829 2.99895,-1.5074 3.21428,-1.5074 0.21533,0 1.62876,0.6549 3.14097,1.4552 1.5122,0.8004 2.89717,1.4552 3.0777,1.4552 0.18053,0 1.42559,-0.6548 2.76679,-1.4552 1.3412,-0.8003 2.62658,-1.4552 2.85641,-1.4552 0.91538,0 2.8979,1.1068 3.14454,1.7555 0.45603,1.1995 -0.79307,2.5227 -1.84826,1.958 -0.91104,-0.4876 -1.63301,-0.2976 -3.98614,1.049 -1.27147,0.7276 -2.56769,1.3229 -2.88048,1.3229 -0.3128,0 -1.75502,-0.5953 -3.20494,-1.3229 -1.44992,-0.7276 -2.83201,-1.3229 -3.0713,-1.3229 -0.23929,0 -1.53612,0.5953 -2.88183,1.3229 -1.34571,0.7276 -2.70206,1.3229 -3.01411,1.3229 -0.31206,0 -1.75367,-0.5953 -3.20359,-1.3229 -1.44992,-0.7276 -2.75124,-1.3229 -2.89183,-1.3229 -0.14058,0 -1.35123,0.5953 -2.69034,1.3229 -1.33911,0.7276 -2.74429,1.3184 -3.12264,1.3128 -0.37835,-0.01 -1.75946,-0.5992 -3.06915,-1.3191 z m 12.96458,-5.9249 c -2.99,-1.3346 -3.69322,-5.2271 -1.39824,-7.7395 0.50571,-0.5537 0.52289,-0.9485 0.48622,-11.172 -0.025,-6.9722 0.0612,-10.9666 0.25202,-11.6751 0.58089,-2.1573 3.0545,-2.7309 4.56261,-1.058 0.62277,0.6908 0.7276,1.0352 0.7276,2.3904 v 1.5834 h 3.04271 3.04271 v 1.0583 1.0583 l -2.64584,0.033 c -1.45521,0.018 -2.79466,0.048 -2.97656,0.066 -0.2231,0.022 -0.35603,0.6574 -0.40847,1.9513 l -0.0777,1.9183 h 3.0543 3.0543 v 1.0583 1.0583 h -3.0543 -3.0543 l 0.0777,1.9183 0.0777,1.9182 2.97656,0.075 2.97657,0.075 v 1.0496 1.0497 h -3.04271 -3.04271 v 2.5448 c 0,2.4422 0.0316,2.5807 0.78262,3.4361 0.92319,1.0514 1.43548,2.7239 1.19372,3.897 -0.60636,2.9424 -3.92411,4.7028 -6.60655,3.5054 z m -13.596,-1.5522 -2.74808,-1.3584 -1.53268,0.8491 c -0.84296,0.4669 -1.77071,0.849 -2.06166,0.849 -0.81774,0 -1.3998,-0.7503 -1.30868,-1.6868 0.0725,-0.7447 0.30302,-0.9426 2.32322,-1.9937 2.54918,-1.3264 2.00672,-1.3706 6.42369,0.5233 l 2.05189,0.8798 1.38769,-0.6132 c 1.92041,-0.8487 2.671,-0.9477 3.19711,-0.4216 0.57625,0.5763 0.56123,1.7971 -0.0287,2.331 -0.54235,0.4908 -4.09932,2.049 -4.6105,2.0198 -0.18988,-0.011 -1.58187,-0.6311 -3.09332,-1.3783 z m 25.36996,0.4804 c -2.39349,-1.0686 -2.99184,-1.8222 -2.29327,-2.8883 0.56995,-0.8699 1.3216,-0.8803 2.69014,-0.037 0.58209,0.3585 1.3248,0.6555 1.65047,0.6601 0.32567,0.01 1.83184,-0.6083 3.34705,-1.3619 l 2.75491,-1.3701 2.29365,1.0394 c 2.42041,1.0968 2.93326,1.6081 2.66903,2.6609 -0.28297,1.1274 -1.24097,1.2426 -3.08448,0.3707 l -1.62515,-0.7685 -1.29029,0.5085 c -0.70966,0.2798 -2.00148,0.8676 -2.87071,1.3064 -0.86924,0.4388 -1.73265,0.7907 -1.9187,0.782 -0.18605,-0.01 -1.23124,-0.4145 -2.32265,-0.9018 z"
       style="fill:#eb2435"
       id="path1-2" /><path
       d="m 111.09042,79.70406 c -0.034,-0.03392 -0.0617,-1.031053 -0.0617,-2.215825 v -2.154128 l -1.04109,-0.321918 c -0.57258,-0.177048 -1.40544,-0.434155 -1.85079,-0.571296 -0.6883,-0.211988 -0.80949,-0.278967 -0.8081,-0.446677 0.002,-0.308137 0.89021,-2.96235 1.00332,-3.000054 0.12553,-0.04183 3.44161,0.89783 3.59488,1.018673 0.0614,0.0484 0.12385,0.365392 0.13882,0.704693 l 0.0272,0.616659 h 1.3881 1.3881 l 0.0279,-0.593085 c 0.0308,-0.655063 -0.0287,-0.744986 -0.49526,-0.747329 -0.15524,0 -0.33223,-0.05138 -0.39331,-0.112449 -0.14315,-0.143155 -0.14315,-0.560172 0,-0.703329 0.13293,-0.132907 2.72968,-0.155223 2.93508,-0.02518 0.13607,0.08614 0.18178,0.603822 0.0637,0.721866 -0.037,0.03708 -0.28344,0.08912 -0.54753,0.1157 l -0.48015,0.0483 -0.0272,0.670907 -0.0272,0.670907 1.41529,-0.0035 1.41529,-0.0035 0.83286,0.881391 0.83287,0.881357 3.98711,-1.197504 c 2.22224,-0.667444 4.07075,-1.175678 4.17607,-1.148118 0.10392,0.02728 0.43135,0.406246 0.72759,0.842359 l 0.53864,0.792973 -0.31554,0.263438 c -0.17356,0.144871 -0.36267,0.263438 -0.42024,0.263438 -0.0576,0 -0.24655,-0.209506 -0.41993,-0.465528 -0.1745,-0.257702 -0.41192,-0.490362 -0.5318,-0.521106 -0.23008,-0.05904 -1.22227,0.193277 -1.55604,0.395717 -0.10967,0.06652 -1.16307,1.309392 -2.34089,2.761973 l -2.14147,2.641027 h -5.48648 c -3.01755,0 -5.51424,-0.02763 -5.54817,-0.0617 z m 10.4377,-0.921299 c 0.20771,-0.07971 2.91894,-3.417911 2.91894,-3.593945 0,-0.07845 -0.0641,-0.142631 -0.14246,-0.142631 -0.0784,0 -1.06175,0.275401 -2.18533,0.612007 l -2.04288,0.612008 -0.70655,-0.765935 c -0.38859,-0.421249 -0.76096,-0.842394 -0.82747,-0.935885 -0.11333,-0.159315 -0.32096,-0.169983 -3.30832,-0.169983 h -3.18739 v 2.15927 c 0,1.187605 0.0278,2.187041 0.0617,2.220967 0.078,0.078 9.21688,0.08198 9.41975,0.0042 z m -10.51878,-5.326473 c 0.0234,-0.614632 0.005,-0.715397 -0.13881,-0.758732 -0.6768,-0.204119 -1.81929,-0.520125 -1.8805,-0.520125 -0.1263,0 -0.48998,1.209955 -0.39287,1.307083 0.11679,0.116784 2.06971,0.725643 2.24648,0.700391 0.10681,-0.01539 0.14501,-0.183239 0.1657,-0.728617 z m 18.38442,4.416576 c -0.33514,-0.335138 -0.30601,-0.813084 0.0876,-1.437368 l 0.31475,-0.499176 0.29044,0.457205 c 0.45687,0.719173 0.48305,1.136366 0.0957,1.523759 -0.24531,0.24532 -0.51383,0.230175 -0.78844,-0.04442 z"
       style="fill:#bbbacc;fill-opacity:1;stroke-width:0.349758"
       id="path11" /></g></svg>
